<svg width="1392" height="502" viewBox="0 0 1392 502" fill="none" xmlns="http://www.w3.org/2000/svg">
<path d="M1367.96 4.65148L1357.17 1M1367.96 4.65148L1335.97 4.65148M1367.96 4.65148L1379.12 8.42355M1367.96 4.65148L1390.63 4.65148M1357.17 1L1361.1 1.00142L1364.98 1.00933L1368.79 1.03156L1372.48 1.07534L1376.01 1.14639L1379.34 1.25333L1382.43 1.40189L1385.3 1.59134L1387.77 1.8533L1390.01 2.15688L1390.63 2.26321V4.65148M1357.17 1L1325.68 1M1325.68 1L1294.2 1M1325.68 1L1335.97 4.65148M1294.2 1L1262.71 1M1294.2 1L1303.97 4.65148M1262.71 1L1231.23 1M1262.71 1L1271.97 4.65148M1231.23 1L1199.75 1M1231.23 1L1239.97 4.65148M1199.75 1L1168.26 1M1199.75 1L1207.97 4.65148M1168.26 1L1136.78 1M1168.26 1L1175.97 4.65148M1136.78 1L1105.29 1M1136.78 1L1143.98 4.65148M1105.29 1L1073.81 1M1105.29 1L1111.98 4.65148M1073.81 1L1042.33 1M1073.81 1L1079.98 4.65148M1042.33 1L1010.84 1M1042.33 1L1047.98 4.65148M1010.84 1L979.357 1M1010.84 1L1015.98 4.65148M979.357 1L947.873 1M979.357 1L980.5 1.9021L982.232 3.26783L983.985 4.65148M947.873 1L916.389 1M947.873 1L948.889 1.9021L951.986 4.65148M916.389 1L884.905 1M916.389 1L919.988 4.65148M884.905 1L853.421 1M884.905 1L886.05 2.35566L887.21 3.72713L887.599 4.18859L887.99 4.65148M853.421 1L821.937 1M853.421 1L854.375 2.35566L854.696 2.81066L855.018 3.26783L855.992 4.65148M821.937 1L790.453 1M821.937 1L823.994 4.65148M790.453 1L790.643 1.44997L790.833 1.9021L791.799 4.18859L791.995 4.65148M790.453 1L758.969 1M758.969 1L727.484 1M758.969 1L759.997 4.65148M727.484 1L696 1M727.484 1L727.675 2.35566L727.999 4.65148M696 1L664.516 1M696 1V4.65148M664.516 1L633.031 1M664.516 1L664.325 2.35566L664.002 4.65148M633.031 1L601.548 1M633.031 1L632.003 4.65148M601.548 1L601.357 1.44997L601.167 1.9021L600.201 4.18859L600.005 4.65148M601.548 1L570.064 1M570.064 1L538.579 1M570.064 1L568.268 4.18859L568.007 4.65148M538.579 1L507.095 1M538.579 1L537.625 2.35566L537.304 2.81066L536.659 3.72713L536.334 4.18859L536.008 4.65148M507.095 1L475.611 1M507.095 1L505.95 2.35566L504.791 3.72713L504.401 4.18859L504.01 4.65148M475.611 1L444.127 1M475.611 1L472.012 4.65148M444.127 1L412.643 1M444.127 1L443.111 1.9021L440.014 4.65148M412.643 1L381.159 1M412.643 1L408.015 4.65148M381.159 1L349.675 1M381.159 1L376.017 4.65148M349.675 1L318.19 1M349.675 1L344.019 4.65148M318.19 1L286.706 1M318.19 1L312.02 4.65148M286.706 1L255.222 1M286.706 1L280.022 4.65148M255.222 1L223.738 1M255.222 1L248.023 4.65148M223.738 1L192.254 1M223.738 1L216.025 4.65148M192.254 1L160.77 1M192.254 1L184.027 4.65148M160.77 1L129.286 1M160.77 1L152.028 4.65148M129.286 1L97.8012 1M129.286 1L120.03 4.65148M97.8012 1L66.3173 1M97.8012 1L88.0323 4.65148M66.3173 1L34.8334 1M66.3173 1L56.0339 4.65148M34.8334 1L30.9044 1.00142L27.0159 1.00933L23.2085 1.03156L19.5205 1.07534L15.9923 1.14639L12.6618 1.25333L9.5685 1.40189L6.69738 1.59134L4.23363 1.8533L1.99057 2.15688L1.37409 2.26323L1.37409 4.65148M34.8334 1L24.0355 4.65148M88.0323 4.65148L120.03 4.65148M88.0323 4.65148L56.0339 4.65148M88.0323 4.65148L77.9378 8.42355M120.03 4.65148L110.467 8.42355M120.03 4.65148L152.028 4.65148M216.025 4.65148L248.023 4.65148M216.025 4.65148L184.027 4.65148M216.025 4.65148L214.058 5.58302L208.056 8.42355M248.023 4.65148L240.586 8.42355M248.023 4.65148L280.022 4.65148M344.019 4.65148L376.017 4.65148M344.019 4.65148L312.02 4.65148M344.019 4.65148L342.576 5.58302L341.849 6.05094L338.174 8.42355M376.017 4.65148L375.362 5.11582L374.705 5.58302L370.705 8.42355M376.017 4.65148L408.015 4.65148M472.012 4.65148L471.553 5.11582L468.293 8.42355M472.012 4.65148L504.01 4.65148M472.012 4.65148L440.014 4.65148M504.01 4.65148L503.223 5.58302L502.827 6.05094L502.43 6.52174L500.822 8.42355M504.01 4.65148L536.008 4.65148M600.005 4.65148L632.003 4.65148M600.005 4.65148L568.007 4.65148M600.005 4.65148L598.412 8.42355M632.003 4.65148L631.872 5.11582L631.741 5.58302L631.609 6.05094L631.21 7.46834L630.941 8.42355M632.003 4.65148L664.002 4.65148M727.999 4.65148L759.997 4.65148M727.999 4.65148L696 4.65148M727.999 4.65148L728.53 8.42355M759.997 4.65148L760.128 5.11582L760.259 5.58302L760.391 6.05094L761.059 8.42355M759.997 4.65148L791.995 4.65148M855.992 4.65148L887.99 4.65148M855.992 4.65148L823.994 4.65148M855.992 4.65148L856.648 5.58302L857.976 7.46834L858.311 7.94487L858.648 8.42355M887.99 4.65148L888.777 5.58302L889.173 6.05094L889.571 6.52174L891.178 8.42355M887.99 4.65148L919.988 4.65148M983.985 4.65148L1015.98 4.65148M983.985 4.65148L951.986 4.65148M983.985 4.65148L985.166 5.58302L985.76 6.05094L988.766 8.42355M1015.98 4.65148L1016.64 5.11582L1017.29 5.58302L1021.3 8.42355M1015.98 4.65148L1047.98 4.65148M1111.98 4.65148L1143.98 4.65148M1111.98 4.65148L1079.98 4.65148M1111.98 4.65148L1113.68 5.58302L1114.54 6.05094L1118.88 8.42355M1143.98 4.65148L1151.41 8.42355M1143.98 4.65148L1175.97 4.65148M1239.97 4.65148L1271.97 4.65148M1239.97 4.65148L1207.97 4.65148M1239.97 4.65148L1249 8.42355M1271.97 4.65148L1281.53 8.42355M1271.97 4.65148L1303.97 4.65148M1.26194 38.7981H1.37409M33.4687 38.7981L45.6854 33.979M33.4687 38.7981L20.7838 43.8017M33.4687 38.7981H70.2759M33.4687 38.7981L1.37409 38.7981M45.6854 33.979L9.55693 33.979M45.6854 33.979L57.4601 29.3342M45.6854 33.979H81.8139M9.55693 33.979L21.9857 29.3342M9.55693 33.979H1.37409M9.55693 33.979L1.37409 37.0363M45.5393 20.5313L79.7742 20.5313M45.5393 20.5313L56.7097 16.3566M45.5393 20.5313L11.3051 20.5313M45.5393 20.5313L33.9716 24.8546M79.7742 20.5313L90.3571 16.3566M79.7742 20.5313L68.8158 24.8546M79.7742 20.5313L114.009 20.5313M56.7097 16.3566L90.3571 16.3566M56.7097 16.3566L67.5032 12.3234M56.7097 16.3566L23.0631 16.3566M90.3571 16.3566L124.004 16.3566M90.3571 16.3566L100.582 12.3234M1.02171 114.864H1.37409M30.7213 114.864L46.4749 106.874M30.7213 114.864L14.1849 123.251M30.7213 114.864L78.2417 114.864M30.7213 114.864H1.37409M46.4749 106.874L61.4998 99.2538M46.4749 106.874L92.8693 106.874M46.4749 106.874H1.37409M16.1783 99.2538L61.4998 99.2538M16.1783 99.2538L31.5483 91.978M16.1783 99.2538H1.37409M16.1783 99.2538L1.37409 106.262M46.2382 85.0238L89.5554 85.0238M46.2382 85.0238L60.2928 78.3711M46.2382 85.0238H2.92108M46.2382 85.0238L31.5483 91.978M89.5554 85.0238L102.674 78.3711M89.5554 85.0238L75.8445 91.978M89.5554 85.0238H132.873M60.2928 78.3711H102.674M60.2928 78.3711L17.9127 78.3711M60.2928 78.3711L73.7527 71.9996M102.674 78.3711L115.236 71.9996M102.674 78.3711H145.054M99.0313 60.0332H138.829M99.0313 60.0332L110.916 54.4074M99.0313 60.0332L59.2335 60.0332M99.0313 60.0332L86.6539 65.8923M138.829 60.0332L149.921 54.4074M138.829 60.0332L127.277 65.8923M138.829 60.0332L178.627 60.0332M110.916 54.4074L149.921 54.4074M110.916 54.4074L71.9105 54.4074M110.916 54.4074L122.337 49.0012M149.921 54.4074L160.581 49.0012M149.921 54.4074H188.927M143.89 38.7981L180.698 38.7981M143.89 38.7981L154.071 33.979M143.89 38.7981H107.083M143.89 38.7981L133.32 43.8017M180.698 38.7981L190.199 33.979M180.698 38.7981L170.832 43.8017M180.698 38.7981L217.505 38.7981M154.071 33.979H190.199M154.071 33.979L117.942 33.979M154.071 33.979L163.883 29.3342M190.199 33.979L199.358 29.3342M190.199 33.979L226.328 33.979M182.478 20.5313L216.713 20.5313M182.478 20.5313L191.297 16.3566M182.478 20.5313L148.244 20.5313M182.478 20.5313L173.346 24.8546M216.713 20.5313L224.944 16.3566M216.713 20.5313L208.19 24.8546M216.713 20.5313L250.948 20.5313M191.297 16.3566L224.944 16.3566M191.297 16.3566L199.819 12.3234M191.297 16.3566H157.65M224.944 16.3566L258.591 16.3566M224.944 16.3566L232.897 12.3234M25.72 253.384L47.8916 237.64M25.72 253.384L1.97682 270.242M25.72 253.384H92.7478M25.72 253.384H1.37409M47.8916 237.64L68.6443 222.905M47.8916 237.64H112.702M47.8916 237.64H1.37409M47.4415 196.094H106.402M47.4415 196.094L66.3882 183.865M47.4415 196.094L27.3191 209.084M47.4415 196.094H1.37409M106.402 196.094L123.625 183.865M106.402 196.094L88.1083 209.084M106.402 196.094L165.362 196.094M66.3882 183.865L123.625 183.865M66.3882 183.865H9.15101M66.3882 183.865L84.2596 172.328M123.625 183.865L139.872 172.328M123.625 183.865H180.863M117.121 151.115H169.747M117.121 151.115L132.263 141.341M117.121 151.115L64.496 151.115M117.121 151.115L101.144 161.43M169.747 151.115L183.512 141.341M169.747 151.115L155.221 161.43M169.747 151.115H222.372M132.263 141.341H183.512M132.263 141.341L81.0144 141.341M132.263 141.341L146.633 132.066M183.512 141.341L196.576 132.066M183.512 141.341H234.76M173.281 114.864L220.801 114.864M173.281 114.864L185.659 106.874M173.281 114.864H125.761M173.281 114.864L160.289 123.251M220.801 114.864L232.054 106.874M220.801 114.864L208.989 123.251M220.801 114.864H268.321M185.659 106.874H232.054M185.659 106.874L139.265 106.874M185.659 106.874L197.464 99.2538M232.054 106.874L242.786 99.2538M232.054 106.874H278.448M219.508 85.0238H262.826M219.508 85.0238L229.815 78.3711M219.508 85.0238H176.19M219.508 85.0238L208.735 91.978M262.826 85.0238L272.196 78.3711M262.826 85.0238L253.032 91.978M262.826 85.0238L306.143 85.0238M229.815 78.3711H272.196M229.815 78.3711H187.435M229.815 78.3711L239.685 71.9996M272.196 78.3711L281.169 71.9996M272.196 78.3711L314.576 78.3711M258.223 60.0332L298.021 60.0332M258.223 60.0332L266.938 54.4074M258.223 60.0332H218.425M258.223 60.0332L249.146 65.8923M298.021 60.0332L299.029 59.3177L305.944 54.4074M298.021 60.0332L289.77 65.8923M298.021 60.0332L337.819 60.0332M266.938 54.4074H305.944M266.938 54.4074L227.933 54.4074M266.938 54.4074L275.314 49.0012M305.944 54.4074L313.558 49.0012M305.944 54.4074L344.95 54.4074M291.119 38.7981L327.927 38.7981M291.119 38.7981L298.586 33.979M291.119 38.7981L254.312 38.7981M291.119 38.7981L283.368 43.8017M327.927 38.7981L334.714 33.979M327.927 38.7981L325.316 40.6526L320.88 43.8017M327.927 38.7981H364.734M298.586 33.979L334.714 33.979M298.586 33.979H262.457M298.586 33.979L305.781 29.3342M334.714 33.979L341.255 29.3342M334.714 33.979H370.843M319.417 20.5313L353.652 20.5313M319.417 20.5313L325.884 16.3566M319.417 20.5313L285.183 20.5313M319.417 20.5313L312.721 24.8546M353.652 20.5313L358.081 17.3872L358.808 16.8705L359.532 16.3566M353.652 20.5313L347.564 24.8546M353.652 20.5313L387.887 20.5313M325.884 16.3566L359.532 16.3566M325.884 16.3566L332.133 12.3234M325.884 16.3566L292.238 16.3566M359.532 16.3566L393.179 16.3566M359.532 16.3566L365.212 12.3234M50.0051 432.723H142.291M50.0051 432.723L79.0637 403.247M50.0051 432.723L18.0741 465.114M50.0051 432.723L1.37409 432.724M142.291 432.723L167.198 403.247M142.291 432.723L114.921 465.114M142.291 432.723L234.575 432.723M79.0637 403.247H167.198M79.0637 403.247L105.621 376.309M79.0637 403.247H1.37409M167.198 403.247L189.961 376.309M167.198 403.247L255.332 403.247M152.419 328.838H230.074M152.419 328.838L173.142 307.817M152.419 328.838H74.7649M152.419 328.838L129.986 351.594M230.074 328.838L247.836 307.817M230.074 328.838L210.845 351.594M230.074 328.838L307.728 328.838M173.142 307.817L247.836 307.817M173.142 307.817H98.4481M173.142 307.817L192.343 288.34M247.836 307.817L264.294 288.34M247.836 307.817H322.53M226.804 253.384H293.832M226.804 253.384L242.325 237.64M226.804 253.384H159.776M226.804 253.384L210.184 270.242M293.832 253.384L307.135 237.64M293.832 253.384L279.586 270.242M293.832 253.384L360.86 253.384M242.325 237.64H307.135M242.325 237.64H177.513M242.325 237.64L256.851 222.905M307.135 237.64L319.587 222.905M307.135 237.64L371.946 237.64M283.281 196.094H342.241M283.281 196.094L295.338 183.865M283.281 196.094H224.322M283.281 196.094L270.476 209.084M342.241 196.094L352.576 183.865M342.241 196.094L331.265 209.084M342.241 196.094L401.201 196.094M295.338 183.865L352.576 183.865M295.338 183.865H238.1M295.338 183.865L306.711 172.328M352.576 183.865L362.323 172.328M352.576 183.865H409.813M327.622 151.115L380.248 151.115M327.622 151.115L337.258 141.341M327.622 151.115H274.997M327.622 151.115L317.455 161.43M380.248 151.115L388.507 141.341M380.248 151.115L371.533 161.43M380.248 151.115H432.874M337.258 141.341L388.507 141.341M337.258 141.341H286.009M337.258 141.341L346.403 132.066M388.507 141.341L396.345 132.066M388.507 141.341H439.756M363.361 114.864L410.881 114.864M363.361 114.864L371.238 106.874M363.361 114.864H315.841M363.361 114.864L355.093 123.251M410.881 114.864L417.632 106.874M410.881 114.864L403.793 123.251M410.881 114.864H458.4M371.238 106.874L417.632 106.874M371.238 106.874H324.843M371.238 106.874L378.75 99.2538M417.632 106.874L424.071 99.2538M417.632 106.874H464.027M392.778 85.0238L436.096 85.0238M392.778 85.0238L399.337 78.3711M392.778 85.0238H349.461M392.778 85.0238L385.923 91.978M436.096 85.0238L441.717 78.3711M436.096 85.0238L430.22 91.978M436.096 85.0238H479.413M399.337 78.3711L441.717 78.3711M399.337 78.3711H356.956M399.337 78.3711L405.618 71.9996M441.717 78.3711L447.101 71.9996M441.717 78.3711H484.098M417.414 60.0332L457.213 60.0332M417.414 60.0332L422.961 54.4074M417.414 60.0332L377.617 60.0332M417.414 60.0332L411.638 65.8923M457.213 60.0332L456.604 60.7523L452.262 65.8923M457.213 60.0332L461.966 54.4074M457.213 60.0332L497.011 60.0332M422.961 54.4074L461.966 54.4074M422.961 54.4074H383.955M422.961 54.4074L428.29 49.0012M461.966 54.4074L466.535 49.0012M461.966 54.4074L500.972 54.4074M438.349 38.7981H475.156M438.349 38.7981L443.1 33.979M438.349 38.7981L401.542 38.7981M438.349 38.7981L433.416 43.8017M475.156 38.7981L479.228 33.979M475.156 38.7981L473.59 40.6526L472.532 41.9035L470.928 43.8017M475.156 38.7981L511.963 38.7981M443.1 33.979H479.228M443.1 33.979L406.971 33.979M443.1 33.979L447.679 29.3342M479.228 33.979L480.717 32.2171L481.699 31.0559L483.154 29.3342M479.228 33.979L515.357 33.979M456.357 20.5313L490.591 20.5313M456.357 20.5313L459.457 17.3872L460.472 16.3566M456.357 20.5313L422.122 20.5313M456.357 20.5313L452.636 24.3056L452.095 24.8546M490.591 20.5313L493.249 17.3872L493.684 16.8705L494.119 16.3566M490.591 20.5313L488.781 22.6736L486.939 24.8546M490.591 20.5313L524.826 20.5313M460.472 16.3566L494.119 16.3566M460.472 16.3566L464.449 12.3234M460.472 16.3566L426.825 16.3566M494.119 16.3566L527.766 16.3566M494.119 16.3566L497.527 12.3234M419.145 432.723H511.43M419.145 432.723L431.599 403.247M419.145 432.723H326.861M419.145 432.723L405.46 465.114M511.43 432.723L519.733 403.247M511.43 432.723L502.307 465.114M511.43 432.723H603.715M431.599 403.247H519.733M431.599 403.247H343.465M431.599 403.247L442.98 376.309M519.733 403.247L527.32 376.309M519.733 403.247H607.866M463.037 328.838H540.691M463.037 328.838L471.918 307.817M463.037 328.838H385.382M463.037 328.838L453.422 351.594M540.691 328.838L546.612 307.817M540.691 328.838L534.282 351.594M540.691 328.838H618.346M471.918 307.817H546.612M471.918 307.817H397.224M471.918 307.817L480.147 288.34M546.612 307.817L552.098 288.34M546.612 307.817H621.306M494.916 253.384H561.944M494.916 253.384L501.568 237.64M494.916 253.384H427.888M494.916 253.384L487.793 270.242M561.944 253.384L566.378 237.64M561.944 253.384L557.196 270.242M561.944 253.384L628.972 253.384M501.568 237.64H566.378M501.568 237.64H436.757M501.568 237.64L507.793 222.905M566.378 237.64L570.529 222.905M566.378 237.64L631.189 237.64M519.121 196.094H578.08M519.121 196.094L524.288 183.865M519.121 196.094H460.161M519.121 196.094L513.633 209.084M578.08 196.094L581.525 183.865M578.08 196.094L574.422 209.084M578.08 196.094L637.04 196.094M524.288 183.865L581.525 183.865M524.288 183.865H467.051M524.288 183.865L529.162 172.328M581.525 183.865L584.775 172.328M581.525 183.865H638.763M538.124 151.115L590.75 151.115M538.124 151.115L542.253 141.341M538.124 151.115H485.499M538.124 151.115L533.767 161.43M590.75 151.115L593.502 141.341M590.75 151.115L587.845 161.43M590.75 151.115H643.375M542.253 141.341L593.502 141.341M542.253 141.341H491.005M542.253 141.341L546.173 132.066M593.502 141.341L596.115 132.066M593.502 141.341H644.751M553.44 114.864H600.96M553.44 114.864L556.816 106.874M553.44 114.864L505.921 114.864M553.44 114.864L549.897 123.251M600.96 114.864L603.211 106.874M600.96 114.864L598.598 123.251M600.96 114.864L648.48 114.864M556.816 106.874H603.211M556.816 106.874L510.421 106.874M556.816 106.874L558.042 103.975L560.036 99.2538M603.211 106.874L605.357 99.2538M603.211 106.874L649.606 106.874M566.048 85.0238H609.365M566.048 85.0238L568.859 78.3711M566.048 85.0238L522.73 85.0238M566.048 85.0238L563.857 90.2104L563.109 91.978M609.365 85.0238L610.078 82.4948L611.239 78.3711M609.365 85.0238L607.406 91.978M609.365 85.0238L652.683 85.0238M568.859 78.3711L569.201 77.5594L571.551 71.9996M568.859 78.3711H611.239M568.859 78.3711H526.478M611.239 78.3711L611.921 75.9497L612.146 75.1509L612.37 74.3572L613.034 71.9996M611.239 78.3711L653.62 78.3711M576.606 60.0332L616.404 60.0332M576.606 60.0332L577.807 57.192L578.103 56.4908L578.398 55.7925L578.692 55.0985L578.983 54.4074M576.606 60.0332L536.808 60.0332M576.606 60.0332L574.131 65.8923M616.404 60.0332L617.598 55.7925L617.795 55.0985L617.988 54.4074M616.404 60.0332L614.754 65.8923M616.404 60.0332H656.202M578.983 54.4074L617.988 54.4074M578.983 54.4074L539.978 54.4074M578.983 54.4074L580.422 51.0035L580.705 50.3325L581.267 49.0012M617.988 54.4074L618.947 51.0035L619.137 50.3325L619.324 49.6651L619.512 49.0012M617.988 54.4074H656.995M585.578 38.7981L622.386 38.7981M585.578 38.7981L587.615 33.979M585.578 38.7981L548.77 38.7981M585.578 38.7981L585.057 40.0311L584.266 41.9035L583.464 43.8017M622.386 38.7981L622.212 39.4132L621.155 43.1659L620.976 43.8017M622.386 38.7981L623.743 33.979M622.386 38.7981H659.193M587.615 33.979L623.743 33.979M587.615 33.979L551.486 33.979M587.615 33.979L589.577 29.3342M623.743 33.979L624.239 32.2171L624.403 31.6351L624.566 31.0559L625.051 29.3342M623.743 33.979H659.872M593.296 20.5313L627.53 20.5313M593.296 20.5313L594.624 17.3872L595.059 16.3566M593.296 20.5313L559.061 20.5313M593.296 20.5313L592.618 22.1346L592.391 22.6736L592.161 23.2154L591.469 24.8546M627.53 20.5313L627.68 20.0017L627.976 18.9489L628.271 17.9054L628.706 16.3566M627.53 20.5313L626.927 22.6736L626.775 23.2154L626.467 24.3056L626.313 24.8546M627.53 20.5313L661.765 20.5313M595.059 16.3566L628.706 16.3566M595.059 16.3566L596.554 12.82L596.764 12.3234M595.059 16.3566H561.413M628.706 16.3566L628.851 15.845L628.994 15.3354L629.137 14.828L629.279 14.3228L629.702 12.82L629.843 12.3234M628.706 16.3566L662.353 16.3566M788.285 432.723H880.57M788.285 432.723L784.134 403.247M788.285 432.723L696 432.723M788.285 432.723L792.847 465.114M880.57 432.723L872.268 403.247M880.57 432.723L889.693 465.114M880.57 432.723H972.855M784.134 403.247H872.268M784.134 403.247L696 403.247M784.134 403.247L780.34 376.309M872.268 403.247L864.68 376.309M872.268 403.247H960.401M773.654 328.838H851.309M773.654 328.838L770.694 307.817M773.654 328.838L696 328.838M773.654 328.838L776.859 351.594M851.309 328.838L845.388 307.817M851.309 328.838L857.718 351.594M851.309 328.838H928.963M770.694 307.817H845.388M770.694 307.817L696 307.817M770.694 307.817L767.951 288.34M845.388 307.817L839.902 288.34M845.388 307.817H920.082M763.028 253.384L830.056 253.384M763.028 253.384L760.811 237.64M763.028 253.384H696M763.028 253.384L765.403 270.242M830.056 253.384L825.622 237.64M830.056 253.384L834.804 270.242M830.056 253.384H897.084M760.811 237.64L825.622 237.64M760.811 237.64H696M760.811 237.64L758.736 222.905M825.622 237.64L821.471 222.905M825.622 237.64H890.432M754.96 196.094L813.92 196.094M754.96 196.094L753.237 183.865M754.96 196.094H696M754.96 196.094L756.789 209.084M813.92 196.094L810.475 183.865M813.92 196.094L817.578 209.084M813.92 196.094H872.879M753.237 183.865H810.475M753.237 183.865H696M753.237 183.865L751.613 172.328M810.475 183.865L807.226 172.328M810.475 183.865L867.712 183.865M748.625 151.115H801.25M748.625 151.115L747.249 141.341M748.625 151.115H696M748.625 151.115L750.078 161.43M801.25 151.115L798.498 141.341M801.25 151.115L804.155 161.43M801.25 151.115L853.876 151.115M747.249 141.341H798.498M747.249 141.341H696M747.249 141.341L745.942 132.066M798.498 141.341L795.885 132.066M798.498 141.341L849.747 141.341M743.52 114.864L791.04 114.864M743.52 114.864L742.394 106.874M743.52 114.864H696M743.52 114.864L744.701 123.251M791.04 114.864L788.789 106.874M791.04 114.864L793.402 123.251M791.04 114.864H838.56M742.394 106.874L788.789 106.874M742.394 106.874H696M742.394 106.874L741.322 99.2538M788.789 106.874L786.643 99.2538M788.789 106.874H835.184M739.317 85.0238L782.635 85.0238M739.317 85.0238L738.38 78.3711M739.317 85.0238H696M739.317 85.0238L740.297 91.978M782.635 85.0238L780.99 79.1871L780.761 78.3711M782.635 85.0238L784.594 91.978M782.635 85.0238H825.952M738.38 78.3711L738.267 77.5594L737.483 71.9996M738.38 78.3711L780.761 78.3711M738.38 78.3711H696M780.761 78.3711L780.079 75.9497L779.854 75.1509L779.63 74.3572L778.966 71.9996M780.761 78.3711H823.141M735.798 60.0332H775.596M735.798 60.0332L735.006 54.4074M735.798 60.0332L696 60.0332M735.798 60.0332L736.103 62.202L736.207 62.9326L736.309 63.6668L736.518 65.1466L736.623 65.8923M775.596 60.0332L774.402 55.7925L774.011 54.4074M775.596 60.0332L777.246 65.8923M775.596 60.0332L815.394 60.0332M735.006 54.4074H774.011M735.006 54.4074L696 54.4074M735.006 54.4074L734.244 49.0012M774.011 54.4074L773.053 51.0035L772.863 50.3325L772.676 49.6651L772.488 49.0012M774.011 54.4074L813.017 54.4074M732.807 38.7981H769.615M732.807 38.7981L732.129 33.979M732.807 38.7981L696 38.7981M732.807 38.7981L733.512 43.8017M769.615 38.7981L769.788 39.4132L770.845 43.1659L771.024 43.8017M769.615 38.7981L768.257 33.979M769.615 38.7981L806.422 38.7981M732.129 33.979H768.257M732.129 33.979L696 33.979M732.129 33.979L731.474 29.3342M768.257 33.979L767.761 32.2171L767.597 31.6351L767.434 31.0559L766.949 29.3342M768.257 33.979L804.385 33.979M730.235 20.5313L764.47 20.5313M730.235 20.5313L729.647 16.3566M730.235 20.5313L696 20.5313M730.235 20.5313L730.844 24.8546M764.47 20.5313L764.32 20.0017L764.023 18.9489L763.877 18.4257L763.583 17.3872L763.439 16.8705L763.293 16.3566M764.47 20.5313L765.073 22.6736L765.225 23.2154L765.533 24.3056L765.687 24.8546M764.47 20.5313L798.704 20.5313M729.647 16.3566L729.575 15.845L729.503 15.3354L729.432 14.828L729.079 12.3234M729.647 16.3566L763.293 16.3566M729.647 16.3566L696 16.3566M763.293 16.3566L796.941 16.3566M763.293 16.3566L763.006 15.3354L762.863 14.828L762.721 14.3228L762.298 12.82L762.157 12.3234M1157.42 432.723L1249.71 432.723M1157.42 432.723L1136.67 403.247M1157.42 432.723H1065.14M1157.42 432.723L1180.23 465.114M1249.71 432.723L1224.8 403.247M1249.71 432.723L1277.08 465.114M1249.71 432.723H1341.99M1136.67 403.247L1224.8 403.247M1136.67 403.247H1048.54M1136.67 403.247L1117.7 376.309M1224.8 403.247L1202.04 376.309M1224.8 403.247H1312.94M1084.27 328.838L1161.93 328.838M1084.27 328.838L1069.47 307.817M1084.27 328.838H1006.62M1084.27 328.838L1100.3 351.594M1161.93 328.838L1144.16 307.817M1161.93 328.838L1181.16 351.594M1161.93 328.838H1239.58M1069.47 307.817H1144.16M1069.47 307.817H994.776M1069.47 307.817L1055.75 288.34M1144.16 307.817L1127.71 288.34M1144.16 307.817L1218.86 307.817M1031.14 253.384L1098.17 253.384M1031.14 253.384L1020.05 237.64M1031.14 253.384H964.112M1031.14 253.384L1043.01 270.242M1098.17 253.384L1084.87 237.64M1098.17 253.384L1112.41 270.242M1098.17 253.384H1165.2M1020.05 237.64L1084.87 237.64M1020.05 237.64H955.243M1020.05 237.64L1009.68 222.905M1084.87 237.64L1072.41 222.905M1084.87 237.64H1149.68M990.799 196.094L1049.76 196.094M990.799 196.094L982.187 183.865M990.799 196.094H931.839M990.799 196.094L999.946 209.084M1049.76 196.094L1039.42 183.865M1049.76 196.094L1060.73 209.084M1049.76 196.094H1108.72M982.187 183.865H1039.42M982.187 183.865H924.949M982.187 183.865L974.064 172.328M1039.42 183.865L1029.68 172.328M1039.42 183.865L1096.66 183.865M959.126 151.115H1011.75M959.126 151.115L952.244 141.341M959.126 151.115H906.501M959.126 151.115L966.389 161.43M1011.75 151.115L1003.49 141.341M1011.75 151.115L1020.47 161.43M1011.75 151.115L1064.38 151.115M952.244 141.341H1003.49M952.244 141.341H900.995M952.244 141.341L945.712 132.066M1003.49 141.341L995.655 132.066M1003.49 141.341L1054.74 141.341M933.6 114.864H981.119M933.6 114.864L927.973 106.874M933.6 114.864H886.079M933.6 114.864L939.506 123.251M981.119 114.864L974.368 106.874M981.119 114.864L988.207 123.251M981.119 114.864L1028.64 114.864M927.973 106.874H974.368M927.973 106.874H881.579M927.973 106.874L922.607 99.2538M974.368 106.874L967.929 99.2538M974.368 106.874L1020.76 106.874M912.587 85.0238L913.187 85.8765L913.791 86.7333L917.484 91.978M912.587 85.0238H955.905M912.587 85.0238L907.902 78.3711M912.587 85.0238L869.27 85.0238M955.905 85.0238L950.283 78.3711M955.905 85.0238L961.781 91.978M955.905 85.0238L999.222 85.0238M907.902 78.3711H950.283M907.902 78.3711L865.522 78.3711M907.902 78.3711L903.416 71.9996M950.283 78.3711L944.899 71.9996M950.283 78.3711L992.663 78.3711M894.989 60.0332L934.788 60.0332M894.989 60.0332L891.028 54.4074M894.989 60.0332H855.192M894.989 60.0332L899.115 65.8923M934.788 60.0332L931.794 56.4908L930.034 54.4074M934.788 60.0332L939.739 65.8923M934.788 60.0332L974.585 60.0332M891.028 54.4074L930.034 54.4074M891.028 54.4074H852.022M891.028 54.4074L887.689 49.6651L887.221 49.0012M930.034 54.4074L925.465 49.0012M930.034 54.4074L969.039 54.4074M880.037 38.7981L916.844 38.7981M880.037 38.7981L879.177 37.5759L876.643 33.979M880.037 38.7981H843.23M880.037 38.7981L880.905 40.0311L882.667 42.5329L883.56 43.8017M916.844 38.7981L912.772 33.979M916.844 38.7981L918.411 40.6526L919.468 41.9035L921.072 43.8017M916.844 38.7981H953.651M876.643 33.979L912.772 33.979M876.643 33.979L840.514 33.979M876.643 33.979L874.179 30.4789L873.372 29.3342M912.772 33.979L911.283 32.2171L910.302 31.0559L908.846 29.3342M912.772 33.979H948.9M867.174 20.5313L901.409 20.5313M867.174 20.5313L865.324 17.9054L864.234 16.3566M867.174 20.5313L832.939 20.5313M867.174 20.5313L870.218 24.8546M901.409 20.5313L898.751 17.3872L898.316 16.8705L897.881 16.3566M901.409 20.5313L903.219 22.6736L905.062 24.8546M901.409 20.5313L935.643 20.5313M864.234 16.3566L897.881 16.3566M864.234 16.3566L862.802 14.3228L862.095 13.3188L861.744 12.82L861.394 12.3234M864.234 16.3566L830.587 16.3566M897.881 16.3566L931.528 16.3566M897.881 16.3566L894.473 12.3234M1368.25 307.817H1293.55M1368.25 307.817L1343.56 288.34M1368.25 307.817H1390.63M1368.25 307.817L1390.63 325.474M1299.25 253.384H1366.28M1299.25 253.384L1279.3 237.64M1299.25 253.384L1232.22 253.384M1299.25 253.384L1320.62 270.242M1366.28 253.384L1344.11 237.64M1366.28 253.384L1390.02 270.242M1366.28 253.384H1390.63M1279.3 237.64H1344.11M1279.3 237.64L1214.49 237.64M1279.3 237.64L1260.62 222.905M1344.11 237.64L1323.36 222.905M1344.11 237.64H1390.63M1226.64 196.094L1285.6 196.094M1226.64 196.094L1211.14 183.865M1226.64 196.094H1167.68M1226.64 196.094L1243.1 209.084M1285.6 196.094L1268.37 183.865M1285.6 196.094L1303.89 209.084M1285.6 196.094H1344.56M1211.14 183.865H1268.37M1211.14 183.865H1153.9M1211.14 183.865L1196.51 172.328M1268.37 183.865L1252.13 172.328M1268.37 183.865L1325.61 183.865M1169.63 151.115H1222.25M1169.63 151.115L1157.24 141.341M1169.63 151.115H1117M1169.63 151.115L1182.7 161.43M1222.25 151.115L1208.49 141.341M1222.25 151.115L1236.78 161.43M1222.25 151.115H1274.88M1157.24 141.341H1208.49M1157.24 141.341H1105.99M1157.24 141.341L1145.48 132.066M1208.49 141.341L1195.42 132.066M1208.49 141.341H1259.74M1123.68 114.864H1171.2M1123.68 114.864L1113.55 106.874M1123.68 114.864L1076.16 114.864M1123.68 114.864L1134.31 123.251M1171.2 114.864L1159.95 106.874M1171.2 114.864L1183.01 123.251M1171.2 114.864H1218.72M1113.55 106.874H1159.95M1113.55 106.874L1067.16 106.874M1113.55 106.874L1103.89 99.2538M1159.95 106.874L1149.21 99.2538M1159.95 106.874H1206.34M1085.86 85.0238L1129.17 85.0238M1085.86 85.0238L1077.42 78.3711M1085.86 85.0238H1042.54M1085.86 85.0238L1094.67 91.978M1129.17 85.0238L1119.8 78.3711M1129.17 85.0238L1138.97 91.978M1129.17 85.0238H1172.49M1077.42 78.3711L1119.8 78.3711M1077.42 78.3711H1035.04M1077.42 78.3711L1069.35 71.9996M1119.8 78.3711L1110.83 71.9996M1119.8 78.3711H1162.19M1054.18 60.0332L1093.98 60.0332M1054.18 60.0332L1047.05 54.4074M1054.18 60.0332L1014.38 60.0332M1054.18 60.0332L1061.61 65.8923M1093.98 60.0332L1086.06 54.4074M1093.98 60.0332L1102.23 65.8923M1093.98 60.0332L1133.78 60.0332M1047.05 54.4074L1086.06 54.4074M1047.05 54.4074L1008.04 54.4074M1047.05 54.4074L1040.2 49.0012M1086.06 54.4074L1078.44 49.0012M1086.06 54.4074H1125.06M1027.27 38.7981H1064.07M1027.27 38.7981L1021.16 33.979M1027.27 38.7981L990.458 38.7981M1027.27 38.7981L1028.83 40.0311L1029.62 40.6526L1033.61 43.8017M1064.07 38.7981L1057.29 33.979M1064.07 38.7981L1071.12 43.8017M1064.07 38.7981L1100.88 38.7981M1021.16 33.979H1057.29M1021.16 33.979L985.029 33.979M1021.16 33.979L1015.27 29.3342M1057.29 33.979L1050.74 29.3342M1057.29 33.979L1093.41 33.979M1004.11 20.5313L1038.35 20.5313M1004.11 20.5313L998.821 16.3566M1004.11 20.5313L969.878 20.5313M1004.11 20.5313L1009.59 24.8546M1038.35 20.5313L1033.92 17.3872L1033.19 16.8705L1032.47 16.3566M1038.35 20.5313L1044.44 24.8546M1038.35 20.5313L1072.58 20.5313M998.821 16.3566L1032.47 16.3566M998.821 16.3566L994.339 12.82L993.709 12.3234M998.821 16.3566L965.175 16.3566M1032.47 16.3566H1066.12M1032.47 16.3566L1026.79 12.3234M1380.13 151.115L1362.23 141.341M1380.13 151.115H1327.5M1380.13 151.115L1390.63 156.849M1380.13 151.115H1390.63M1362.23 141.341H1310.99M1362.23 141.341L1345.25 132.066M1362.23 141.341H1390.63M1313.76 114.864L1361.28 114.864M1313.76 114.864L1299.13 106.874M1313.76 114.864H1266.24M1313.76 114.864L1329.11 123.251M1361.28 114.864L1345.53 106.874M1361.28 114.864L1377.82 123.251M1361.28 114.864H1390.63M1299.13 106.874L1345.53 106.874M1299.13 106.874H1252.74M1299.13 106.874L1285.18 99.2538M1345.53 106.874L1330.5 99.2538M1345.53 106.874H1390.63M1259.13 85.0238H1302.44M1259.13 85.0238L1246.95 78.3711M1259.13 85.0238L1215.81 85.0238M1259.13 85.0238L1271.86 91.978M1302.44 85.0238L1289.33 78.3711M1302.44 85.0238L1316.15 91.978M1302.44 85.0238L1345.76 85.0238M1246.95 78.3711H1289.33M1246.95 78.3711L1204.57 78.3711M1246.95 78.3711L1235.28 71.9996M1289.33 78.3711L1276.76 71.9996M1289.33 78.3711H1331.71M1213.37 60.0332L1253.17 60.0332M1213.37 60.0332L1203.07 54.4074M1213.37 60.0332L1173.57 60.0332M1213.37 60.0332L1224.1 65.8923M1253.17 60.0332L1242.08 54.4074M1253.17 60.0332L1264.72 65.8923M1253.17 60.0332H1292.97M1203.07 54.4074H1242.08M1203.07 54.4074L1164.07 54.4074M1203.07 54.4074L1193.17 49.0012M1242.08 54.4074L1231.42 49.0012M1242.08 54.4074L1281.08 54.4074M1174.5 38.7981L1211.3 38.7981M1174.5 38.7981L1165.67 33.979M1174.5 38.7981H1137.69M1174.5 38.7981L1183.66 43.8017M1211.3 38.7981L1201.8 33.979M1211.3 38.7981L1221.17 43.8017M1211.3 38.7981H1248.11M1165.67 33.979L1201.8 33.979M1165.67 33.979L1129.54 33.979M1165.67 33.979L1157.17 29.3342M1201.8 33.979L1192.64 29.3342M1201.8 33.979H1237.93M1141.05 20.5313L1175.29 20.5313M1141.05 20.5313L1133.41 16.3566M1141.05 20.5313L1106.82 20.5313M1141.05 20.5313L1148.97 24.8546M1175.29 20.5313L1167.06 16.3566M1175.29 20.5313L1183.81 24.8546M1175.29 20.5313L1209.52 20.5313M1133.41 16.3566L1167.06 16.3566M1133.41 16.3566L1126.02 12.3234M1133.41 16.3566L1099.76 16.3566M1167.06 16.3566L1200.7 16.3566M1167.06 16.3566L1159.1 12.3234M1372.56 60.0332L1359.1 54.4074M1372.56 60.0332L1332.77 60.0332M1372.56 60.0332L1386.59 65.8923M1372.56 60.0332H1390.63M1359.1 54.4074H1320.09M1359.1 54.4074L1346.15 49.0012M1359.1 54.4074L1390.63 54.4074M1321.72 38.7981H1358.53M1321.72 38.7981L1310.19 33.979M1321.72 38.7981L1284.92 38.7981M1321.72 38.7981L1333.7 43.8017M1358.53 38.7981L1346.31 33.979M1358.53 38.7981L1371.22 43.8017M1358.53 38.7981L1390.63 38.7981M1310.19 33.979H1346.31M1310.19 33.979L1274.06 33.979M1310.19 33.979L1299.07 29.3342M1346.31 33.979L1334.54 29.3342M1346.31 33.979L1382.44 33.979M1277.99 20.5313L1312.23 20.5313M1277.99 20.5313L1268 16.3566M1277.99 20.5313L1243.76 20.5313M1277.99 20.5313L1288.34 24.8546M1312.23 20.5313L1301.64 16.3566M1312.23 20.5313L1323.18 24.8546M1312.23 20.5313L1346.46 20.5313M1268 16.3566L1301.64 16.3566M1268 16.3566L1258.34 12.3234M1268 16.3566L1234.35 16.3566M1301.64 16.3566L1335.29 16.3566M1301.64 16.3566L1291.42 12.3234M1323.18 24.8546L1334.54 29.3342M1323.18 24.8546L1358.03 24.8546M1323.18 24.8546L1288.34 24.8546M1346.46 20.5313L1335.29 16.3566M1346.46 20.5313L1358.03 24.8546M1346.46 20.5313L1380.7 20.5313M1335.29 16.3566L1368.94 16.3566M1335.29 16.3566L1324.5 12.3234M1291.42 12.3234L1258.34 12.3234M1291.42 12.3234L1324.5 12.3234M1291.42 12.3234L1281.53 8.42355M1358.03 24.8546L1370.02 29.3342M1358.03 24.8546L1390.63 24.8546M1380.7 20.5313L1368.94 16.3566M1380.7 20.5313L1390.63 24.0569M1380.7 20.5313H1390.63M1368.94 16.3566L1357.58 12.3234M1368.94 16.3566L1390.63 16.3566M1324.5 12.3234L1357.58 12.3234M1324.5 12.3234L1314.06 8.42355M1357.58 12.3234L1346.59 8.42355M1357.58 12.3234L1390.63 12.3234M1334.54 29.3342L1370.02 29.3342M1334.54 29.3342L1299.07 29.3342M1382.44 33.979L1370.02 29.3342M1382.44 33.979L1390.63 37.0363M1382.44 33.979H1390.63M1370.02 29.3342L1390.63 29.3342M1299.07 29.3342L1263.59 29.3342M1299.07 29.3342L1288.34 24.8546M1288.34 24.8546L1253.5 24.8546M1371.22 43.8017L1384.4 49.0012M1371.22 43.8017L1333.7 43.8017M1371.22 43.8017H1390.63M1390.74 38.7981H1390.63M1384.4 49.0012L1346.15 49.0012M1384.4 49.0012L1390.63 51.4585M1384.4 49.0012H1390.63M1346.15 49.0012H1307.91M1346.15 49.0012L1333.7 43.8017M1333.7 43.8017L1296.19 43.8017M1183.81 24.8546L1192.64 29.3342M1183.81 24.8546L1218.65 24.8546M1183.81 24.8546L1148.97 24.8546M1209.52 20.5313L1200.7 16.3566M1209.52 20.5313L1218.65 24.8546M1209.52 20.5313L1243.76 20.5313M1200.7 16.3566H1234.35M1200.7 16.3566L1192.18 12.3234M1159.1 12.3234L1192.18 12.3234M1159.1 12.3234L1151.41 8.42355M1159.1 12.3234L1126.02 12.3234M1218.65 24.8546L1228.12 29.3342M1218.65 24.8546L1253.5 24.8546M1243.76 20.5313L1234.35 16.3566M1243.76 20.5313L1253.5 24.8546M1234.35 16.3566L1225.26 12.3234M1192.18 12.3234L1225.26 12.3234M1192.18 12.3234L1183.94 8.42355M1253.5 24.8546L1263.59 29.3342M1258.34 12.3234L1225.26 12.3234M1258.34 12.3234L1249 8.42355M1225.26 12.3234L1216.47 8.42355M1192.64 29.3342L1228.12 29.3342M1192.64 29.3342L1157.17 29.3342M1237.93 33.979L1228.12 29.3342M1237.93 33.979L1248.11 38.7981M1237.93 33.979L1274.06 33.979M1228.12 29.3342L1263.59 29.3342M1157.17 29.3342L1121.69 29.3342M1157.17 29.3342L1148.97 24.8546M1263.59 29.3342L1274.06 33.979M1148.97 24.8546L1114.12 24.8546M1248.11 38.7981L1258.68 43.8017M1248.11 38.7981L1284.92 38.7981M1274.06 33.979L1284.92 38.7981M1284.92 38.7981L1296.19 43.8017M1221.17 43.8017L1231.42 49.0012M1221.17 43.8017L1258.68 43.8017M1221.17 43.8017L1183.66 43.8017M1258.68 43.8017L1269.66 49.0012M1258.68 43.8017H1296.19M1296.19 43.8017L1307.91 49.0012M1231.42 49.0012L1269.66 49.0012M1231.42 49.0012H1193.17M1281.08 54.4074L1269.66 49.0012M1281.08 54.4074L1292.97 60.0332M1281.08 54.4074L1320.09 54.4074M1269.66 49.0012L1307.91 49.0012M1193.17 49.0012L1154.93 49.0012M1193.17 49.0012L1183.66 43.8017M1307.91 49.0012L1320.09 54.4074M1183.66 43.8017H1146.14M1292.97 60.0332L1305.35 65.8923M1292.97 60.0332L1332.77 60.0332M1320.09 54.4074L1332.77 60.0332M1332.77 60.0332L1345.97 65.8923M1264.72 65.8923L1276.76 71.9996M1264.72 65.8923H1305.35M1264.72 65.8923H1224.1M1305.35 65.8923L1318.25 71.9996M1305.35 65.8923L1345.97 65.8923M1345.97 65.8923L1359.73 71.9996M1345.97 65.8923H1386.59M1386.59 65.8923H1390.63M1386.59 65.8923L1390.63 67.5768M1276.76 71.9996H1318.25M1276.76 71.9996H1235.28M1331.71 78.3711L1318.25 71.9996M1331.71 78.3711L1345.76 85.0238M1331.71 78.3711L1374.09 78.3711M1318.25 71.9996L1359.73 71.9996M1235.28 71.9996L1193.8 71.9996M1235.28 71.9996L1224.1 65.8923M1359.73 71.9996L1374.09 78.3711M1359.73 71.9996H1390.63M1224.1 65.8923L1183.48 65.8923M1345.76 85.0238L1360.45 91.978M1345.76 85.0238H1389.08M1374.09 78.3711L1389.08 85.0238M1374.09 78.3711H1390.63M1390.84 71.9996H1390.63M1389.08 85.0238L1390.63 85.7104M1389.08 85.0238H1390.63M1316.15 91.978L1330.5 99.2538M1316.15 91.978L1360.45 91.978M1316.15 91.978H1271.86M1360.45 91.978L1375.82 99.2538M1360.45 91.978H1390.63M1391 85.8765L1390.63 85.7104M1330.5 99.2538L1375.82 99.2538M1330.5 99.2538H1285.18M1375.82 99.2538H1390.63M1375.82 99.2538L1390.63 106.262M1285.18 99.2538H1239.86M1285.18 99.2538L1271.86 91.978M1271.86 91.978H1227.56M1377.82 123.251L1329.11 123.251M1377.82 123.251L1390.63 129.748M1377.82 123.251H1390.63M1390.98 114.864H1390.63M1329.11 123.251H1280.41M1329.11 123.251L1345.25 132.066M1390.77 129.82L1390.63 129.748M1044.44 24.8546L1050.74 29.3342M1044.44 24.8546L1079.28 24.8546M1044.44 24.8546L1009.59 24.8546M1072.58 20.5313L1066.12 16.3566M1072.58 20.5313L1079.28 24.8546M1072.58 20.5313L1106.82 20.5313M1066.12 16.3566L1099.76 16.3566M1066.12 16.3566L1059.87 12.3234M1026.79 12.3234L1059.87 12.3234M1026.79 12.3234L1024.71 10.8457L1021.3 8.42355M1026.79 12.3234L993.709 12.3234M1079.28 24.8546L1086.22 29.3342M1079.28 24.8546L1114.12 24.8546M1106.82 20.5313L1099.76 16.3566M1106.82 20.5313L1114.12 24.8546M1099.76 16.3566L1092.95 12.3234M1059.87 12.3234L1092.95 12.3234M1059.87 12.3234L1053.83 8.42355M1114.12 24.8546L1121.69 29.3342M1126.02 12.3234L1118.88 8.42355M1126.02 12.3234L1092.95 12.3234M1092.95 12.3234L1092.11 11.8282L1090.45 10.8457L1086.36 8.42355M1050.74 29.3342L1086.22 29.3342M1050.74 29.3342L1015.27 29.3342M1093.41 33.979L1086.22 29.3342M1093.41 33.979L1100.88 38.7981M1093.41 33.979H1129.54M1086.22 29.3342L1121.69 29.3342M1015.27 29.3342L979.796 29.3342M1015.27 29.3342L1009.59 24.8546M1121.69 29.3342L1129.54 33.979M1009.59 24.8546L974.748 24.8546M1100.88 38.7981L1108.63 43.8017M1100.88 38.7981L1137.69 38.7981M1129.54 33.979L1130.54 34.5711L1137.69 38.7981M1137.69 38.7981L1146.14 43.8017M1071.12 43.8017L1072.02 44.4411L1078.44 49.0012M1071.12 43.8017L1108.63 43.8017M1071.12 43.8017H1033.61M1108.63 43.8017L1116.69 49.0012M1108.63 43.8017L1146.14 43.8017M1146.14 43.8017L1154.93 49.0012M1078.44 49.0012H1116.69M1078.44 49.0012L1040.2 49.0012M1125.06 54.4074L1116.69 49.0012M1125.06 54.4074L1133.78 60.0332M1125.06 54.4074L1164.07 54.4074M1116.69 49.0012L1154.93 49.0012M1040.2 49.0012L1001.95 49.0012M1040.2 49.0012L1033.61 43.8017M1154.93 49.0012L1164.07 54.4074M1033.61 43.8017L996.097 43.8017M1133.78 60.0332L1142.85 65.8923M1133.78 60.0332H1173.57M1164.07 54.4074L1173.57 60.0332M1173.57 60.0332L1183.48 65.8923M1102.23 65.8923L1110.83 71.9996M1102.23 65.8923L1142.85 65.8923M1102.23 65.8923H1061.61M1142.85 65.8923L1152.32 71.9996M1142.85 65.8923H1183.48M1183.48 65.8923L1193.8 71.9996M1110.83 71.9996H1152.32M1110.83 71.9996L1069.35 71.9996M1162.19 78.3711L1152.32 71.9996M1162.19 78.3711L1172.49 85.0238M1162.19 78.3711H1204.57M1152.32 71.9996H1193.8M1069.35 71.9996H1027.87M1069.35 71.9996L1061.61 65.8923M1193.8 71.9996L1204.57 78.3711M1061.61 65.8923H1020.98M1172.49 85.0238L1183.26 91.978M1172.49 85.0238H1215.81M1204.57 78.3711L1215.81 85.0238M1215.81 85.0238L1227.56 91.978M1138.97 91.978L1149.21 99.2538M1138.97 91.978H1183.26M1138.97 91.978L1094.67 91.978M1183.26 91.978L1194.54 99.2538M1183.26 91.978L1227.56 91.978M1227.56 91.978L1239.86 99.2538M1149.21 99.2538H1194.54M1149.21 99.2538H1103.89M1206.34 106.874L1194.54 99.2538M1206.34 106.874L1218.72 114.864M1206.34 106.874L1252.74 106.874M1194.54 99.2538L1239.86 99.2538M1103.89 99.2538L1058.57 99.2538M1103.89 99.2538L1094.67 91.978M1239.86 99.2538L1252.74 106.874M1094.67 91.978H1050.37M1218.72 114.864L1231.71 123.251M1218.72 114.864L1266.24 114.864M1252.74 106.874L1266.24 114.864M1266.24 114.864L1280.41 123.251M1183.01 123.251L1195.42 132.066M1183.01 123.251L1231.71 123.251M1183.01 123.251H1134.31M1231.71 123.251L1245.37 132.066M1231.71 123.251H1280.41M1280.41 123.251L1295.31 132.066M1195.42 132.066H1245.37M1195.42 132.066H1145.48M1259.74 141.341L1245.37 132.066M1259.74 141.341L1274.88 151.115M1259.74 141.341L1310.99 141.341M1245.37 132.066L1295.31 132.066M1145.48 132.066H1095.54M1145.48 132.066L1134.31 123.251M1295.31 132.066L1310.99 141.341M1295.31 132.066H1345.25M1134.31 123.251L1085.61 123.251M1274.88 151.115L1290.86 161.43M1274.88 151.115L1327.5 151.115M1310.99 141.341L1327.5 151.115M1345.25 132.066H1390.63M1327.5 151.115L1344.93 161.43M1236.78 161.43L1252.13 172.328M1236.78 161.43L1290.86 161.43M1236.78 161.43H1182.7M1290.86 161.43L1307.74 172.328M1290.86 161.43H1344.93M1344.93 161.43L1363.35 172.328M1344.93 161.43H1390.63M1252.13 172.328L1307.74 172.328M1252.13 172.328H1196.51M1325.61 183.865L1307.74 172.328M1325.61 183.865L1344.56 196.094M1325.61 183.865H1382.85M1307.74 172.328H1363.35M1196.51 172.328H1140.9M1196.51 172.328L1182.7 161.43M1363.35 172.328L1382.85 183.865M1363.35 172.328H1390.63M1182.7 161.43H1128.62M1344.56 196.094L1364.68 209.084M1344.56 196.094H1390.63M1382.85 183.865H1390.63M1382.85 183.865L1390.63 188.466M1303.89 209.084L1323.36 222.905M1303.89 209.084H1364.68M1303.89 209.084L1243.1 209.084M1364.68 209.084L1386.09 222.905M1364.68 209.084H1390.63M1323.36 222.905H1386.09M1323.36 222.905L1260.62 222.905M1386.09 222.905L1390.63 225.832M1386.09 222.905H1390.63M1260.62 222.905H1197.88M1260.62 222.905L1243.1 209.084M1243.1 209.084H1182.31M1390.02 270.242H1320.62M1390.02 270.242H1390.63M1390.02 270.242L1390.63 270.67M1320.62 270.242H1251.22M1320.62 270.242L1343.56 288.34M905.062 24.8546L906.465 26.5152L906.937 27.0743L908.846 29.3342M905.062 24.8546L939.905 24.8546M905.062 24.8546L870.218 24.8546M935.643 20.5313L932.543 17.3872L931.528 16.3566M935.643 20.5313L939.364 24.3056L939.905 24.8546M935.643 20.5313L969.878 20.5313M931.528 16.3566L965.175 16.3566M931.528 16.3566L927.551 12.3234M894.473 12.3234L927.551 12.3234M894.473 12.3234L893.224 10.8457L891.178 8.42355M894.473 12.3234L861.394 12.3234M939.905 24.8546L940.995 25.959L944.322 29.3342M939.905 24.8546L974.748 24.8546M969.878 20.5313L965.175 16.3566M969.878 20.5313L974.748 24.8546M965.175 16.3566L961.752 13.3188L960.63 12.3234M927.551 12.3234L960.63 12.3234M927.551 12.3234L923.707 8.42355M974.748 24.8546L979.796 29.3342M993.709 12.3234L993.082 11.8282L988.766 8.42355M993.709 12.3234L960.63 12.3234M960.63 12.3234L958.965 10.8457L956.237 8.42355M908.846 29.3342L944.322 29.3342M908.846 29.3342L873.372 29.3342M948.9 33.979L944.322 29.3342M948.9 33.979L953.651 38.7981M948.9 33.979L985.029 33.979M944.322 29.3342L979.796 29.3342M873.372 29.3342L837.898 29.3342M873.372 29.3342L870.218 24.8546M979.796 29.3342L985.029 33.979M870.218 24.8546L835.375 24.8546M953.651 38.7981L956.712 41.9035L957.333 42.5329L958.584 43.8017M953.651 38.7981L990.458 38.7981M985.029 33.979L990.458 38.7981M990.458 38.7981L996.097 43.8017M921.072 43.8017L925.465 49.0012M921.072 43.8017L958.584 43.8017M921.072 43.8017L883.56 43.8017M958.584 43.8017L963.71 49.0012M958.584 43.8017H996.097M996.097 43.8017L1001.95 49.0012M925.465 49.0012L963.71 49.0012M925.465 49.0012L887.221 49.0012M969.039 54.4074L965.684 51.0035L965.023 50.3325L963.71 49.0012M969.039 54.4074L974.585 60.0332M969.039 54.4074H1008.04M963.71 49.0012H1001.95M887.221 49.0012H848.977M887.221 49.0012L883.56 43.8017M1001.95 49.0012L1008.04 54.4074M883.56 43.8017H846.048M974.585 60.0332L980.362 65.8923M974.585 60.0332H1014.38M1008.04 54.4074L1014.38 60.0332M1014.38 60.0332L1020.98 65.8923M939.739 65.8923L942.292 68.9136L942.938 69.6794L944.899 71.9996M939.739 65.8923H980.362M939.739 65.8923H899.115M980.362 65.8923L986.382 71.9996M980.362 65.8923L1020.98 65.8923M1020.98 65.8923L1027.87 71.9996M944.899 71.9996H986.382M944.899 71.9996H903.416M992.663 78.3711L986.382 71.9996M992.663 78.3711L999.222 85.0238M992.663 78.3711H1035.04M986.382 71.9996L1027.87 71.9996M903.416 71.9996L861.932 71.9996M903.416 71.9996L902.323 70.4487L899.115 65.8923M1027.87 71.9996L1035.04 78.3711M899.115 65.8923L858.493 65.8923M999.222 85.0238L1006.08 91.978M999.222 85.0238H1042.54M1035.04 78.3711L1042.54 85.0238M1042.54 85.0238L1050.37 91.978M961.781 91.978L967.929 99.2538M961.781 91.978L1006.08 91.978M961.781 91.978H917.484M1006.08 91.978L1013.25 99.2538M1006.08 91.978H1050.37M1050.37 91.978L1058.57 99.2538M967.929 99.2538L1013.25 99.2538M967.929 99.2538H922.607M1020.76 106.874L1013.25 99.2538M1020.76 106.874L1028.64 114.864M1020.76 106.874H1067.16M1013.25 99.2538H1058.57M922.607 99.2538H877.286M922.607 99.2538L917.484 91.978M1058.57 99.2538L1067.16 106.874M917.484 91.978H873.188M1028.64 114.864L1036.91 123.251M1028.64 114.864H1076.16M1067.16 106.874L1076.16 114.864M1076.16 114.864L1085.61 123.251M988.207 123.251L995.655 132.066M988.207 123.251H1036.91M988.207 123.251L939.506 123.251M1036.91 123.251L1045.6 132.066M1036.91 123.251H1085.61M1085.61 123.251L1095.54 132.066M995.655 132.066L1045.6 132.066M995.655 132.066H945.712M1054.74 141.341L1045.6 132.066M1054.74 141.341L1064.38 151.115M1054.74 141.341H1105.99M1045.6 132.066H1095.54M945.712 132.066H895.77M945.712 132.066L939.506 123.251M1095.54 132.066L1105.99 141.341M939.506 123.251H890.804M1064.38 151.115L1074.55 161.43M1064.38 151.115H1117M1105.99 141.341L1117 151.115M1117 151.115L1128.62 161.43M1020.47 161.43L1029.68 172.328M1020.47 161.43L1074.55 161.43M1020.47 161.43H966.389M1074.55 161.43L1085.29 172.328M1074.55 161.43H1128.62M1128.62 161.43L1140.9 172.328M1029.68 172.328L1085.29 172.328M1029.68 172.328H974.064M1096.66 183.865L1085.29 172.328M1096.66 183.865L1108.72 196.094M1096.66 183.865H1153.9M1085.29 172.328H1140.9M974.064 172.328H918.451M974.064 172.328L966.389 161.43M1140.9 172.328L1153.9 183.865M966.389 161.43H912.312M1108.72 196.094L1121.52 209.084M1108.72 196.094H1167.68M1153.9 183.865L1167.68 196.094M1167.68 196.094L1182.31 209.084M1060.73 209.084L1072.41 222.905M1060.73 209.084H1121.52M1060.73 209.084L999.946 209.084M1121.52 209.084L1135.15 222.905M1121.52 209.084H1182.31M1182.31 209.084L1197.88 222.905M1072.41 222.905H1135.15M1072.41 222.905L1009.68 222.905M1149.68 237.64L1135.15 222.905M1149.68 237.64L1165.2 253.384M1149.68 237.64H1214.49M1135.15 222.905H1197.88M1009.68 222.905H946.942M1009.68 222.905L999.946 209.084M1197.88 222.905L1214.49 237.64M999.946 209.084H939.157M1165.2 253.384L1181.82 270.242M1165.2 253.384H1232.22M1214.49 237.64L1232.22 253.384M1232.22 253.384L1251.22 270.242M1112.41 270.242L1127.71 288.34M1112.41 270.242L1181.82 270.242M1112.41 270.242H1043.01M1181.82 270.242L1199.66 288.34M1181.82 270.242H1251.22M1251.22 270.242L1271.61 288.34M1127.71 288.34L1199.66 288.34M1127.71 288.34H1055.75M1218.86 307.817L1199.66 288.34M1218.86 307.817L1239.58 328.838M1218.86 307.817H1293.55M1199.66 288.34H1271.61M1055.75 288.34H983.804M1055.75 288.34L1043.01 270.242M1271.61 288.34L1293.55 307.817M1271.61 288.34H1343.56M1043.01 270.242H973.609M1239.58 328.838L1262.01 351.594M1239.58 328.838H1317.24M1293.55 307.817L1317.24 328.838M1343.56 288.34H1390.63M1317.24 328.838L1342.87 351.594M1317.24 328.838H1390.63M1181.16 351.594L1202.04 376.309M1181.16 351.594H1262.01M1181.16 351.594L1100.3 351.594M1262.01 351.594L1286.38 376.309M1262.01 351.594H1342.87M1342.87 351.594L1370.72 376.309M1342.87 351.594H1390.63M1202.04 376.309H1286.38M1202.04 376.309L1117.7 376.309M1312.94 403.247L1286.38 376.309M1312.94 403.247L1341.99 432.723M1312.94 403.247H1390.63M1286.38 376.309H1370.72M1117.7 376.309H1033.36M1117.7 376.309L1100.3 351.594M1370.72 376.309H1390.63M1370.72 376.309L1390.63 393.978M1100.3 351.594H1019.44M1341.99 432.723L1373.93 465.114M1341.99 432.723H1390.63M1277.08 465.114L1307.3 500.873M1277.08 465.114H1373.93M1277.08 465.114H1180.23M1373.93 465.114L1390.63 482.054M1373.93 465.114H1390.63M1307.3 500.873H1205.41M1307.3 500.873L1390.63 500.872M1205.41 500.873L1103.53 500.873M1205.41 500.873L1180.23 465.114M1180.23 465.114L1083.39 465.114M765.687 24.8546L765.843 25.4057L765.998 25.959L766.155 26.5152L766.312 27.0743L766.789 28.7651L766.949 29.3342M765.687 24.8546L800.531 24.8546M765.687 24.8546L730.844 24.8546M798.704 20.5313L797.376 17.3872L796.941 16.3566M798.704 20.5313L799.839 23.2154L800.531 24.8546M798.704 20.5313L832.939 20.5313M796.941 16.3566H830.587M796.941 16.3566L795.657 13.3188L795.236 12.3234M762.157 12.3234L762.019 11.8282L761.467 9.87037L761.059 8.42355M762.157 12.3234L795.236 12.3234M762.157 12.3234L729.079 12.3234M800.531 24.8546L800.763 25.4057L800.998 25.959L801.232 26.5152L801.469 27.0743L802.423 29.3342M800.531 24.8546L835.375 24.8546M832.939 20.5313L831.168 17.3872L830.587 16.3566M832.939 20.5313L835.375 24.8546M830.587 16.3566L829.441 14.3228L828.595 12.82L828.315 12.3234M795.236 12.3234L795.028 11.8282L794.612 10.8457L794.2 9.87037L793.996 9.38595L793.588 8.42355M795.236 12.3234L828.315 12.3234M835.375 24.8546L837.259 28.1989L837.898 29.3342M861.394 12.3234L859.326 9.38595L858.648 8.42355M861.394 12.3234L828.315 12.3234M828.315 12.3234L826.389 8.90368L826.118 8.42355M766.949 29.3342L802.423 29.3342M766.949 29.3342L731.474 29.3342M804.385 33.979L802.423 29.3342M804.385 33.979L806.422 38.7981M804.385 33.979H840.514M802.423 29.3342L837.898 29.3342M731.474 29.3342L696 29.3342M731.474 29.3342L730.844 24.8546M837.898 29.3342L840.514 33.979M730.844 24.8546L696 24.8546M806.422 38.7981L806.943 40.0311L807.734 41.9035L808.536 43.8017M806.422 38.7981L843.23 38.7981M840.514 33.979L840.848 34.5711L843.23 38.7981M843.23 38.7981L843.575 39.4132L843.924 40.0311L844.274 40.6526L846.048 43.8017M771.024 43.8017L772.488 49.0012M771.024 43.8017L808.536 43.8017M771.024 43.8017H733.512M808.536 43.8017L810.733 49.0012M808.536 43.8017L846.048 43.8017M846.048 43.8017L848.234 47.6821L848.605 48.3402L848.977 49.0012M772.488 49.0012L810.733 49.0012M772.488 49.0012H734.244M813.017 54.4074L813.309 55.0985L813.602 55.7925L813.897 56.4908L815.394 60.0332M813.017 54.4074L811.864 51.6774L811.579 51.0035L811.296 50.3325L810.733 49.0012M813.017 54.4074L852.022 54.4074M810.733 49.0012L848.977 49.0012M734.244 49.0012L696 49.0012M734.244 49.0012L733.512 43.8017M848.977 49.0012L852.022 54.4074M733.512 43.8017L696 43.8017M815.394 60.0332L817.555 65.1466L817.869 65.8923M815.394 60.0332L855.192 60.0332M852.022 54.4074L852.803 55.7925L855.192 60.0332M855.192 60.0332L856.414 62.202L858.493 65.8923M777.246 65.8923L778.098 68.9136L778.313 69.6794L778.966 71.9996M777.246 65.8923H817.869M777.246 65.8923L736.623 65.8923M817.869 65.8923L820.45 71.9996M817.869 65.8923H858.493M858.493 65.8923L861.932 71.9996M778.966 71.9996H820.45M778.966 71.9996L737.483 71.9996M823.141 78.3711L820.45 71.9996M823.141 78.3711L825.952 85.0238M823.141 78.3711H865.522M820.45 71.9996H861.932M737.483 71.9996H696M737.483 71.9996L737.264 70.4487L736.835 67.3951L736.623 65.8923M861.932 71.9996L865.522 78.3711M736.623 65.8923H696M825.952 85.0238L828.143 90.2104L828.891 91.978M825.952 85.0238H869.27M865.522 78.3711L869.27 85.0238M869.27 85.0238L871.206 88.4622L873.188 91.978M784.594 91.978L786.643 99.2538M784.594 91.978H828.891M784.594 91.978L740.297 91.978M828.891 91.978L831.964 99.2538M828.891 91.978L873.188 91.978M873.188 91.978L877.286 99.2538M786.643 99.2538H831.964M786.643 99.2538L741.322 99.2538M835.184 106.874L834.365 104.936L831.964 99.2538M835.184 106.874L838.56 114.864M835.184 106.874L881.579 106.874M831.964 99.2538L877.286 99.2538M741.322 99.2538H696M741.322 99.2538L740.297 91.978M877.286 99.2538L881.579 106.874M740.297 91.978H696M838.56 114.864L842.103 123.251M838.56 114.864L886.079 114.864M881.579 106.874L886.079 114.864M886.079 114.864L890.804 123.251M793.402 123.251L795.885 132.066M793.402 123.251H842.103M793.402 123.251L744.701 123.251M842.103 123.251L845.827 132.066M842.103 123.251L890.804 123.251M890.804 123.251L895.77 132.066M795.885 132.066L845.827 132.066M795.885 132.066H745.942M849.747 141.341L845.827 132.066M849.747 141.341L853.876 151.115M849.747 141.341H900.995M845.827 132.066H895.77M745.942 132.066H696M745.942 132.066L744.852 124.329L744.701 123.251M895.77 132.066L900.995 141.341M744.701 123.251H696M853.876 151.115L858.234 161.43M853.876 151.115H906.501M900.995 141.341L905.097 148.624L906.501 151.115M906.501 151.115L912.312 161.43M804.155 161.43L807.226 172.328M804.155 161.43L858.234 161.43M804.155 161.43H750.078M858.234 161.43L862.838 172.328M858.234 161.43H912.312M912.312 161.43L918.451 172.328M807.226 172.328L862.838 172.328M807.226 172.328H751.613M867.712 183.865L862.838 172.328M867.712 183.865L872.879 196.094M867.712 183.865H924.949M862.838 172.328H918.451M751.613 172.328H696M751.613 172.328L750.078 161.43M918.451 172.328L924.949 183.865M750.078 161.43H696M872.879 196.094L878.368 209.084M872.879 196.094H931.839M924.949 183.865L931.839 196.094M931.839 196.094L939.157 209.084M817.578 209.084L821.471 222.905M817.578 209.084H878.368M817.578 209.084L756.789 209.084M878.368 209.084L884.207 222.905M878.368 209.084H939.157M939.157 209.084L946.942 222.905M821.471 222.905H884.207M821.471 222.905L758.736 222.905M890.432 237.64L884.207 222.905M890.432 237.64L897.084 253.384M890.432 237.64H955.243M884.207 222.905H946.942M758.736 222.905H696M758.736 222.905L756.789 209.084M946.942 222.905L955.243 237.64M756.789 209.084H696M897.084 253.384L904.207 270.242M897.084 253.384H964.112M955.243 237.64L964.112 253.384M964.112 253.384L973.609 270.242M834.804 270.242L839.902 288.34M834.804 270.242H904.207M834.804 270.242H765.403M904.207 270.242L911.853 288.34M904.207 270.242H973.609M973.609 270.242L983.804 288.34M839.902 288.34H911.853M839.902 288.34H767.951M920.082 307.817L911.853 288.34M920.082 307.817L928.963 328.838M920.082 307.817H994.776M911.853 288.34H983.804M767.951 288.34L696 288.34M767.951 288.34L765.403 270.242M983.804 288.34L994.776 307.817M765.403 270.242L696 270.242M928.963 328.838L938.578 351.594M928.963 328.838H1006.62M994.776 307.817L1006.62 328.838M1006.62 328.838L1019.44 351.594M857.718 351.594L864.68 376.309M857.718 351.594H938.578M857.718 351.594H776.859M938.578 351.594L949.02 376.309M938.578 351.594H1019.44M1019.44 351.594L1033.36 376.309M864.68 376.309H949.02M864.68 376.309H780.34M960.401 403.247L949.02 376.309M960.401 403.247L972.855 432.723M960.401 403.247H1048.54M949.02 376.309H1033.36M780.34 376.309L696 376.309M780.34 376.309L776.859 351.594M1033.36 376.309L1048.54 403.247M776.859 351.594L696 351.594M972.855 432.723L986.54 465.114M972.855 432.723H1065.14M1048.54 403.247L1065.14 432.723M1065.14 432.723L1083.39 465.114M889.693 465.114L899.765 500.873M889.693 465.114H986.54M889.693 465.114H792.847M986.54 465.114L1001.65 500.873M986.54 465.114H1083.39M1083.39 465.114L1103.53 500.873M1001.65 500.873H899.765M1001.65 500.873H1103.53M899.765 500.873H797.883M797.883 500.873L696 500.873M797.883 500.873L792.847 465.114M792.847 465.114L696 465.114M626.313 24.8546L626.158 25.4057L626.002 25.959L625.845 26.5152L625.688 27.0743L625.371 28.1989L625.211 28.7651L625.051 29.3342M626.313 24.8546L661.157 24.8546M626.313 24.8546L591.469 24.8546M661.765 20.5313L662.353 16.3566M661.765 20.5313L661.157 24.8546M661.765 20.5313L696 20.5313M662.353 16.3566L662.425 15.845L662.497 15.3354L662.568 14.828L662.921 12.3234M662.353 16.3566L696 16.3566M629.843 12.3234L629.982 11.8282L630.533 9.87037L630.941 8.42355M629.843 12.3234L662.921 12.3234M629.843 12.3234L596.764 12.3234M661.157 24.8546L661.078 25.4057L661.001 25.959L660.922 26.5152L660.526 29.3342M661.157 24.8546L696 24.8546M696 20.5313V16.3566M696 20.5313V24.8546M696 16.3566V12.3234M662.921 12.3234L696 12.3234M662.921 12.3234L663.129 10.8457L663.198 10.357L663.471 8.42355M696 24.8546V29.3342M729.079 12.3234L728.871 10.8457L728.802 10.357L728.734 9.87037L728.665 9.38595L728.597 8.90368L728.53 8.42355M729.079 12.3234L696 12.3234M696 12.3234V8.42355M625.051 29.3342L660.526 29.3342M625.051 29.3342L589.577 29.3342M659.872 33.979L659.788 34.5711L659.704 35.1667L659.193 38.7981M659.872 33.979L660.526 29.3342M659.872 33.979L696 33.979M660.526 29.3342L696 29.3342M589.577 29.3342L554.102 29.3342M589.577 29.3342L590.056 28.1989L590.295 27.6355L590.531 27.0743L590.768 26.5152L591.002 25.959L591.237 25.4057L591.469 24.8546M696 29.3342V33.979M591.469 24.8546L556.626 24.8546M659.193 38.7981L658.488 43.8017M659.193 38.7981L696 38.7981M696 33.979V38.7981M696 38.7981V43.8017M620.976 43.8017L619.512 49.0012M620.976 43.8017H658.488M620.976 43.8017L583.464 43.8017M658.488 43.8017L657.756 49.0012M658.488 43.8017L696 43.8017M696 43.8017V49.0012M619.512 49.0012H657.756M619.512 49.0012L581.267 49.0012M656.995 54.4074L657.756 49.0012M656.995 54.4074L656.202 60.0332M656.995 54.4074L696 54.4074M657.756 49.0012L696 49.0012M581.267 49.0012L543.023 49.0012M581.267 49.0012L583.464 43.8017M696 49.0012V54.4074M583.464 43.8017L545.952 43.8017M656.202 60.0332L655.897 62.202L655.587 64.4045L655.377 65.8923M656.202 60.0332L696 60.0332M696 54.4074V60.0332M696 60.0332V65.8923M614.754 65.8923L613.903 68.9136L613.688 69.6794L613.034 71.9996M614.754 65.8923L655.377 65.8923M614.754 65.8923H574.131M655.377 65.8923L655.165 67.3951L654.736 70.4487L654.517 71.9996M655.377 65.8923H696M696 65.8923V71.9996M613.034 71.9996L654.517 71.9996M613.034 71.9996H571.551M653.62 78.3711L653.733 77.5594L654.517 71.9996M653.62 78.3711L652.683 85.0238M653.62 78.3711H696M654.517 71.9996H696M571.551 71.9996H530.068M571.551 71.9996L574.131 65.8923M696 71.9996V78.3711M574.131 65.8923H533.508M652.683 85.0238L651.703 91.978M652.683 85.0238H696M696 78.3711V85.0238M696 85.0238V91.978M607.406 91.978L605.357 99.2538M607.406 91.978L651.703 91.978M607.406 91.978H563.109M651.703 91.978L650.679 99.2538M651.703 91.978H696M696 91.978V99.2538M605.357 99.2538L650.679 99.2538M605.357 99.2538H560.036M649.606 106.874L650.679 99.2538M649.606 106.874L648.48 114.864M649.606 106.874H696M650.679 99.2538H696M560.036 99.2538L514.714 99.2538M560.036 99.2538L563.109 91.978M696 99.2538V106.874M563.109 91.978L518.813 91.978M648.48 114.864L647.299 123.251M648.48 114.864H696M696 106.874V114.864M696 114.864V123.251M598.598 123.251L596.115 132.066M598.598 123.251L647.299 123.251M598.598 123.251H549.897M647.299 123.251L646.058 132.066M647.299 123.251H696M696 123.251V132.066M596.115 132.066H646.058M596.115 132.066L546.173 132.066M644.751 141.341L646.058 132.066M644.751 141.341L643.375 151.115M644.751 141.341H696M646.058 132.066H696M546.173 132.066H496.23M546.173 132.066L549.897 123.251M696 132.066V141.341M549.897 123.251L501.196 123.251M643.375 151.115L641.922 161.43M643.375 151.115H696M696 141.341V151.115M696 151.115V161.43M587.845 161.43L584.775 172.328M587.845 161.43H641.922M587.845 161.43L533.767 161.43M641.922 161.43L640.387 172.328M641.922 161.43H696M696 161.43V172.328M584.775 172.328H640.387M584.775 172.328L529.162 172.328M638.763 183.865L640.387 172.328M638.763 183.865L637.04 196.094M638.763 183.865H696M640.387 172.328H696M529.162 172.328H473.549M529.162 172.328L533.767 161.43M696 172.328V183.865M533.767 161.43H479.688M637.04 196.094L635.211 209.084M637.04 196.094H696M696 183.865V196.094M696 196.094V209.084M574.422 209.084L570.529 222.905M574.422 209.084L635.211 209.084M574.422 209.084H513.633M635.211 209.084L633.264 222.905M635.211 209.084H696M696 209.084V222.905M570.529 222.905L633.264 222.905M570.529 222.905H507.793M631.189 237.64L633.264 222.905M631.189 237.64L628.972 253.384M631.189 237.64H696M633.264 222.905H696M507.793 222.905H445.058M507.793 222.905L513.633 209.084M696 222.905V237.64M513.633 209.084H452.843M628.972 253.384L626.598 270.242M628.972 253.384H696M696 237.64V253.384M696 253.384V270.242M557.196 270.242L552.098 288.34M557.196 270.242H626.598M557.196 270.242H487.793M626.598 270.242L624.049 288.34M626.598 270.242H696M696 270.242V288.34M552.098 288.34H624.049M552.098 288.34H480.147M621.306 307.817L624.049 288.34M621.306 307.817L618.346 328.838M621.306 307.817H696M624.049 288.34H696M480.147 288.34H408.196M480.147 288.34L487.793 270.242M696 288.34V307.817M487.793 270.242H418.391M618.346 328.838L615.141 351.594M618.346 328.838H696M696 307.817V328.838M696 328.838V351.594M534.282 351.594L527.32 376.309M534.282 351.594H615.141M534.282 351.594H453.422M615.141 351.594L611.66 376.309M615.141 351.594H696M696 351.594V376.309M527.32 376.309H611.66M527.32 376.309H442.98M607.866 403.247L611.66 376.309M607.866 403.247L603.715 432.723M607.866 403.247H696M611.66 376.309H696M442.98 376.309H358.64M442.98 376.309L453.422 351.594M696 376.309V403.247M453.422 351.594H372.563M603.715 432.723L599.153 465.114M603.715 432.723H696M696 403.247V432.723M696 432.723V465.114M502.307 465.114L492.235 500.873M502.307 465.114H599.153M502.307 465.114H405.46M599.153 465.114L594.117 500.873M599.153 465.114H696M696 465.114L696 500.873M594.117 500.873H492.235M594.117 500.873H696M492.235 500.873H390.352M390.352 500.873H288.47M390.352 500.873L405.46 465.114M405.46 465.114H308.614M486.939 24.8546L485.063 27.0743L483.154 29.3342M486.939 24.8546L521.782 24.8546M486.939 24.8546L452.095 24.8546M524.826 20.5313L527.766 16.3566M524.826 20.5313L521.782 24.8546M524.826 20.5313L559.061 20.5313M527.766 16.3566L561.413 16.3566M527.766 16.3566L529.905 13.3188L530.606 12.3234M497.527 12.3234L530.606 12.3234M497.527 12.3234L498.776 10.8457L500.822 8.42355M497.527 12.3234L464.449 12.3234M521.782 24.8546L518.628 29.3342M521.782 24.8546L556.626 24.8546M559.061 20.5313L561.413 16.3566M559.061 20.5313L556.626 24.8546M561.413 16.3566L562.559 14.3228L563.405 12.82L563.685 12.3234M530.606 12.3234L563.685 12.3234M530.606 12.3234L532.674 9.38595L533.352 8.42355M556.626 24.8546L554.741 28.1989L554.102 29.3342M596.764 12.3234L596.972 11.8282L597.388 10.8457L598.004 9.38595L598.412 8.42355M596.764 12.3234L563.685 12.3234M563.685 12.3234L563.963 11.8282L564.518 10.8457L565.882 8.42355M483.154 29.3342L518.628 29.3342M483.154 29.3342L447.679 29.3342M515.357 33.979L515.773 33.3891L516.186 32.8013L517.821 30.4789L518.628 29.3342M515.357 33.979L512.824 37.5759L511.963 38.7981M515.357 33.979H551.486M518.628 29.3342L554.102 29.3342M447.679 29.3342L412.204 29.3342M447.679 29.3342L451.005 25.959L452.095 24.8546M554.102 29.3342L551.486 33.979M452.095 24.8546L417.251 24.8546M511.963 38.7981L511.531 39.4132L511.095 40.0311L509.777 41.9035L509.333 42.5329L508.44 43.8017M511.963 38.7981H548.77M551.486 33.979L551.152 34.5711L548.77 38.7981M548.77 38.7981L548.425 39.4132L548.076 40.0311L547.726 40.6526L545.952 43.8017M470.928 43.8017L466.535 49.0012M470.928 43.8017L508.44 43.8017M470.928 43.8017L433.416 43.8017M508.44 43.8017L504.779 49.0012M508.44 43.8017H545.952M545.952 43.8017L543.023 49.0012M466.535 49.0012L504.779 49.0012M466.535 49.0012L428.29 49.0012M500.972 54.4074L504.779 49.0012M500.972 54.4074L497.011 60.0332M500.972 54.4074H539.978M504.779 49.0012H543.023M428.29 49.0012H390.046M428.29 49.0012L433.416 43.8017M543.023 49.0012L539.978 54.4074M433.416 43.8017H395.904M497.011 60.0332L492.885 65.8923M497.011 60.0332H536.808M539.978 54.4074L539.197 55.7925L536.808 60.0332M536.808 60.0332L535.586 62.202L534.345 64.4045L533.508 65.8923M452.262 65.8923L449.708 68.9136L447.101 71.9996M452.262 65.8923H492.885M452.262 65.8923H411.638M492.885 65.8923L488.584 71.9996M492.885 65.8923L533.508 65.8923M533.508 65.8923L530.068 71.9996M447.101 71.9996H488.584M447.101 71.9996L405.618 71.9996M484.098 78.3711L488.584 71.9996M484.098 78.3711L479.413 85.0238M484.098 78.3711L526.478 78.3711M488.584 71.9996L530.068 71.9996M405.618 71.9996H364.135M405.618 71.9996L411.638 65.8923M530.068 71.9996L526.478 78.3711M411.638 65.8923L371.016 65.8923M479.413 85.0238L478.209 86.7333L474.516 91.978M479.413 85.0238H522.73M526.478 78.3711L522.73 85.0238M522.73 85.0238L522.25 85.8765L520.794 88.4622L518.813 91.978M430.22 91.978L424.071 99.2538M430.22 91.978H474.516M430.22 91.978L385.923 91.978M474.516 91.978L469.393 99.2538M474.516 91.978H518.813M518.813 91.978L514.714 99.2538M424.071 99.2538H469.393M424.071 99.2538L378.75 99.2538M464.027 106.874L467.41 102.07L469.393 99.2538M464.027 106.874L458.4 114.864M464.027 106.874H510.421M469.393 99.2538H514.714M378.75 99.2538H333.428M378.75 99.2538L385.923 91.978M514.714 99.2538L510.421 106.874M385.923 91.978H341.626M458.4 114.864L452.495 123.251M458.4 114.864H505.921M510.421 106.874L505.921 114.864M505.921 114.864L501.196 123.251M403.793 123.251L396.345 132.066M403.793 123.251L452.495 123.251M403.793 123.251H355.093M452.495 123.251L446.288 132.066M452.495 123.251H501.196M501.196 123.251L496.23 132.066M396.345 132.066H446.288M396.345 132.066L346.403 132.066M439.756 141.341L446.288 132.066M439.756 141.341L432.874 151.115M439.756 141.341H491.005M446.288 132.066H496.23M346.403 132.066H296.461M346.403 132.066L355.093 123.251M496.23 132.066L491.005 141.341M355.093 123.251H306.392M432.874 151.115L425.611 161.43M432.874 151.115H485.499M491.005 141.341L485.499 151.115M485.499 151.115L479.688 161.43M371.533 161.43L362.323 172.328M371.533 161.43H425.611M371.533 161.43L317.455 161.43M425.611 161.43L417.936 172.328M425.611 161.43H479.688M479.688 161.43L473.549 172.328M362.323 172.328H417.936M362.323 172.328L306.711 172.328M409.813 183.865L417.936 172.328M409.813 183.865L401.201 196.094M409.813 183.865H467.051M417.936 172.328H473.549M306.711 172.328H251.098M306.711 172.328L317.455 161.43M473.549 172.328L467.051 183.865M317.455 161.43H263.378M401.201 196.094L392.054 209.084M401.201 196.094H460.161M467.051 183.865L460.161 196.094M460.161 196.094L452.843 209.084M331.265 209.084L319.587 222.905M331.265 209.084L392.054 209.084M331.265 209.084H270.476M392.054 209.084L382.322 222.905M392.054 209.084H452.843M452.843 209.084L445.058 222.905M319.587 222.905L382.322 222.905M319.587 222.905H256.851M371.946 237.64L382.322 222.905M371.946 237.64L360.86 253.384M371.946 237.64H436.757M382.322 222.905H445.058M256.851 222.905H194.115M256.851 222.905L270.476 209.084M445.058 222.905L436.757 237.64M270.476 209.084H209.687M360.86 253.384L348.989 270.242M360.86 253.384H427.888M436.757 237.64L427.888 253.384M427.888 253.384L418.391 270.242M279.586 270.242L264.294 288.34M279.586 270.242H348.989M279.586 270.242L210.184 270.242M348.989 270.242L336.245 288.34M348.989 270.242H418.391M418.391 270.242L408.196 288.34M264.294 288.34H336.245M264.294 288.34L192.343 288.34M322.53 307.817L336.245 288.34M322.53 307.817L307.728 328.838M322.53 307.817H397.224M336.245 288.34H408.196M192.343 288.34H120.392M192.343 288.34L210.184 270.242M408.196 288.34L397.224 307.817M210.184 270.242H140.781M307.728 328.838L291.704 351.594M307.728 328.838H385.382M397.224 307.817L385.382 328.838M385.382 328.838L372.563 351.594M210.845 351.594L189.961 376.309M210.845 351.594L291.704 351.594M210.845 351.594H129.986M291.704 351.594L274.301 376.309M291.704 351.594H372.563M372.563 351.594L358.64 376.309M189.961 376.309L274.301 376.309M189.961 376.309H105.621M255.332 403.247L274.301 376.309M255.332 403.247L234.575 432.723M255.332 403.247H343.465M274.301 376.309H358.64M105.621 376.309H21.2809M105.621 376.309L129.986 351.594M358.64 376.309L343.465 403.247M129.986 351.594H49.1267M234.575 432.723L211.768 465.114M234.575 432.723H326.861M343.465 403.247L326.861 432.723M326.861 432.723L308.614 465.114M114.921 465.114L84.7046 500.873M114.921 465.114H211.768M114.921 465.114H18.0741M211.768 465.114L186.587 500.873M211.768 465.114L308.614 465.114M308.614 465.114L288.47 500.873M186.587 500.873H84.7046M186.587 500.873L288.47 500.873M84.7046 500.873L1.37409 500.872M18.0741 465.114L1.37409 482.054M18.0741 465.114H1.37409M347.564 24.8546L341.255 29.3342M347.564 24.8546L382.408 24.8546M347.564 24.8546L312.721 24.8546M387.887 20.5313L393.179 16.3566M387.887 20.5313L382.408 24.8546M387.887 20.5313L422.122 20.5313M393.179 16.3566H426.825M393.179 16.3566L398.291 12.3234M365.212 12.3234L398.291 12.3234M365.212 12.3234L367.294 10.8457L370.705 8.42355M365.212 12.3234L332.133 12.3234M382.408 24.8546L376.73 29.3342M382.408 24.8546L417.251 24.8546M422.122 20.5313L426.825 16.3566M422.122 20.5313L417.251 24.8546M426.825 16.3566L430.248 13.3188L431.37 12.3234M398.291 12.3234L398.918 11.8282L403.234 8.42355M398.291 12.3234L431.37 12.3234M417.251 24.8546L412.204 29.3342M464.449 12.3234L468.293 8.42355M464.449 12.3234L431.37 12.3234M431.37 12.3234L433.035 10.8457L435.764 8.42355M341.255 29.3342L376.73 29.3342M341.255 29.3342L305.781 29.3342M370.843 33.979L376.73 29.3342M370.843 33.979L364.734 38.7981M370.843 33.979L406.971 33.979M376.73 29.3342L412.204 29.3342M305.781 29.3342L270.306 29.3342M305.781 29.3342L312.721 24.8546M412.204 29.3342L406.971 33.979M312.721 24.8546L277.877 24.8546M364.734 38.7981L363.171 40.0311L358.392 43.8017M364.734 38.7981L401.542 38.7981M406.971 33.979L401.542 38.7981M401.542 38.7981L395.904 43.8017M320.88 43.8017L319.98 44.4411L313.558 49.0012M320.88 43.8017H358.392M320.88 43.8017L283.368 43.8017M358.392 43.8017L351.802 49.0012M358.392 43.8017L395.904 43.8017M395.904 43.8017L395.184 44.4411L390.046 49.0012M313.558 49.0012L351.802 49.0012M313.558 49.0012H275.314M344.95 54.4074L351.802 49.0012M344.95 54.4074L337.819 60.0332M344.95 54.4074L383.955 54.4074M351.802 49.0012L390.046 49.0012M275.314 49.0012L237.069 49.0012M275.314 49.0012L283.368 43.8017M390.046 49.0012L383.955 54.4074M283.368 43.8017L245.856 43.8017M337.819 60.0332L330.392 65.8923M337.819 60.0332H377.617M383.955 54.4074L377.617 60.0332M377.617 60.0332L371.016 65.8923M289.77 65.8923L281.169 71.9996M289.77 65.8923L330.392 65.8923M289.77 65.8923H249.146M330.392 65.8923L322.652 71.9996M330.392 65.8923H371.016M371.016 65.8923L364.135 71.9996M281.169 71.9996L322.652 71.9996M281.169 71.9996H239.685M314.576 78.3711L322.652 71.9996M314.576 78.3711L306.143 85.0238M314.576 78.3711H356.956M322.652 71.9996H364.135M239.685 71.9996H198.202M239.685 71.9996L249.146 65.8923M364.135 71.9996L356.956 78.3711M249.146 65.8923H208.523M306.143 85.0238L297.329 91.978M306.143 85.0238H349.461M356.956 78.3711L349.461 85.0238M349.461 85.0238L341.626 91.978M253.032 91.978L242.786 99.2538M253.032 91.978L297.329 91.978M253.032 91.978H208.735M297.329 91.978L288.107 99.2538M297.329 91.978H341.626M341.626 91.978L333.428 99.2538M242.786 99.2538H288.107M242.786 99.2538H197.464M278.448 106.874L288.107 99.2538M278.448 106.874L268.321 114.864M278.448 106.874L324.843 106.874M288.107 99.2538L333.428 99.2538M197.464 99.2538L152.143 99.2538M197.464 99.2538L208.735 91.978M333.428 99.2538L324.843 106.874M208.735 91.978L164.438 91.978M268.321 114.864L257.69 123.251M268.321 114.864L315.841 114.864M324.843 106.874L315.841 114.864M315.841 114.864L306.392 123.251M208.989 123.251L196.576 132.066M208.989 123.251H257.69M208.989 123.251L160.289 123.251M257.69 123.251L246.518 132.066M257.69 123.251L306.392 123.251M306.392 123.251L296.461 132.066M196.576 132.066H246.518M196.576 132.066H146.633M234.76 141.341L246.518 132.066M234.76 141.341L222.372 151.115M234.76 141.341H286.009M246.518 132.066H296.461M146.633 132.066L96.6905 132.066M146.633 132.066L160.289 123.251M296.461 132.066L286.009 141.341M160.289 123.251H111.587M222.372 151.115L209.3 161.43M222.372 151.115H274.997M286.009 141.341L274.997 151.115M274.997 151.115L263.378 161.43M155.221 161.43L139.872 172.328M155.221 161.43H209.3M155.221 161.43L101.144 161.43M209.3 161.43L195.485 172.328M209.3 161.43H263.378M263.378 161.43L251.098 172.328M139.872 172.328H195.485M139.872 172.328L84.2596 172.328M180.863 183.865L195.485 172.328M180.863 183.865L165.362 196.094M180.863 183.865H238.1M195.485 172.328H251.098M84.2596 172.328H28.6468M84.2596 172.328L101.144 161.43M251.098 172.328L238.1 183.865M101.144 161.43H47.066M165.362 196.094L148.897 209.084M165.362 196.094H224.322M238.1 183.865L224.322 196.094M224.322 196.094L209.687 209.084M88.1083 209.084L68.6443 222.905M88.1083 209.084L148.897 209.084M88.1083 209.084H27.3191M148.897 209.084L131.38 222.905M148.897 209.084H209.687M209.687 209.084L194.115 222.905M68.6443 222.905L131.38 222.905M68.6443 222.905H5.90869M112.702 237.64L131.38 222.905M112.702 237.64L92.7478 253.384M112.702 237.64L177.513 237.64M131.38 222.905H194.115M5.90869 222.905L27.3191 209.084M5.90869 222.905H1.37409M5.90869 222.905L1.37409 225.832M194.115 222.905L177.513 237.64M27.3191 209.084H1.37409M92.7478 253.384L71.3794 270.242M92.7478 253.384L159.776 253.384M177.513 237.64L159.776 253.384M159.776 253.384L140.781 270.242M1.97682 270.242H71.3794M1.97682 270.242H1.37409M1.97682 270.242L1.37409 270.67M71.3794 270.242L48.4408 288.34M71.3794 270.242H140.781M140.781 270.242L120.392 288.34M23.7541 307.817L48.4408 288.34M23.7541 307.817H98.4481M23.7541 307.817H1.37409M23.7541 307.817L1.37409 325.474M48.4408 288.34H120.392M48.4408 288.34H1.37409M120.392 288.34L98.4481 307.817M98.4481 307.817L74.7649 328.838M74.7649 328.838L49.1267 351.594M74.7649 328.838H1.37409M49.1267 351.594L21.2809 376.309M49.1267 351.594H1.37409M21.2809 376.309H1.37409M21.2809 376.309L1.37409 393.978M208.19 24.8546L199.358 29.3342M208.19 24.8546L243.034 24.8546M208.19 24.8546L173.346 24.8546M250.948 20.5313L258.591 16.3566M250.948 20.5313L243.034 24.8546M250.948 20.5313L285.183 20.5313M258.591 16.3566L292.238 16.3566M258.591 16.3566L265.976 12.3234M232.897 12.3234L265.976 12.3234M232.897 12.3234L240.586 8.42355M232.897 12.3234L199.819 12.3234M243.034 24.8546L234.832 29.3342M243.034 24.8546L277.877 24.8546M285.183 20.5313L292.238 16.3566M285.183 20.5313L277.877 24.8546M292.238 16.3566L299.055 12.3234M265.976 12.3234L266.881 11.8282L273.115 8.42355M265.976 12.3234L299.055 12.3234M277.877 24.8546L270.306 29.3342M332.133 12.3234L338.174 8.42355M332.133 12.3234L299.055 12.3234M299.055 12.3234L299.89 11.8282L305.645 8.42355M199.358 29.3342L234.832 29.3342M199.358 29.3342L163.883 29.3342M226.328 33.979L234.832 29.3342M226.328 33.979L217.505 38.7981M226.328 33.979L262.457 33.979M234.832 29.3342L270.306 29.3342M163.883 29.3342L128.409 29.3342M163.883 29.3342L173.346 24.8546M270.306 29.3342L262.457 33.979M173.346 24.8546L138.503 24.8546M217.505 38.7981L208.344 43.8017M217.505 38.7981H254.312M262.457 33.979L261.455 34.5711L254.312 38.7981M254.312 38.7981L245.856 43.8017M170.832 43.8017L160.581 49.0012M170.832 43.8017L208.344 43.8017M170.832 43.8017L133.32 43.8017M208.344 43.8017L198.825 49.0012M208.344 43.8017H245.856M245.856 43.8017L237.069 49.0012M160.581 49.0012H198.825M160.581 49.0012L122.337 49.0012M188.927 54.4074L198.825 49.0012M188.927 54.4074L178.627 60.0332M188.927 54.4074L227.933 54.4074M198.825 49.0012L237.069 49.0012M122.337 49.0012L84.0925 49.0012M122.337 49.0012L133.32 43.8017M237.069 49.0012L227.933 54.4074M133.32 43.8017H95.8078M178.627 60.0332L167.9 65.8923M178.627 60.0332L218.425 60.0332M227.933 54.4074L218.425 60.0332M218.425 60.0332L208.523 65.8923M127.277 65.8923L115.236 71.9996M127.277 65.8923H167.9M127.277 65.8923H86.6539M167.9 65.8923L156.719 71.9996M167.9 65.8923L208.523 65.8923M208.523 65.8923L198.202 71.9996M115.236 71.9996H156.719M115.236 71.9996H73.7527M145.054 78.3711L156.719 71.9996M145.054 78.3711L132.873 85.0238M145.054 78.3711L187.435 78.3711M156.719 71.9996L198.202 71.9996M73.7527 71.9996L32.2697 71.9996M73.7527 71.9996L86.6539 65.8923M198.202 71.9996L187.435 78.3711M86.6539 65.8923L46.0313 65.8923M132.873 85.0238L120.141 91.978M132.873 85.0238L176.19 85.0238M187.435 78.3711L176.19 85.0238M176.19 85.0238L164.438 91.978M75.8445 91.978L61.4998 99.2538M75.8445 91.978H120.141M75.8445 91.978L31.5483 91.978M120.141 91.978L106.821 99.2538M120.141 91.978H164.438M164.438 91.978L152.143 99.2538M61.4998 99.2538H106.821M92.8693 106.874L106.821 99.2538M92.8693 106.874L78.2417 114.864M92.8693 106.874H139.265M106.821 99.2538H152.143M152.143 99.2538L139.265 106.874M31.5483 91.978H1.37409M78.2417 114.864L62.8861 123.251M78.2417 114.864H125.761M139.265 106.874L125.761 114.864M125.761 114.864L111.587 123.251M14.1849 123.251L62.8861 123.251M14.1849 123.251H1.37409M14.1849 123.251L1.37409 129.748M62.8861 123.251L46.7476 132.066M62.8861 123.251H111.587M111.587 123.251L96.6905 132.066M29.7655 141.341L46.7476 132.066M29.7655 141.341L11.8709 151.115M29.7655 141.341H81.0144M29.7655 141.341H1.37409M46.7476 132.066H96.6905M46.7476 132.066H1.37409M96.6905 132.066L81.0144 141.341M1.23299 129.82L1.37409 129.748M11.8709 151.115H64.496M11.8709 151.115H1.37409M11.8709 151.115L1.37409 156.849M81.0144 141.341L64.496 151.115M64.496 151.115L47.066 161.43M47.066 161.43L28.6468 172.328M47.066 161.43H1.37409M9.15101 183.865L28.6468 172.328M9.15101 183.865H1.37409M9.15101 183.865L1.37409 188.466M28.6468 172.328H1.37409M68.8158 24.8546L57.4601 29.3342M68.8158 24.8546L103.659 24.8546M68.8158 24.8546L33.9716 24.8546M114.009 20.5313L124.004 16.3566M114.009 20.5313L103.659 24.8546M114.009 20.5313L148.244 20.5313M124.004 16.3566L157.65 16.3566M124.004 16.3566L133.661 12.3234M100.582 12.3234L133.661 12.3234M100.582 12.3234L110.467 8.42355M100.582 12.3234L67.5032 12.3234M103.659 24.8546L92.9345 29.3342M103.659 24.8546L138.503 24.8546M148.244 20.5313L157.65 16.3566M148.244 20.5313L138.503 24.8546M157.65 16.3566L166.739 12.3234M133.661 12.3234L166.739 12.3234M133.661 12.3234L142.997 8.42355M138.503 24.8546L128.409 29.3342M199.819 12.3234L208.056 8.42355M199.819 12.3234L166.739 12.3234M166.739 12.3234L175.527 8.42355M57.4601 29.3342L92.9345 29.3342M57.4601 29.3342L21.9857 29.3342M81.8139 33.979L92.9345 29.3342M81.8139 33.979L70.2759 38.7981M81.8139 33.979L117.942 33.979M92.9345 29.3342L128.409 29.3342M21.9857 29.3342L33.9716 24.8546M21.9857 29.3342L1.37409 29.3342M128.409 29.3342L117.942 33.979M33.9716 24.8546L1.37409 24.8546M70.2759 38.7981L58.2958 43.8017M70.2759 38.7981L107.083 38.7981M117.942 33.979L107.083 38.7981M107.083 38.7981L95.8078 43.8017M20.7838 43.8017L7.60401 49.0012M20.7838 43.8017L58.2958 43.8017M20.7838 43.8017H1.37409M58.2958 43.8017L45.8482 49.0012M58.2958 43.8017L95.8078 43.8017M95.8078 43.8017L84.0925 49.0012M32.905 54.4074L45.8482 49.0012M32.905 54.4074L19.4358 60.0332M32.905 54.4074H71.9105M32.905 54.4074L1.37409 54.4074M45.8482 49.0012L7.60401 49.0012M45.8482 49.0012H84.0925M7.60401 49.0012L1.37409 51.4585M7.60401 49.0012H1.37409M84.0925 49.0012L71.9105 54.4074M19.4358 60.0332L5.40798 65.8923M19.4358 60.0332L59.2335 60.0332M19.4358 60.0332H1.37409M71.9105 54.4074L59.2335 60.0332M59.2335 60.0332L46.0313 65.8923M5.40798 65.8923H46.0313M5.40798 65.8923L1.37409 67.5768M5.40798 65.8923H1.37409M46.0313 65.8923L32.2697 71.9996M17.9127 78.3711L32.2697 71.9996M17.9127 78.3711L2.92108 85.0238M17.9127 78.3711H1.37409M32.2697 71.9996H1.37409M1.15702 71.9996H1.37409M2.92108 85.0238H1.37409M2.92108 85.0238L1.37409 85.7104M1 85.8765L1.37409 85.7104M11.3051 20.5313L23.0631 16.3566M11.3051 20.5313H1.37409M11.3051 20.5313L1.37409 24.0569M23.0631 16.3566L34.4245 12.3234M23.0631 16.3566L1.37409 16.3566M67.5032 12.3234L77.9378 8.42355M67.5032 12.3234L34.4245 12.3234M34.4245 12.3234L45.4083 8.42355M34.4245 12.3234L1.37409 12.3234M1151.41 8.42355L1183.94 8.42355M1151.41 8.42355L1118.88 8.42355M1175.97 4.65148L1177.94 5.58302L1183.94 8.42355M1175.97 4.65148L1207.97 4.65148M1183.94 8.42355L1216.47 8.42355M1207.97 4.65148L1210.07 5.58302L1211.13 6.05094L1216.47 8.42355M1216.47 8.42355L1249 8.42355M1249 8.42355L1281.53 8.42355M1118.88 8.42355L1086.36 8.42355M1281.53 8.42355L1314.06 8.42355M1314.06 8.42355L1303.97 4.65148M1314.06 8.42355L1346.59 8.42355M1303.97 4.65148L1335.97 4.65148M1021.3 8.42355L1053.83 8.42355M1021.3 8.42355L988.766 8.42355M1047.98 4.65148L1049.42 5.58302L1050.15 6.05094L1053.83 8.42355M1047.98 4.65148L1079.98 4.65148M1053.83 8.42355L1086.36 8.42355M1079.98 4.65148L1086.36 8.42355M988.766 8.42355L956.237 8.42355M891.178 8.42355L923.707 8.42355M891.178 8.42355L858.648 8.42355M919.988 4.65148L920.447 5.11582L920.906 5.58302L921.368 6.05094L923.707 8.42355M919.988 4.65148L951.986 4.65148M923.707 8.42355L956.237 8.42355M951.986 4.65148L956.237 8.42355M858.648 8.42355L826.118 8.42355M761.059 8.42355L793.588 8.42355M761.059 8.42355L728.53 8.42355M791.995 4.65148L793.588 8.42355M791.995 4.65148L823.994 4.65148M793.588 8.42355L826.118 8.42355M823.994 4.65148L824.255 5.11582L824.518 5.58302L824.782 6.05094L826.118 8.42355M728.53 8.42355L696 8.42355M630.941 8.42355L663.471 8.42355M630.941 8.42355L598.412 8.42355M664.002 4.65148L663.471 8.42355M664.002 4.65148L696 4.65148M663.471 8.42355L696 8.42355M696 4.65148V8.42355M598.412 8.42355L565.882 8.42355M500.822 8.42355L533.352 8.42355M500.822 8.42355L468.293 8.42355M536.008 4.65148L535.353 5.58302L534.024 7.46834L533.352 8.42355M536.008 4.65148L568.007 4.65148M533.352 8.42355L565.882 8.42355M568.007 4.65148L567.745 5.11582L567.482 5.58302L567.218 6.05094L565.882 8.42355M468.293 8.42355L435.764 8.42355M370.705 8.42355L403.234 8.42355M370.705 8.42355L338.174 8.42355M408.015 4.65148L406.835 5.58302L406.24 6.05094L403.234 8.42355M408.015 4.65148L440.014 4.65148M403.234 8.42355L435.764 8.42355M440.014 4.65148L439.49 5.11582L435.764 8.42355M338.174 8.42355L305.645 8.42355M240.586 8.42355L273.115 8.42355M240.586 8.42355L208.056 8.42355M280.022 4.65148L278.316 5.58302L277.458 6.05094L273.115 8.42355M280.022 4.65148L312.02 4.65148M273.115 8.42355L305.645 8.42355M312.02 4.65148L311.234 5.11582L305.645 8.42355M208.056 8.42355L175.527 8.42355M110.467 8.42355L142.997 8.42355M110.467 8.42355L77.9378 8.42355M152.028 4.65148L142.997 8.42355M152.028 4.65148L184.027 4.65148M142.997 8.42355L175.527 8.42355M184.027 4.65148L181.928 5.58302L180.872 6.05094L175.527 8.42355M77.9378 8.42355L45.4083 8.42355M24.0355 4.65148L12.8788 8.42355M24.0355 4.65148L56.0339 4.65148M24.0355 4.65148L1.37409 4.65148M12.8788 8.42355L45.4083 8.42355M12.8788 8.42355L1.37409 12.3138M12.8788 8.42355L1.37409 8.42355M56.0339 4.65148L53.4103 5.58302L45.4083 8.42355M1335.97 4.65148L1338.59 5.58302L1346.59 8.42355M1346.59 8.42355L1379.12 8.42355M1379.12 8.42355L1390.63 12.3138M1379.12 8.42355L1390.63 8.42355M1390.63 188.466V183.865M1390.63 188.466V196.094M1390.63 183.865V172.328M1390.63 196.094V198.374V209.084M1390.63 209.084V222.905M1390.63 99.2538V91.978M1390.63 99.2538V106.262M1390.63 4.65148V8.42355M1390.63 8.42355V12.3138M1390.63 12.3138L1390.65 12.3234H1390.63M1390.63 12.3138V12.3234M1390.63 12.3234V16.3566M1390.63 16.3566V20.5313M1390.63 20.5313V24.0569M1390.63 24.0569V24.8546M1390.63 24.8546V29.3342M1390.63 29.3342V33.979M1390.63 33.979V37.0363M1390.63 37.0363V38.7981M1390.63 38.7981V43.8017M1390.63 43.8017V49.0012M1390.63 49.0012V51.4585M1390.63 51.4585V54.4074M1390.63 54.4074V60.0332M1390.63 60.0332V65.8923M1390.63 65.8923V67.5768M1390.63 67.5768V71.9996M1390.63 71.9996V78.3711M1390.63 78.3711V85.0238M1390.63 85.0238V85.7104M1390.63 85.7104V91.978M1390.63 106.874V114.864M1390.63 106.874V106.262M1390.63 114.864V123.251M1390.63 123.251V129.748M1390.63 129.748V132.066M1390.63 132.066V141.341M1390.63 141.341V151.115M1390.63 151.115V156.849M1390.63 156.849V161.43M1390.63 161.43V172.328M1390.63 222.905V225.832M1390.63 225.832V237.64M1390.63 237.64V253.384M1390.63 253.384V270.242M1390.63 270.242V270.67M1390.63 270.67V288.34M1390.63 288.34V307.817M1390.63 307.817V325.474M1390.63 325.474V328.838M1390.63 328.838V351.594M1390.63 351.594V376.309M1390.63 376.309V393.978M1390.63 393.978V403.247M1390.63 403.247V432.723M1390.63 432.723V465.114M1390.63 465.114V482.054M1390.63 482.054V500.872M1390.63 500.872V501L1.37409 501V500.872M1.37409 106.874L1.37409 114.864M1.37409 106.874V106.262M1.37409 106.262L1.37409 99.2538M1.37409 99.2538L1.37409 91.978M1.37409 91.978L1.37409 85.7104M1.37409 85.7104L1.37409 85.0238M1.37409 85.0238L1.37409 78.3711M1.37409 78.3711L1.37409 71.9996M1.37409 71.9996L1.37409 67.5768M1.37409 67.5768L1.37409 65.8923M1.37409 65.8923L1.37409 60.0332M1.37409 60.0332L1.37409 54.4074M1.37409 54.4074L1.37409 51.4585M1.37409 51.4585L1.37409 49.0012M1.37409 49.0012L1.37409 43.8017M1.37409 43.8017L1.37409 38.7981M1.37409 38.7981L1.37409 37.0363M1.37409 37.0363L1.37409 33.979M1.37409 33.979L1.37409 29.3342M1.37409 29.3342L1.37409 24.8546M1.37409 24.8546V24.0569M1.37409 24.0569L1.37409 20.5313M1.37409 20.5313L1.37409 16.3566M1.37409 16.3566L1.37409 12.3234M1.37409 12.3234H1.34587L1.37409 12.3138M1.37409 12.3234V12.3138M1.37409 12.3138L1.37409 8.42355M1.37409 8.42355L1.37409 4.65148M1.37409 500.872L1.37409 482.054M1.37409 482.054L1.37409 465.114M1.37409 465.114L1.37409 432.724M1.37409 432.724L1.37409 403.247M1.37409 403.247L1.37409 393.978M1.37409 393.978L1.37409 376.309M1.37409 376.309L1.37409 351.594M1.37409 351.594L1.37409 328.838M1.37409 328.838L1.37409 325.474M1.37409 325.474L1.37409 307.817M1.37409 307.817L1.37409 288.34M1.37409 288.34L1.37409 270.67M1.37409 270.67L1.37409 270.242M1.37409 270.242L1.37409 253.384M1.37409 253.384L1.37409 237.64M1.37409 237.64L1.37409 225.832M1.37409 225.832L1.37409 222.905M1.37409 222.905L1.37409 209.084M1.37409 209.084L1.37409 196.094M1.37409 196.094L1.37409 188.466M1.37409 188.466L1.37409 183.865M1.37409 183.865L1.37409 172.328M1.37409 172.328L1.37409 161.43M1.37409 161.43L1.37409 156.849M1.37409 156.849L1.37409 151.115M1.37409 151.115L1.37409 141.341M1.37409 141.341L1.37409 132.066M1.37409 132.066L1.37409 129.748M1.37409 129.748L1.37409 123.251M1.37409 123.251L1.37409 114.864" stroke="url(#paint0_radial_1_71)" stroke-opacity="0.2" stroke-miterlimit="10" stroke-linecap="round" stroke-linejoin="round"/>
<defs>
<radialGradient id="paint0_radial_1_71" cx="0" cy="0" r="1" gradientUnits="userSpaceOnUse" gradientTransform="translate(696 501) rotate(-90) scale(477.583 639.215)">
<stop stop-color="#4442D7"/>
<stop offset="1" stop-color="#4442D7" stop-opacity="0"/>
</radialGradient>
</defs>
</svg>
