<svg width="1440" height="520" viewBox="0 0 1440 520" fill="none" xmlns="http://www.w3.org/2000/svg">
<path d="M1416.14 4.78294L1404.95 1M1416.14 4.78294L1382.99 4.78294M1416.14 4.78294L1427.69 8.6908M1416.14 4.78294L1439.61 4.78294M1404.95 1L1409.02 1.00147L1413.05 1.00967L1416.99 1.0327L1420.81 1.07805L1424.47 1.15166L1427.92 1.26245L1431.12 1.41636L1434.1 1.61263L1436.65 1.88402L1438.97 2.19853L1439.61 2.30869V4.78294M1404.95 1L1372.33 1M1372.33 1L1339.72 1M1372.33 1L1382.99 4.78294M1339.72 1L1307.1 1M1339.72 1L1349.84 4.78294M1307.1 1L1274.48 1M1307.1 1L1316.69 4.78294M1274.48 1L1241.87 1M1274.48 1L1283.54 4.78294M1241.87 1L1209.25 1M1241.87 1L1250.39 4.78294M1209.25 1L1176.63 1M1209.25 1L1217.24 4.78294M1176.63 1L1144.02 1M1176.63 1L1184.09 4.78294M1144.02 1L1111.4 1M1144.02 1L1150.94 4.78294M1111.4 1L1078.78 1M1111.4 1L1117.79 4.78294M1078.78 1L1046.17 1M1078.78 1L1084.64 4.78294M1046.17 1L1013.55 1M1046.17 1L1051.49 4.78294M1013.55 1L980.933 1M1013.55 1L1014.73 1.93458L1016.53 3.34948L1018.34 4.78294M980.933 1L948.317 1M980.933 1L981.986 1.93458L985.195 4.78294M948.317 1L915.7 1M948.317 1L952.045 4.78294M915.7 1L883.083 1M915.7 1L916.886 2.40446L918.088 3.82531L918.491 4.30338L918.896 4.78294M883.083 1L850.467 1M883.083 1L884.072 2.40446L884.404 2.87585L884.738 3.34948L885.747 4.78294M850.467 1L817.85 1M850.467 1L852.598 4.78294M817.85 1L818.047 1.46616L818.244 1.93458L819.245 4.30338L819.448 4.78294M817.85 1L785.234 1M785.234 1L752.616 1M785.234 1L786.299 4.78294M752.616 1L720 1M752.616 1L752.814 2.40446L753.15 4.78294M720 1L687.384 1M720 1V4.78294M687.384 1L654.766 1M687.384 1L687.186 2.40446L686.851 4.78294M654.766 1L622.15 1M654.766 1L653.701 4.78294M622.15 1L621.953 1.46616L621.756 1.93458L620.755 4.30338L620.552 4.78294M622.15 1L589.534 1M589.534 1L556.916 1M589.534 1L587.673 4.30338L587.403 4.78294M556.916 1L524.3 1M556.916 1L555.928 2.40446L555.596 2.87585L554.927 3.82531L554.591 4.30338L554.253 4.78294M524.3 1L491.684 1M524.3 1L523.114 2.40446L521.913 3.82531L521.509 4.30338L521.104 4.78294M491.684 1L459.067 1M491.684 1L487.955 4.78294M459.067 1L426.45 1M459.067 1L458.015 1.93458L454.806 4.78294M426.45 1L393.833 1M426.45 1L421.656 4.78294M393.833 1L361.217 1M393.833 1L388.507 4.78294M361.217 1L328.6 1M361.217 1L355.357 4.78294M328.6 1L295.983 1M328.6 1L322.208 4.78294M295.983 1L263.367 1M295.983 1L289.059 4.78294M263.367 1L230.751 1M263.367 1L255.909 4.78294M230.751 1L198.133 1M230.751 1L222.76 4.78294M198.133 1L165.517 1M198.133 1L189.61 4.78294M165.517 1L132.9 1M165.517 1L156.461 4.78294M132.9 1L100.283 1M132.9 1L123.312 4.78294M100.283 1L67.6668 1M100.283 1L90.1629 4.78294M67.6668 1L35.0504 1M67.6668 1L57.0136 4.78294M35.0504 1L30.9801 1.00147L26.9517 1.00967L23.0074 1.0327L19.1867 1.07805L15.5316 1.15166L12.0812 1.26245L8.87672 1.41636L5.90232 1.61263L3.34995 1.88402L1.0262 2.19853L0.387546 2.30871L0.387546 4.78294M35.0504 1L23.8642 4.78294M90.1629 4.78294L123.312 4.78294M90.1629 4.78294L57.0136 4.78294M90.1629 4.78294L79.7053 8.6908M123.312 4.78294L113.405 8.6908M123.312 4.78294L156.461 4.78294M222.76 4.78294L255.909 4.78294M222.76 4.78294L189.61 4.78294M222.76 4.78294L220.722 5.74801L214.505 8.6908M255.909 4.78294L248.204 8.6908M255.909 4.78294L289.059 4.78294M355.357 4.78294L388.507 4.78294M355.357 4.78294L322.208 4.78294M355.357 4.78294L353.863 5.74801L353.11 6.23278L349.303 8.6908M388.507 4.78294L387.828 5.26399L387.148 5.74801L383.003 8.6908M388.507 4.78294L421.656 4.78294M487.955 4.78294L487.48 5.26399L484.102 8.6908M487.955 4.78294L521.104 4.78294M487.955 4.78294L454.806 4.78294M521.104 4.78294L520.289 5.74801L519.878 6.23278L519.467 6.72052L517.802 8.6908M521.104 4.78294L554.253 4.78294M620.552 4.78294L653.701 4.78294M620.552 4.78294L587.403 4.78294M620.552 4.78294L618.901 8.6908M653.701 4.78294L653.566 5.26399L653.43 5.74801L653.293 6.23278L652.879 7.7012L652.601 8.6908M653.701 4.78294L686.851 4.78294M753.15 4.78294L786.299 4.78294M753.15 4.78294L720 4.78294M753.15 4.78294L753.7 8.6908M786.299 4.78294L786.435 5.26399L786.57 5.74801L786.707 6.23278L787.399 8.6908M786.299 4.78294L819.448 4.78294M885.747 4.78294L918.896 4.78294M885.747 4.78294L852.598 4.78294M885.747 4.78294L886.426 5.74801L887.803 7.7012L888.15 8.19489L888.499 8.6908M918.896 4.78294L919.711 5.74801L920.122 6.23278L920.534 6.72052L922.199 8.6908M918.896 4.78294L952.045 4.78294M1018.34 4.78294L1051.49 4.78294M1018.34 4.78294L985.195 4.78294M1018.34 4.78294L1019.57 5.74801L1020.18 6.23278L1023.3 8.6908M1051.49 4.78294L1052.17 5.26399L1052.85 5.74801L1057 8.6908M1051.49 4.78294L1084.64 4.78294M1150.94 4.78294L1184.09 4.78294M1150.94 4.78294L1117.79 4.78294M1150.94 4.78294L1152.71 5.74801L1153.6 6.23278L1158.1 8.6908M1184.09 4.78294L1191.8 8.6908M1184.09 4.78294L1217.24 4.78294M1283.54 4.78294L1316.69 4.78294M1283.54 4.78294L1250.39 4.78294M1283.54 4.78294L1292.89 8.6908M1316.69 4.78294L1326.6 8.6908M1316.69 4.78294L1349.84 4.78294M0.271359 40.1589H0.387546M33.6366 40.1589L46.2928 35.1662M33.6366 40.1589L20.4955 45.3426M33.6366 40.1589H71.7679M33.6366 40.1589L0.387546 40.1589M46.2928 35.1662L8.86473 35.1662M46.2928 35.1662L58.491 30.3543M46.2928 35.1662H83.7209M8.86473 35.1662L21.7405 30.3543M8.86473 35.1662H0.387546M8.86473 35.1662L0.387546 38.3336M46.1414 21.2345L81.6078 21.2345M46.1414 21.2345L57.7137 16.9095M46.1414 21.2345L10.6758 21.2345M46.1414 21.2345L34.1576 25.7133M81.6078 21.2345L92.5714 16.9095M81.6078 21.2345L70.2552 25.7133M81.6078 21.2345L117.074 21.2345M57.7137 16.9095L92.5714 16.9095M57.7137 16.9095L68.8954 12.731M57.7137 16.9095L22.8567 16.9095M92.5714 16.9095L127.428 16.9095M92.5714 16.9095L103.164 12.731M0.0224927 118.963H0.387546M30.7904 118.963L47.1106 110.685M30.7904 118.963L13.6591 127.652M30.7904 118.963L80.0202 118.963M30.7904 118.963H0.387546M47.1106 110.685L62.676 102.791M47.1106 110.685L95.174 110.685M47.1106 110.685H0.387546M15.7243 102.791L62.676 102.791M15.7243 102.791L31.6472 95.2533M15.7243 102.791H0.387546M15.7243 102.791L0.387546 110.051M46.8655 88.0487L91.7408 88.0487M46.8655 88.0487L61.4257 81.1564M46.8655 88.0487H1.99018M46.8655 88.0487L31.6472 95.2533M91.7408 88.0487L105.331 81.1564M91.7408 88.0487L77.5368 95.2533M91.7408 88.0487H136.617M61.4257 81.1564H105.331M61.4257 81.1564L17.5211 81.1564M61.4257 81.1564L75.3697 74.5556M105.331 81.1564L118.345 74.5556M105.331 81.1564H149.236M101.558 62.1584H142.787M101.558 62.1584L113.87 56.3301M101.558 62.1584L60.3283 62.1584M101.558 62.1584L88.735 68.2284M142.787 62.1584L154.278 56.3301M142.787 62.1584L130.82 68.2284M142.787 62.1584L184.017 62.1584M113.87 56.3301L154.278 56.3301M113.87 56.3301L73.4612 56.3301M113.87 56.3301L125.701 50.7292M154.278 56.3301L165.321 50.7292M154.278 56.3301H194.687M148.03 40.1589H186.162M148.03 40.1589L158.577 35.1662M148.03 40.1589L109.899 40.1589M148.03 40.1589L137.079 45.3426M186.162 40.1589L196.005 35.1662M186.162 40.1589L175.941 45.3426M186.162 40.1589L224.293 40.1589M158.577 35.1662H196.005M158.577 35.1662L121.149 35.1662M158.577 35.1662L168.742 30.3543M196.005 35.1662L205.493 30.3543M196.005 35.1662L233.433 35.1662M188.006 21.2345L223.473 21.2345M188.006 21.2345L197.142 16.9095M188.006 21.2345L152.541 21.2345M188.006 21.2345L178.546 25.7133M223.473 21.2345L231.999 16.9095M223.473 21.2345L214.642 25.7133M223.473 21.2345L258.939 21.2345M197.142 16.9095L231.999 16.9095M197.142 16.9095L205.97 12.731M197.142 16.9095L162.285 16.9095M231.999 16.9095L266.857 16.9095M231.999 16.9095L240.239 12.731M25.6092 262.47L48.5784 246.159M25.6092 262.47L1.01196 279.935M25.6092 262.47H95.0481M25.6092 262.47H0.387546M48.5784 246.159L70.0775 230.894M48.5784 246.159H115.72M48.5784 246.159H0.387546M48.1121 203.118H109.193M48.1121 203.118L67.7403 190.448M48.1121 203.118L27.2658 216.575M48.1121 203.118H0.387546M109.193 203.118L127.036 190.448M109.193 203.118L90.2417 216.575M109.193 203.118L170.274 203.118M67.7403 190.448L127.036 190.448M67.7403 190.448H8.44421M67.7403 190.448L86.2546 178.496M127.036 190.448L143.868 178.496M127.036 190.448H186.333M120.298 156.519H174.817M120.298 156.519L135.985 146.394M120.298 156.519L65.7801 156.519M120.298 156.519L103.746 167.205M174.817 156.519L189.077 146.394M174.817 156.519L159.769 167.205M174.817 156.519H229.335M135.985 146.394H189.077M135.985 146.394L82.8926 146.394M135.985 146.394L150.871 136.784M189.077 146.394L202.611 136.784M189.077 146.394H242.169M178.478 118.963H227.708M178.478 118.963L191.301 110.685M178.478 118.963L129.249 118.963M178.478 118.963L165.018 127.652M227.708 118.963L239.365 110.685M227.708 118.963L215.471 127.652M227.708 118.963H276.937M191.301 110.685H239.365M191.301 110.685L143.238 110.685M191.301 110.685L203.531 102.791M239.365 110.685L250.483 102.791M239.365 110.685H287.428M226.368 88.0487H271.244M226.368 88.0487L237.046 81.1564M226.368 88.0487H181.492M226.368 88.0487L215.208 95.2533M271.244 88.0487L280.951 81.1564M271.244 88.0487L261.098 95.2533M271.244 88.0487L316.119 88.0487M237.046 81.1564H280.951M237.046 81.1564H193.141M237.046 81.1564L247.271 74.5556M280.951 81.1564L290.247 74.5556M280.951 81.1564L324.856 81.1564M266.476 62.1584H307.705M266.476 62.1584L275.504 56.3301M266.476 62.1584L225.246 62.1584M266.476 62.1584L257.073 68.2284M307.705 62.1584L308.75 61.4171L315.913 56.3301M307.705 62.1584L299.157 68.2284M307.705 62.1584L348.935 62.1584M275.504 56.3301H315.913M275.504 56.3301L235.096 56.3301M275.504 56.3301L284.181 50.7292M315.913 56.3301L323.801 50.7292M315.913 56.3301L356.322 56.3301M300.555 40.1589L338.687 40.1589M300.555 40.1589L308.29 35.1662M300.555 40.1589H262.424M300.555 40.1589L292.525 45.3426M338.687 40.1589L345.718 35.1662M338.687 40.1589L335.982 42.0801L331.386 45.3426M338.687 40.1589H376.818M308.29 35.1662L345.718 35.1662M308.29 35.1662H270.862M308.29 35.1662L315.744 30.3543M345.718 35.1662L352.495 30.3543M345.718 35.1662L383.146 35.1662M329.871 21.2345L365.338 21.2345M329.871 21.2345L336.571 16.9095M329.871 21.2345L294.405 21.2345M329.871 21.2345L322.934 25.7133M365.338 21.2345L369.926 17.9772L370.678 17.4418L371.429 16.9095M365.338 21.2345L359.03 25.7133M365.338 21.2345L400.804 21.2345M336.571 16.9095L371.429 16.9095M336.571 16.9095L343.045 12.731M336.571 16.9095L301.714 16.9095M371.429 16.9095L406.286 16.9095M371.429 16.9095L377.313 12.731M50.7679 448.265H146.373M50.7679 448.265L80.8717 417.728M50.7679 448.265L17.6882 481.822M50.7679 448.265L0.387546 448.266M146.373 448.265L172.176 417.728M146.373 448.265L118.019 481.822M146.373 448.265L241.977 448.265M80.8717 417.728H172.176M80.8717 417.728L108.384 389.82M80.8717 417.728H0.387546M172.176 417.728L195.758 389.82M172.176 417.728L263.48 417.728M156.866 340.64L237.314 340.64M156.866 340.64L178.334 318.862M156.866 340.64H76.4184M156.866 340.64L133.625 364.215M237.314 340.64L255.715 318.862M237.314 340.64L217.393 364.215M237.314 340.64H317.761M178.334 318.862L255.715 318.862M178.334 318.862H100.953M178.334 318.862L198.226 298.684M255.715 318.862L272.765 298.684M255.715 318.862H333.096M233.927 262.47H303.365M233.927 262.47L250.005 246.159M233.927 262.47L164.487 262.47M233.927 262.47L216.708 279.935M303.365 262.47L317.147 246.159M303.365 262.47L288.607 279.935M303.365 262.47H372.804M250.005 246.159H317.147M250.005 246.159H182.863M250.005 246.159L265.054 230.894M317.147 246.159L330.047 230.894M317.147 246.159L384.29 246.159M292.435 203.118L353.516 203.118M292.435 203.118L304.926 190.448M292.435 203.118H231.355M292.435 203.118L279.169 216.575M353.516 203.118L364.222 190.448M353.516 203.118L342.145 216.575M353.516 203.118H414.597M304.926 190.448L364.222 190.448M304.926 190.448H245.629M304.926 190.448L316.707 178.496M364.222 190.448L374.321 178.496M364.222 190.448H423.518M338.371 156.519L392.89 156.519M338.371 156.519L348.354 146.394M338.371 156.519H283.853M338.371 156.519L327.838 167.205M392.89 156.519L401.446 146.394M392.89 156.519L383.862 167.205M392.89 156.519H447.409M348.354 146.394H401.446M348.354 146.394L295.262 146.394M348.354 146.394L357.827 136.784M401.446 146.394L409.566 136.784M401.446 146.394H454.539M375.396 118.963L424.625 118.963M375.396 118.963L383.556 110.685M375.396 118.963H326.166M375.396 118.963L366.83 127.652M424.625 118.963L431.619 110.685M424.625 118.963L417.282 127.652M424.625 118.963H473.854M383.556 110.685L431.619 110.685M383.556 110.685H335.492M383.556 110.685L391.338 102.791M431.619 110.685L438.29 102.791M431.619 110.685H479.682M405.871 88.0487L450.747 88.0487M405.871 88.0487L412.666 81.1564M405.871 88.0487H360.995M405.871 88.0487L398.769 95.2533M450.747 88.0487L456.57 81.1564M450.747 88.0487L444.659 95.2533M450.747 88.0487H495.622M412.666 81.1564H456.57M412.666 81.1564L368.76 81.1564M412.666 81.1564L419.173 74.5556M456.57 81.1564L462.148 74.5556M456.57 81.1564H500.476M431.393 62.1584L472.624 62.1584M431.393 62.1584L437.139 56.3301M431.393 62.1584H390.164M431.393 62.1584L425.409 68.2284M472.624 62.1584L471.993 62.9034L467.494 68.2284M472.624 62.1584L477.548 56.3301M472.624 62.1584L513.853 62.1584M437.139 56.3301H477.548M437.139 56.3301L396.731 56.3301M437.139 56.3301L442.661 50.7292M477.548 56.3301L482.281 50.7292M477.548 56.3301L517.957 56.3301M453.081 40.1589H491.212M453.081 40.1589L458.003 35.1662M453.081 40.1589L414.95 40.1589M453.081 40.1589L447.971 45.3426M491.212 40.1589L495.431 35.1662M491.212 40.1589L489.589 42.0801L488.494 43.376L486.832 45.3426M491.212 40.1589L529.343 40.1589M458.003 35.1662L495.431 35.1662M458.003 35.1662L420.575 35.1662M458.003 35.1662L462.746 30.3543M495.431 35.1662L496.973 33.3409L497.99 32.1379L499.497 30.3543M495.431 35.1662H532.859M471.737 21.2345L507.202 21.2345M471.737 21.2345L474.948 17.9772L476 16.9095M471.737 21.2345L436.27 21.2345M471.737 21.2345L467.882 25.1446L467.322 25.7133M507.202 21.2345L509.956 17.9772L510.407 17.4418L510.857 16.9095M507.202 21.2345L505.327 23.4538L503.418 25.7133M507.202 21.2345L542.669 21.2345M476 16.9095L510.857 16.9095M476 16.9095L480.119 12.731M476 16.9095L441.143 16.9095M510.857 16.9095L545.714 16.9095M510.857 16.9095L514.388 12.731M433.186 448.265H528.791M433.186 448.265L446.088 417.728M433.186 448.265H337.582M433.186 448.265L419.009 481.822M528.791 448.265L537.392 417.728M528.791 448.265L519.34 481.822M528.791 448.265H624.396M446.088 417.728H537.392M446.088 417.728H354.784M446.088 417.728L457.879 389.82M537.392 417.728L545.253 389.82M537.392 417.728H628.696M478.657 340.64H559.105M478.657 340.64L487.858 318.862M478.657 340.64H398.209M478.657 340.64L468.696 364.215M559.105 340.64L565.238 318.862M559.105 340.64L552.465 364.215M559.105 340.64H639.553M487.858 318.862H565.238M487.858 318.862H410.477M487.858 318.862L496.383 298.684M565.238 318.862L570.922 298.684M565.238 318.862H642.619M511.683 262.47H581.122M511.683 262.47L518.574 246.159M511.683 262.47H442.244M511.683 262.47L504.304 279.935M581.122 262.47L585.716 246.159M581.122 262.47L576.203 279.935M581.122 262.47H650.561M518.574 246.159L585.716 246.159M518.574 246.159H451.432M518.574 246.159L525.023 230.894M585.716 246.159L590.016 230.894M585.716 246.159H652.858M536.758 203.118L597.838 203.118M536.758 203.118L542.111 190.448M536.758 203.118H475.677M536.758 203.118L531.073 216.575M597.838 203.118L601.407 190.448M597.838 203.118L594.048 216.575M597.838 203.118H658.919M542.111 190.448L601.407 190.448M542.111 190.448H482.815M542.111 190.448L547.16 178.496M601.407 190.448L604.774 178.496M601.407 190.448H660.704M556.445 156.519L610.964 156.519M556.445 156.519L560.723 146.394M556.445 156.519H501.927M556.445 156.519L551.931 167.205M610.964 156.519L613.815 146.394M610.964 156.519L607.954 167.205M610.964 156.519H665.482M560.723 146.394L613.815 146.394M560.723 146.394H507.631M560.723 146.394L564.784 136.784M613.815 146.394L616.522 136.784M613.815 146.394H666.908M572.312 118.963H621.541M572.312 118.963L575.809 110.685M572.312 118.963H523.083M572.312 118.963L568.642 127.652M621.541 118.963L623.873 110.685M621.541 118.963L619.094 127.652M621.541 118.963L670.771 118.963M575.809 110.685H623.873M575.809 110.685H527.746M575.809 110.685L577.079 107.682L579.145 102.791M623.873 110.685L626.097 102.791M623.873 110.685L671.937 110.685M585.373 88.0487H630.249M585.373 88.0487L588.286 81.1564M585.373 88.0487H540.497M585.373 88.0487L583.104 93.422L582.329 95.2533M630.249 88.0487L630.987 85.4286L632.19 81.1564M630.249 88.0487L628.22 95.2533M630.249 88.0487L675.125 88.0487M588.286 81.1564L588.64 80.3155L591.074 74.5556M588.286 81.1564H632.19M588.286 81.1564H544.38M632.19 81.1564L632.897 78.6479L633.129 77.8203L633.362 76.998L634.049 74.5556M632.19 81.1564L676.096 81.1564M596.311 62.1584L637.541 62.1584M596.311 62.1584L597.555 59.2149L597.862 58.4885L598.167 57.765L598.472 57.0461L598.774 56.3301M596.311 62.1584H555.082M596.311 62.1584L593.747 68.2284M637.541 62.1584L638.778 57.765L638.982 57.0461L639.182 56.3301M637.541 62.1584L635.832 68.2284M637.541 62.1584L678.771 62.1584M598.774 56.3301L639.182 56.3301M598.774 56.3301H558.365M598.774 56.3301L600.264 52.8036L600.557 52.1085L601.14 50.7292M639.182 56.3301L640.176 52.8036L640.372 52.1085L640.566 51.417L640.76 50.7292M639.182 56.3301L679.592 56.3301M605.606 40.1589L643.738 40.1589M605.606 40.1589L607.716 35.1662M605.606 40.1589H567.474M605.606 40.1589L605.066 41.4362L604.247 43.376L603.416 45.3426M643.738 40.1589L643.558 40.7961L642.463 44.6838L642.277 45.3426M643.738 40.1589L645.144 35.1662M643.738 40.1589L681.869 40.1589M607.716 35.1662L645.144 35.1662M607.716 35.1662H570.288M607.716 35.1662L609.749 30.3543M645.144 35.1662L645.658 33.3409L645.828 32.7379L645.997 32.1379L646.499 30.3543M645.144 35.1662L682.572 35.1662M613.602 21.2345L649.067 21.2345M613.602 21.2345L614.978 17.9772L615.428 16.9095M613.602 21.2345L578.135 21.2345M613.602 21.2345L612.899 22.8954L612.664 23.4538L612.426 24.0152L611.709 25.7133M649.067 21.2345L649.222 20.6857L649.529 19.595L649.834 18.514L650.285 16.9095M649.067 21.2345L648.442 23.4538L648.285 24.0152L647.966 25.1446L647.806 25.7133M649.067 21.2345L684.534 21.2345M615.428 16.9095L650.285 16.9095M615.428 16.9095L616.976 13.2455L617.194 12.731M615.428 16.9095L580.571 16.9095M650.285 16.9095L650.435 16.3794L650.584 15.8515L650.732 15.3258L650.879 14.8024L651.318 13.2455L651.463 12.731M650.285 16.9095L685.143 16.9095M815.604 448.265H911.209M815.604 448.265L811.304 417.728M815.604 448.265H720M815.604 448.265L820.331 481.822M911.209 448.265L902.608 417.728M911.209 448.265L920.66 481.822M911.209 448.265H1006.81M811.304 417.728H902.608M811.304 417.728H720M811.304 417.728L807.374 389.82M902.608 417.728L894.747 389.82M902.608 417.728H993.912M800.448 340.64H880.896M800.448 340.64L797.381 318.862M800.448 340.64H720M800.448 340.64L803.768 364.215M880.896 340.64L874.762 318.862M880.896 340.64L887.535 364.215M880.896 340.64H961.343M797.381 318.862H874.762M797.381 318.862H720M797.381 318.862L794.539 298.684M874.762 318.862L869.078 298.684M874.762 318.862H952.143M789.439 262.47H858.879M789.439 262.47L787.142 246.159M789.439 262.47H720M789.439 262.47L791.899 279.935M858.879 262.47L854.284 246.159M858.879 262.47L863.797 279.935M858.879 262.47H928.317M787.142 246.159L854.284 246.159M787.142 246.159H720M787.142 246.159L784.992 230.894M854.284 246.159L849.985 230.894M854.284 246.159H921.426M781.081 203.118L842.162 203.118M781.081 203.118L779.296 190.448M781.081 203.118H720M781.081 203.118L782.976 216.575M842.162 203.118L838.593 190.448M842.162 203.118L845.952 216.575M842.162 203.118H903.242M779.296 190.448L838.593 190.448M779.296 190.448H720M779.296 190.448L777.613 178.496M838.593 190.448L835.227 178.496M838.593 190.448H897.889M774.518 156.519L829.036 156.519M774.518 156.519L773.093 146.394M774.518 156.519H720M774.518 156.519L776.023 167.205M829.036 156.519L826.185 146.394M829.036 156.519L832.046 167.205M829.036 156.519H883.555M773.093 146.394L826.185 146.394M773.093 146.394H720M773.093 146.394L771.739 136.784M826.185 146.394L823.478 136.784M826.185 146.394H879.277M769.229 118.963H818.459M769.229 118.963L768.063 110.685M769.229 118.963L720 118.963M769.229 118.963L770.453 127.652M818.459 118.963L816.127 110.685M818.459 118.963L820.906 127.652M818.459 118.963H867.688M768.063 110.685H816.127M768.063 110.685L720 110.685M768.063 110.685L766.952 102.791M816.127 110.685L813.904 102.791M816.127 110.685H864.191M764.875 88.0487H809.752M764.875 88.0487L763.905 81.1564M764.875 88.0487L720 88.0487M764.875 88.0487L765.89 95.2533M809.752 88.0487L808.047 82.0018L807.81 81.1564M809.752 88.0487L811.781 95.2533M809.752 88.0487H854.627M763.905 81.1564L763.787 80.3155L762.975 74.5556M763.905 81.1564H807.81M763.905 81.1564L720 81.1564M807.81 81.1564L807.103 78.6479L806.871 77.8203L806.638 76.998L805.951 74.5556M807.81 81.1564H851.715M761.229 62.1584L802.459 62.1584M761.229 62.1584L760.409 56.3301M761.229 62.1584L720 62.1584M761.229 62.1584L761.546 64.4053L761.653 65.1622L761.759 65.9228L761.975 67.4559L762.085 68.2284M802.459 62.1584L801.222 57.765L800.817 56.3301M802.459 62.1584L804.168 68.2284M802.459 62.1584L843.689 62.1584M760.409 56.3301L800.817 56.3301M760.409 56.3301L720 56.3301M760.409 56.3301L759.62 50.7292M800.817 56.3301L799.825 52.8036L799.628 52.1085L799.434 51.417L799.24 50.7292M800.817 56.3301H841.226M758.131 40.1589L796.263 40.1589M758.131 40.1589L757.428 35.1662M758.131 40.1589L720 40.1589M758.131 40.1589L758.861 45.3426M796.263 40.1589L796.442 40.7961L797.537 44.6838L797.723 45.3426M796.263 40.1589L794.856 35.1662M796.263 40.1589H834.394M757.428 35.1662L794.856 35.1662M757.428 35.1662L720 35.1662M757.428 35.1662L756.751 30.3543M794.856 35.1662L794.342 33.3409L794.173 32.7379L794.003 32.1379L793.501 30.3543M794.856 35.1662H832.284M755.467 21.2345L790.933 21.2345M755.467 21.2345L754.857 16.9095M755.467 21.2345L720 21.2345M755.467 21.2345L756.097 25.7133M790.933 21.2345L790.778 20.6857L790.47 19.595L790.318 19.053L790.015 17.9772L789.865 17.4418L789.714 16.9095M790.933 21.2345L791.558 23.4538L791.715 24.0152L792.034 25.1446L792.194 25.7133M790.933 21.2345L826.398 21.2345M754.857 16.9095L754.783 16.3794L754.708 15.8515L754.634 15.3258L754.269 12.731M754.857 16.9095L789.714 16.9095M754.857 16.9095L720 16.9095M789.714 16.9095L824.572 16.9095M789.714 16.9095L789.416 15.8515L789.268 15.3258L789.121 14.8024L788.682 13.2455L788.537 12.731M1198.02 448.265H1293.63M1198.02 448.265L1176.52 417.728M1198.02 448.265L1102.42 448.265M1198.02 448.265L1221.65 481.822M1293.63 448.265L1267.82 417.728M1293.63 448.265L1321.98 481.822M1293.63 448.265H1389.23M1176.52 417.728H1267.82M1176.52 417.728L1085.22 417.728M1176.52 417.728L1156.87 389.82M1267.82 417.728L1244.24 389.82M1267.82 417.728H1359.13M1122.24 340.64L1202.69 340.64M1122.24 340.64L1106.9 318.862M1122.24 340.64H1041.79M1122.24 340.64L1138.84 364.215M1202.69 340.64L1184.29 318.862M1202.69 340.64L1222.61 364.215M1202.69 340.64H1283.13M1106.9 318.862L1184.29 318.862M1106.9 318.862H1029.52M1106.9 318.862L1092.7 298.684M1184.29 318.862L1167.23 298.684M1184.29 318.862H1261.67M1067.2 262.47H1136.63M1067.2 262.47L1055.71 246.159M1067.2 262.47H997.756M1067.2 262.47L1079.49 279.935M1136.63 262.47L1122.85 246.159M1136.63 262.47L1151.39 279.935M1136.63 262.47L1206.07 262.47M1055.71 246.159H1122.85M1055.71 246.159L988.569 246.159M1055.71 246.159L1044.96 230.894M1122.85 246.159L1109.95 230.894M1122.85 246.159H1189.99M1025.4 203.118L1086.48 203.118M1025.4 203.118L1016.48 190.448M1025.4 203.118H964.323M1025.4 203.118L1034.88 216.575M1086.48 203.118L1075.78 190.448M1086.48 203.118L1097.85 216.575M1086.48 203.118H1147.57M1016.48 190.448L1075.78 190.448M1016.48 190.448H957.185M1016.48 190.448L1008.07 178.496M1075.78 190.448L1065.68 178.496M1075.78 190.448H1135.07M992.591 156.519L1047.11 156.519M992.591 156.519L985.461 146.394M992.591 156.519H938.073M992.591 156.519L1000.12 167.205M1047.11 156.519L1038.55 146.394M1047.11 156.519L1056.14 167.205M1047.11 156.519H1101.63M985.461 146.394H1038.55M985.461 146.394H932.369M985.461 146.394L978.695 136.784M1038.55 146.394L1030.43 136.784M1038.55 146.394L1091.65 146.394M966.146 118.963L1015.38 118.963M966.146 118.963L960.318 110.685M966.146 118.963H916.917M966.146 118.963L972.265 127.652M1015.38 118.963L1008.38 110.685M1015.38 118.963L1022.72 127.652M1015.38 118.963H1064.6M960.318 110.685L1008.38 110.685M960.318 110.685H912.254M960.318 110.685L954.759 102.791M1008.38 110.685L1001.71 102.791M1008.38 110.685H1056.44M944.378 88.0487L945 88.932L945.626 89.8197L949.451 95.2533M944.378 88.0487L989.254 88.0487M944.378 88.0487L939.525 81.1564M944.378 88.0487H899.503M989.254 88.0487L983.43 81.1564M989.254 88.0487L995.341 95.2533M989.254 88.0487H1034.13M939.525 81.1564H983.43M939.525 81.1564H895.62M939.525 81.1564L934.877 74.5556M983.43 81.1564L977.852 74.5556M983.43 81.1564L1027.33 81.1564M926.147 62.1584L967.377 62.1584M926.147 62.1584L922.043 56.3301M926.147 62.1584L884.918 62.1584M926.147 62.1584L930.422 68.2284M967.377 62.1584L964.276 58.4885L962.453 56.3301M967.377 62.1584L972.506 68.2284M967.377 62.1584H1008.61M922.043 56.3301L962.453 56.3301M922.043 56.3301L881.635 56.3301M922.043 56.3301L918.585 51.417L918.1 50.7292M962.453 56.3301L957.72 50.7292M962.453 56.3301H1002.86M910.657 40.1589H948.788M910.657 40.1589L909.766 38.8927L907.141 35.1662M910.657 40.1589L872.526 40.1589M910.657 40.1589L911.556 41.4362L913.382 44.0281L914.307 45.3426M948.788 40.1589L944.569 35.1662M948.788 40.1589L950.411 42.0801L951.506 43.376L953.168 45.3426M948.788 40.1589L986.919 40.1589M907.141 35.1662H944.569M907.141 35.1662L869.712 35.1662M907.141 35.1662L904.588 31.5402L903.752 30.3543M944.569 35.1662L943.027 33.3409L942.01 32.1379L940.503 30.3543M944.569 35.1662L981.998 35.1662M897.331 21.2345L932.798 21.2345M897.331 21.2345L895.415 18.514L894.286 16.9095M897.331 21.2345L861.865 21.2345M897.331 21.2345L900.485 25.7133M932.798 21.2345L930.044 17.9772L929.593 17.4418L929.143 16.9095M932.798 21.2345L934.673 23.4538L936.582 25.7133M932.798 21.2345L968.263 21.2345M894.286 16.9095L929.143 16.9095M894.286 16.9095L892.802 14.8024L892.07 13.7622L891.706 13.2455L891.344 12.731M894.286 16.9095L859.429 16.9095M929.143 16.9095L964 16.9095M929.143 16.9095L925.612 12.731M1416.43 318.862H1339.05M1416.43 318.862L1390.85 298.684M1416.43 318.862H1439.61M1416.43 318.862L1439.61 337.155M1344.95 262.47H1414.39M1344.95 262.47L1324.28 246.159M1344.95 262.47H1275.51M1344.95 262.47L1367.09 279.935M1414.39 262.47L1391.42 246.159M1414.39 262.47L1438.99 279.935M1414.39 262.47H1439.61M1324.28 246.159H1391.42M1324.28 246.159L1257.14 246.159M1324.28 246.159L1304.93 230.894M1391.42 246.159L1369.92 230.894M1391.42 246.159H1439.61M1269.73 203.118L1330.81 203.118M1269.73 203.118L1253.67 190.448M1269.73 203.118H1208.65M1269.73 203.118L1286.78 216.575M1330.81 203.118L1312.96 190.448M1330.81 203.118L1349.76 216.575M1330.81 203.118H1391.89M1253.67 190.448L1312.96 190.448M1253.67 190.448H1194.37M1253.67 190.448L1238.52 178.496M1312.96 190.448L1296.13 178.496M1312.96 190.448H1372.26M1210.66 156.519H1265.18M1210.66 156.519L1197.83 146.394M1210.66 156.519H1156.15M1210.66 156.519L1224.21 167.205M1265.18 156.519L1250.92 146.394M1265.18 156.519L1280.23 167.205M1265.18 156.519L1319.7 156.519M1197.83 146.394H1250.92M1197.83 146.394H1144.74M1197.83 146.394L1185.65 136.784M1250.92 146.394L1237.39 136.784M1250.92 146.394L1304.01 146.394M1163.06 118.963H1212.29M1163.06 118.963L1152.57 110.685M1163.06 118.963H1113.83M1163.06 118.963L1174.08 127.652M1212.29 118.963L1200.64 110.685M1212.29 118.963L1224.53 127.652M1212.29 118.963L1261.52 118.963M1152.57 110.685H1200.64M1152.57 110.685H1104.51M1152.57 110.685L1142.57 102.791M1200.64 110.685L1189.52 102.791M1200.64 110.685L1248.7 110.685M1123.88 88.0487H1168.76M1123.88 88.0487L1115.14 81.1564M1123.88 88.0487L1079.01 88.0487M1123.88 88.0487L1133.01 95.2533M1168.76 88.0487L1159.05 81.1564M1168.76 88.0487L1178.9 95.2533M1168.76 88.0487H1213.63M1115.14 81.1564H1159.05M1115.14 81.1564L1071.24 81.1564M1115.14 81.1564L1106.78 74.5556M1159.05 81.1564L1149.75 74.5556M1159.05 81.1564H1202.95M1091.07 62.1584L1132.29 62.1584M1091.07 62.1584L1083.68 56.3301M1091.07 62.1584L1049.84 62.1584M1091.07 62.1584L1098.76 68.2284M1132.29 62.1584L1124.09 56.3301M1132.29 62.1584L1140.84 68.2284M1132.29 62.1584H1173.52M1083.68 56.3301H1124.09M1083.68 56.3301L1043.27 56.3301M1083.68 56.3301L1076.58 50.7292M1124.09 56.3301L1116.2 50.7292M1124.09 56.3301L1164.5 56.3301M1063.18 40.1589L1101.31 40.1589M1063.18 40.1589L1056.85 35.1662M1063.18 40.1589H1025.05M1063.18 40.1589L1064.8 41.4362L1065.62 42.0801L1069.75 45.3426M1101.31 40.1589L1094.28 35.1662M1101.31 40.1589L1108.61 45.3426M1101.31 40.1589L1139.44 40.1589M1056.85 35.1662L1094.28 35.1662M1056.85 35.1662H1019.43M1056.85 35.1662L1050.76 30.3543M1094.28 35.1662L1087.51 30.3543M1094.28 35.1662L1131.71 35.1662M1039.2 21.2345L1074.66 21.2345M1039.2 21.2345L1033.71 16.9095M1039.2 21.2345L1003.73 21.2345M1039.2 21.2345L1044.87 25.7133M1074.66 21.2345L1070.07 17.9772L1069.32 17.4418L1068.57 16.9095M1074.66 21.2345L1080.97 25.7133M1074.66 21.2345L1110.13 21.2345M1033.71 16.9095L1068.57 16.9095M1033.71 16.9095L1029.07 13.2455L1028.42 12.731M1033.71 16.9095L998.857 16.9095M1068.57 16.9095L1103.43 16.9095M1068.57 16.9095L1062.69 12.731M1428.74 156.519L1410.2 146.394M1428.74 156.519H1374.22M1428.74 156.519L1439.61 162.459M1428.74 156.519H1439.61M1410.2 146.394H1357.11M1410.2 146.394L1392.61 136.784M1410.2 146.394H1439.61M1359.98 118.963H1409.21M1359.98 118.963L1344.83 110.685M1359.98 118.963L1310.75 118.963M1359.98 118.963L1375.89 127.652M1409.21 118.963L1392.89 110.685M1409.21 118.963L1426.34 127.652M1409.21 118.963H1439.61M1344.83 110.685H1392.89M1344.83 110.685L1296.76 110.685M1344.83 110.685L1330.37 102.791M1392.89 110.685L1377.32 102.791M1392.89 110.685H1439.61M1303.38 88.0487L1348.26 88.0487M1303.38 88.0487L1290.76 81.1564M1303.38 88.0487H1258.51M1303.38 88.0487L1316.57 95.2533M1348.26 88.0487L1334.67 81.1564M1348.26 88.0487L1362.46 95.2533M1348.26 88.0487H1393.13M1290.76 81.1564L1334.67 81.1564M1290.76 81.1564H1246.86M1290.76 81.1564L1278.68 74.5556M1334.67 81.1564L1321.66 74.5556M1334.67 81.1564H1378.57M1255.98 62.1584H1297.21M1255.98 62.1584L1245.31 56.3301M1255.98 62.1584L1214.75 62.1584M1255.98 62.1584L1267.1 68.2284M1297.21 62.1584L1285.72 56.3301M1297.21 62.1584L1309.18 68.2284M1297.21 62.1584L1338.44 62.1584M1245.31 56.3301L1285.72 56.3301M1245.31 56.3301H1204.9M1245.31 56.3301L1235.06 50.7292M1285.72 56.3301L1274.68 50.7292M1285.72 56.3301L1326.13 56.3301M1215.71 40.1589L1253.84 40.1589M1215.71 40.1589L1206.57 35.1662M1215.71 40.1589L1177.58 40.1589M1215.71 40.1589L1225.2 45.3426M1253.84 40.1589L1243.99 35.1662M1253.84 40.1589L1264.06 45.3426M1253.84 40.1589H1291.97M1206.57 35.1662H1243.99M1206.57 35.1662L1169.14 35.1662M1206.57 35.1662L1197.76 30.3543M1243.99 35.1662L1234.51 30.3543M1243.99 35.1662L1281.42 35.1662M1181.06 21.2345L1216.53 21.2345M1181.06 21.2345L1173.14 16.9095M1181.06 21.2345L1145.59 21.2345M1181.06 21.2345L1189.26 25.7133M1216.53 21.2345L1208 16.9095M1216.53 21.2345L1225.36 25.7133M1216.53 21.2345L1251.99 21.2345M1173.14 16.9095L1208 16.9095M1173.14 16.9095L1165.49 12.731M1173.14 16.9095L1138.29 16.9095M1208 16.9095L1242.86 16.9095M1208 16.9095L1199.76 12.731M1420.9 62.1584L1406.95 56.3301M1420.9 62.1584H1379.67M1420.9 62.1584L1435.43 68.2284M1420.9 62.1584L1439.61 62.1584M1406.95 56.3301H1366.54M1406.95 56.3301L1393.54 50.7292M1406.95 56.3301L1439.61 56.3301M1368.23 40.1589H1406.36M1368.23 40.1589L1356.28 35.1662M1368.23 40.1589L1330.1 40.1589M1368.23 40.1589L1380.64 45.3426M1406.36 40.1589L1393.71 35.1662M1406.36 40.1589L1419.5 45.3426M1406.36 40.1589L1439.61 40.1589M1356.28 35.1662L1393.71 35.1662M1356.28 35.1662H1318.85M1356.28 35.1662L1344.76 30.3543M1393.71 35.1662L1381.51 30.3543M1393.71 35.1662L1431.14 35.1662M1322.93 21.2345L1358.39 21.2345M1322.93 21.2345L1312.57 16.9095M1322.93 21.2345L1287.46 21.2345M1322.93 21.2345L1333.65 25.7133M1358.39 21.2345L1347.43 16.9095M1358.39 21.2345L1369.74 25.7133M1358.39 21.2345L1393.86 21.2345M1312.57 16.9095L1347.43 16.9095M1312.57 16.9095L1302.57 12.731M1312.57 16.9095L1277.71 16.9095M1347.43 16.9095L1382.29 16.9095M1347.43 16.9095L1336.84 12.731M1369.74 25.7133L1381.51 30.3543M1369.74 25.7133L1405.84 25.7133M1369.74 25.7133L1333.65 25.7133M1393.86 21.2345L1382.29 16.9095M1393.86 21.2345L1405.84 25.7133M1393.86 21.2345L1429.32 21.2345M1382.29 16.9095L1417.14 16.9095M1382.29 16.9095L1371.1 12.731M1336.84 12.731L1302.57 12.731M1336.84 12.731L1371.1 12.731M1336.84 12.731L1326.6 8.6908M1405.84 25.7133L1418.26 30.3543M1405.84 25.7133L1439.61 25.7133M1429.32 21.2345L1417.14 16.9095M1429.32 21.2345L1439.61 24.8869M1429.32 21.2345L1439.61 21.2345M1417.14 16.9095L1405.37 12.731M1417.14 16.9095L1439.61 16.9095M1371.1 12.731L1405.37 12.731M1371.1 12.731L1360.3 8.6908M1405.37 12.731L1393.99 8.6908M1405.37 12.731L1439.61 12.731M1381.51 30.3543L1418.26 30.3543M1381.51 30.3543L1344.76 30.3543M1431.14 35.1662L1418.26 30.3543M1431.14 35.1662L1439.61 38.3337M1431.14 35.1662H1439.61M1418.26 30.3543L1439.61 30.3543M1344.76 30.3543L1308.01 30.3543M1344.76 30.3543L1333.65 25.7133M1333.65 25.7133L1297.55 25.7133M1419.5 45.3426L1433.16 50.7292M1419.5 45.3426H1380.64M1419.5 45.3426L1439.61 45.3426M1439.73 40.1589H1439.61M1433.16 50.7292L1393.54 50.7292M1433.16 50.7292L1439.61 53.275M1433.16 50.7292H1439.61M1393.54 50.7292L1353.92 50.7292M1393.54 50.7292L1380.64 45.3426M1380.64 45.3426L1341.78 45.3426M1225.36 25.7133L1234.51 30.3543M1225.36 25.7133L1261.45 25.7133M1225.36 25.7133L1189.26 25.7133M1251.99 21.2345L1242.86 16.9095M1251.99 21.2345L1261.45 25.7133M1251.99 21.2345L1287.46 21.2345M1242.86 16.9095L1277.71 16.9095M1242.86 16.9095L1234.03 12.731M1199.76 12.731L1234.03 12.731M1199.76 12.731L1191.8 8.6908M1199.76 12.731L1165.49 12.731M1261.45 25.7133L1271.26 30.3543M1261.45 25.7133L1297.55 25.7133M1287.46 21.2345L1277.71 16.9095M1287.46 21.2345L1297.55 25.7133M1277.71 16.9095L1268.3 12.731M1234.03 12.731L1268.3 12.731M1234.03 12.731L1225.5 8.6908M1297.55 25.7133L1308.01 30.3543M1302.57 12.731L1268.3 12.731M1302.57 12.731L1292.89 8.6908M1268.3 12.731L1259.2 8.6908M1234.51 30.3543L1271.26 30.3543M1234.51 30.3543L1197.76 30.3543M1281.42 35.1662L1271.26 30.3543M1281.42 35.1662L1291.97 40.1589M1281.42 35.1662L1318.85 35.1662M1271.26 30.3543L1308.01 30.3543M1197.76 30.3543L1161.01 30.3543M1197.76 30.3543L1189.26 25.7133M1308.01 30.3543L1318.85 35.1662M1189.26 25.7133L1153.16 25.7133M1291.97 40.1589L1302.92 45.3426M1291.97 40.1589L1330.1 40.1589M1318.85 35.1662L1330.1 40.1589M1330.1 40.1589L1341.78 45.3426M1264.06 45.3426L1274.68 50.7292M1264.06 45.3426H1302.92M1264.06 45.3426L1225.2 45.3426M1302.92 45.3426L1314.3 50.7292M1302.92 45.3426L1341.78 45.3426M1341.78 45.3426L1353.92 50.7292M1274.68 50.7292L1314.3 50.7292M1274.68 50.7292L1235.06 50.7292M1326.13 56.3301L1314.3 50.7292M1326.13 56.3301L1338.44 62.1584M1326.13 56.3301L1366.54 56.3301M1314.3 50.7292H1353.92M1235.06 50.7292H1195.44M1235.06 50.7292L1225.2 45.3426M1353.92 50.7292L1366.54 56.3301M1225.2 45.3426L1186.34 45.3426M1338.44 62.1584L1351.27 68.2284M1338.44 62.1584L1379.67 62.1584M1366.54 56.3301L1379.67 62.1584M1379.67 62.1584L1393.35 68.2284M1309.18 68.2284L1321.66 74.5556M1309.18 68.2284L1351.27 68.2284M1309.18 68.2284H1267.1M1351.27 68.2284L1364.63 74.5556M1351.27 68.2284H1393.35M1393.35 68.2284L1407.61 74.5556M1393.35 68.2284H1435.43M1435.43 68.2284H1439.61M1435.43 68.2284L1439.61 69.9736M1321.66 74.5556L1364.63 74.5556M1321.66 74.5556H1278.68M1378.57 81.1564L1364.63 74.5556M1378.57 81.1564L1393.13 88.0487M1378.57 81.1564H1422.48M1364.63 74.5556H1407.61M1278.68 74.5556H1235.7M1278.68 74.5556L1267.1 68.2284M1407.61 74.5556L1422.48 81.1564M1407.61 74.5556H1439.61M1267.1 68.2284H1225.01M1393.13 88.0487L1408.35 95.2533M1393.13 88.0487H1438.01M1422.48 81.1564L1438.01 88.0487M1422.48 81.1564H1439.61M1439.84 74.5556H1439.61M1438.01 88.0487L1439.61 88.76M1438.01 88.0487H1439.61M1362.46 95.2533L1377.32 102.791M1362.46 95.2533H1408.35M1362.46 95.2533L1316.57 95.2533M1408.35 95.2533L1424.28 102.791M1408.35 95.2533H1439.61M1440 88.932L1439.61 88.76M1377.32 102.791H1424.28M1377.32 102.791L1330.37 102.791M1424.28 102.791H1439.61M1424.28 102.791L1439.61 110.051M1330.37 102.791H1283.42M1330.37 102.791L1316.57 95.2533M1316.57 95.2533H1270.68M1426.34 127.652H1375.89M1426.34 127.652L1439.61 134.383M1426.34 127.652H1439.61M1439.98 118.963H1439.61M1375.89 127.652L1325.43 127.652M1375.89 127.652L1392.61 136.784M1439.76 134.458L1439.61 134.383M1080.97 25.7133L1087.51 30.3543M1080.97 25.7133L1117.07 25.7133M1080.97 25.7133L1044.87 25.7133M1110.13 21.2345L1103.43 16.9095M1110.13 21.2345L1117.07 25.7133M1110.13 21.2345L1145.59 21.2345M1103.43 16.9095L1138.29 16.9095M1103.43 16.9095L1096.96 12.731M1062.69 12.731L1096.96 12.731M1062.69 12.731L1060.53 11.2001L1057 8.6908M1062.69 12.731L1028.42 12.731M1117.07 25.7133L1124.26 30.3543M1117.07 25.7133L1153.16 25.7133M1145.59 21.2345L1138.29 16.9095M1145.59 21.2345L1153.16 25.7133M1138.29 16.9095L1131.22 12.731M1096.96 12.731L1131.22 12.731M1096.96 12.731L1090.7 8.6908M1153.16 25.7133L1161.01 30.3543M1165.49 12.731L1158.1 8.6908M1165.49 12.731L1131.22 12.731M1131.22 12.731L1130.36 12.218L1128.64 11.2001L1124.4 8.6908M1087.51 30.3543L1124.26 30.3543M1087.51 30.3543L1050.76 30.3543M1131.71 35.1662L1124.26 30.3543M1131.71 35.1662L1139.44 40.1589M1131.71 35.1662H1169.14M1124.26 30.3543L1161.01 30.3543M1050.76 30.3543L1014 30.3543M1050.76 30.3543L1044.87 25.7133M1161.01 30.3543L1169.14 35.1662M1044.87 25.7133L1008.78 25.7133M1139.44 40.1589L1147.48 45.3426M1139.44 40.1589H1177.58M1169.14 35.1662L1170.18 35.7796L1177.58 40.1589M1177.58 40.1589L1186.34 45.3426M1108.61 45.3426L1109.55 46.005L1116.2 50.7292M1108.61 45.3426L1147.48 45.3426M1108.61 45.3426L1069.75 45.3426M1147.48 45.3426L1155.82 50.7292M1147.48 45.3426H1186.34M1186.34 45.3426L1195.44 50.7292M1116.2 50.7292L1155.82 50.7292M1116.2 50.7292H1076.58M1164.5 56.3301L1155.82 50.7292M1164.5 56.3301L1173.52 62.1584M1164.5 56.3301L1204.9 56.3301M1155.82 50.7292L1195.44 50.7292M1076.58 50.7292L1036.96 50.7292M1076.58 50.7292L1069.75 45.3426M1195.44 50.7292L1204.9 56.3301M1069.75 45.3426H1030.89M1173.52 62.1584L1182.93 68.2284M1173.52 62.1584L1214.75 62.1584M1204.9 56.3301L1214.75 62.1584M1214.75 62.1584L1225.01 68.2284M1140.84 68.2284L1149.75 74.5556M1140.84 68.2284H1182.93M1140.84 68.2284L1098.76 68.2284M1182.93 68.2284L1192.73 74.5556M1182.93 68.2284L1225.01 68.2284M1225.01 68.2284L1235.7 74.5556M1149.75 74.5556H1192.73M1149.75 74.5556H1106.78M1202.95 81.1564L1192.73 74.5556M1202.95 81.1564L1213.63 88.0487M1202.95 81.1564L1246.86 81.1564M1192.73 74.5556L1235.7 74.5556M1106.78 74.5556L1063.8 74.5556M1106.78 74.5556L1098.76 68.2284M1235.7 74.5556L1246.86 81.1564M1098.76 68.2284H1056.67M1213.63 88.0487L1224.79 95.2533M1213.63 88.0487L1258.51 88.0487M1246.86 81.1564L1258.51 88.0487M1258.51 88.0487L1270.68 95.2533M1178.9 95.2533L1189.52 102.791M1178.9 95.2533L1224.79 95.2533M1178.9 95.2533H1133.01M1224.79 95.2533L1236.47 102.791M1224.79 95.2533H1270.68M1270.68 95.2533L1283.42 102.791M1189.52 102.791L1236.47 102.791M1189.52 102.791H1142.57M1248.7 110.685L1236.47 102.791M1248.7 110.685L1261.52 118.963M1248.7 110.685H1296.76M1236.47 102.791H1283.42M1142.57 102.791L1095.61 102.791M1142.57 102.791L1133.01 95.2533M1283.42 102.791L1296.76 110.685M1133.01 95.2533L1087.12 95.2533M1261.52 118.963L1274.98 127.652M1261.52 118.963H1310.75M1296.76 110.685L1310.75 118.963M1310.75 118.963L1325.43 127.652M1224.53 127.652L1237.39 136.784M1224.53 127.652H1274.98M1224.53 127.652L1174.08 127.652M1274.98 127.652L1289.13 136.784M1274.98 127.652H1325.43M1325.43 127.652L1340.87 136.784M1237.39 136.784L1289.13 136.784M1237.39 136.784H1185.65M1304.01 146.394L1289.13 136.784M1304.01 146.394L1319.7 156.519M1304.01 146.394H1357.11M1289.13 136.784H1340.87M1185.65 136.784H1133.91M1185.65 136.784L1174.08 127.652M1340.87 136.784L1357.11 146.394M1340.87 136.784H1392.61M1174.08 127.652H1123.62M1319.7 156.519L1336.25 167.205M1319.7 156.519H1374.22M1357.11 146.394L1374.22 156.519M1392.61 136.784H1439.61M1374.22 156.519L1392.28 167.205M1280.23 167.205L1296.13 178.496M1280.23 167.205H1336.25M1280.23 167.205L1224.21 167.205M1336.25 167.205L1353.75 178.496M1336.25 167.205H1392.28M1392.28 167.205L1411.36 178.496M1392.28 167.205H1439.61M1296.13 178.496H1353.75M1296.13 178.496L1238.52 178.496M1372.26 190.448L1353.75 178.496M1372.26 190.448L1391.89 203.118M1372.26 190.448H1431.56M1353.75 178.496H1411.36M1238.52 178.496H1180.91M1238.52 178.496L1224.21 167.205M1411.36 178.496L1431.56 190.448M1411.36 178.496H1439.61M1224.21 167.205H1168.18M1391.89 203.118L1412.73 216.575M1391.89 203.118H1439.61M1431.56 190.448H1439.61M1431.56 190.448L1439.61 195.215M1349.76 216.575L1369.92 230.894M1349.76 216.575H1412.73M1349.76 216.575H1286.78M1412.73 216.575L1434.92 230.894M1412.73 216.575H1439.61M1369.92 230.894H1434.92M1369.92 230.894H1304.93M1434.92 230.894L1439.61 233.926M1434.92 230.894H1439.61M1304.93 230.894L1239.94 230.894M1304.93 230.894L1286.78 216.575M1286.78 216.575L1223.81 216.575M1438.99 279.935H1367.09M1438.99 279.935H1439.61M1438.99 279.935L1439.61 280.379M1367.09 279.935H1295.19M1367.09 279.935L1390.85 298.684M936.582 25.7133L938.036 27.4338L938.525 28.013L940.503 30.3543M936.582 25.7133L972.679 25.7133M936.582 25.7133L900.485 25.7133M968.263 21.2345L965.052 17.9772L964 16.9095M968.263 21.2345L972.118 25.1446L972.679 25.7133M968.263 21.2345L1003.73 21.2345M964 16.9095L998.857 16.9095M964 16.9095L959.881 12.731M925.612 12.731L959.881 12.731M925.612 12.731L924.318 11.2001L922.199 8.6908M925.612 12.731L891.344 12.731M972.679 25.7133L973.807 26.8576L977.254 30.3543M972.679 25.7133L1008.78 25.7133M1003.73 21.2345L998.857 16.9095M1003.73 21.2345L1008.78 25.7133M998.857 16.9095L995.311 13.7622L994.149 12.731M959.881 12.731L994.149 12.731M959.881 12.731L955.898 8.6908M1008.78 25.7133L1014 30.3543M1028.42 12.731L1027.77 12.218L1023.3 8.6908M1028.42 12.731L994.149 12.731M994.149 12.731L992.424 11.2001L989.598 8.6908M940.503 30.3543L977.254 30.3543M940.503 30.3543L903.752 30.3543M981.998 35.1662L977.254 30.3543M981.998 35.1662L986.919 40.1589M981.998 35.1662L1019.43 35.1662M977.254 30.3543L1014 30.3543M903.752 30.3543L867.002 30.3543M903.752 30.3543L900.485 25.7133M1014 30.3543L1019.43 35.1662M900.485 25.7133L864.388 25.7133M986.919 40.1589L990.09 43.376L990.734 44.0281L992.029 45.3426M986.919 40.1589L1025.05 40.1589M1019.43 35.1662L1025.05 40.1589M1025.05 40.1589L1030.89 45.3426M953.168 45.3426L957.72 50.7292M953.168 45.3426L992.029 45.3426M953.168 45.3426H914.307M992.029 45.3426L997.34 50.7292M992.029 45.3426L1030.89 45.3426M1030.89 45.3426L1036.96 50.7292M957.72 50.7292H997.34M957.72 50.7292L918.1 50.7292M1002.86 56.3301L999.384 52.8036L998.7 52.1085L997.34 50.7292M1002.86 56.3301L1008.61 62.1584M1002.86 56.3301L1043.27 56.3301M997.34 50.7292L1036.96 50.7292M918.1 50.7292L878.48 50.7292M918.1 50.7292L914.307 45.3426M1036.96 50.7292L1043.27 56.3301M914.307 45.3426L875.445 45.3426M1008.61 62.1584L1014.59 68.2284M1008.61 62.1584L1049.84 62.1584M1043.27 56.3301L1049.84 62.1584M1049.84 62.1584L1056.67 68.2284M972.506 68.2284L975.151 71.3585L975.821 72.1518L977.852 74.5556M972.506 68.2284L1014.59 68.2284M972.506 68.2284H930.422M1014.59 68.2284L1020.83 74.5556M1014.59 68.2284H1056.67M1056.67 68.2284L1063.8 74.5556M977.852 74.5556L1020.83 74.5556M977.852 74.5556H934.877M1027.33 81.1564L1020.83 74.5556M1027.33 81.1564L1034.13 88.0487M1027.33 81.1564H1071.24M1020.83 74.5556H1063.8M934.877 74.5556H891.901M934.877 74.5556L933.745 72.9489L930.422 68.2284M1063.8 74.5556L1071.24 81.1564M930.422 68.2284H888.338M1034.13 88.0487L1041.23 95.2533M1034.13 88.0487H1079.01M1071.24 81.1564L1079.01 88.0487M1079.01 88.0487L1087.12 95.2533M995.341 95.2533L1001.71 102.791M995.341 95.2533H1041.23M995.341 95.2533L949.451 95.2533M1041.23 95.2533L1048.66 102.791M1041.23 95.2533H1087.12M1087.12 95.2533L1095.61 102.791M1001.71 102.791H1048.66M1001.71 102.791L954.759 102.791M1056.44 110.685L1048.66 102.791M1056.44 110.685L1064.6 118.963M1056.44 110.685L1104.51 110.685M1048.66 102.791H1095.61M954.759 102.791H907.807M954.759 102.791L949.451 95.2533M1095.61 102.791L1104.51 110.685M949.451 95.2533H903.561M1064.6 118.963L1073.17 127.652M1064.6 118.963L1113.83 118.963M1104.51 110.685L1113.83 118.963M1113.83 118.963L1123.62 127.652M1022.72 127.652L1030.43 136.784M1022.72 127.652H1073.17M1022.72 127.652L972.265 127.652M1073.17 127.652L1082.17 136.784M1073.17 127.652L1123.62 127.652M1123.62 127.652L1133.91 136.784M1030.43 136.784L1082.17 136.784M1030.43 136.784H978.695M1091.65 146.394L1082.17 136.784M1091.65 146.394L1101.63 156.519M1091.65 146.394H1144.74M1082.17 136.784H1133.91M978.695 136.784H926.956M978.695 136.784L972.265 127.652M1133.91 136.784L1144.74 146.394M972.265 127.652H921.812M1101.63 156.519L1112.16 167.205M1101.63 156.519H1156.15M1144.74 146.394L1156.15 156.519M1156.15 156.519L1168.18 167.205M1056.14 167.205L1065.68 178.496M1056.14 167.205H1112.16M1056.14 167.205L1000.12 167.205M1112.16 167.205L1123.29 178.496M1112.16 167.205H1168.18M1168.18 167.205L1180.91 178.496M1065.68 178.496H1123.29M1065.68 178.496L1008.07 178.496M1135.07 190.448L1123.29 178.496M1135.07 190.448L1147.57 203.118M1135.07 190.448H1194.37M1123.29 178.496H1180.91M1008.07 178.496H950.453M1008.07 178.496L1000.12 167.205M1180.91 178.496L1194.37 190.448M1000.12 167.205H944.093M1147.57 203.118L1160.83 216.575M1147.57 203.118H1208.65M1194.37 190.448L1208.65 203.118M1208.65 203.118L1223.81 216.575M1097.85 216.575L1109.95 230.894M1097.85 216.575H1160.83M1097.85 216.575L1034.88 216.575M1160.83 216.575L1174.95 230.894M1160.83 216.575H1223.81M1223.81 216.575L1239.94 230.894M1109.95 230.894H1174.95M1109.95 230.894H1044.96M1189.99 246.159L1174.95 230.894M1189.99 246.159L1206.07 262.47M1189.99 246.159H1257.14M1174.95 230.894H1239.94M1044.96 230.894L979.969 230.894M1044.96 230.894L1034.88 216.575M1239.94 230.894L1257.14 246.159M1034.88 216.575H971.903M1206.07 262.47L1223.29 279.935M1206.07 262.47H1275.51M1257.14 246.159L1275.51 262.47M1275.51 262.47L1295.19 279.935M1151.39 279.935L1167.23 298.684M1151.39 279.935L1223.29 279.935M1151.39 279.935H1079.49M1223.29 279.935L1241.77 298.684M1223.29 279.935H1295.19M1295.19 279.935L1316.31 298.684M1167.23 298.684H1241.77M1167.23 298.684L1092.7 298.684M1261.67 318.862L1241.77 298.684M1261.67 318.862L1283.13 340.64M1261.67 318.862H1339.05M1241.77 298.684H1316.31M1092.7 298.684H1018.16M1092.7 298.684L1079.49 279.935M1316.31 298.684L1339.05 318.862M1316.31 298.684H1390.85M1079.49 279.935H1007.6M1283.13 340.64L1306.38 364.215M1283.13 340.64H1363.58M1339.05 318.862L1363.58 340.64M1390.85 298.684H1439.61M1363.58 340.64L1390.14 364.215M1363.58 340.64H1439.61M1222.61 364.215L1244.24 389.82M1222.61 364.215H1306.38M1222.61 364.215L1138.84 364.215M1306.38 364.215L1331.62 389.82M1306.38 364.215H1390.14M1390.14 364.215L1418.99 389.82M1390.14 364.215H1439.61M1244.24 389.82H1331.62M1244.24 389.82L1156.87 389.82M1359.13 417.728L1331.62 389.82M1359.13 417.728L1389.23 448.265M1359.13 417.728H1439.61M1331.62 389.82H1418.99M1156.87 389.82H1069.49M1156.87 389.82L1138.84 364.215M1418.99 389.82H1439.61M1418.99 389.82L1439.61 408.125M1138.84 364.215H1055.07M1389.23 448.265L1422.31 481.822M1389.23 448.265H1439.61M1321.98 481.822L1353.28 518.868M1321.98 481.822H1422.31M1321.98 481.822H1221.65M1422.31 481.822L1439.61 499.372M1422.31 481.822H1439.61M1353.28 518.868H1247.74M1353.28 518.868L1439.61 518.868M1247.74 518.868H1142.19M1247.74 518.868L1221.65 481.822M1221.65 481.822L1121.32 481.822M792.194 25.7133L792.355 26.2843L792.516 26.8576L792.679 27.4338L792.841 28.013L793.335 29.7647L793.501 30.3543M792.194 25.7133L828.291 25.7133M792.194 25.7133L756.097 25.7133M826.398 21.2345L825.022 17.9772L824.572 16.9095M826.398 21.2345L827.574 24.0152L828.291 25.7133M826.398 21.2345L861.865 21.2345M824.572 16.9095L859.429 16.9095M824.572 16.9095L823.242 13.7622L822.806 12.731M788.537 12.731L788.393 12.218L787.822 10.1897L787.399 8.6908M788.537 12.731L822.806 12.731M788.537 12.731L754.269 12.731M828.291 25.7133L828.532 26.2843L828.775 26.8576L829.018 27.4338L829.263 28.013L830.251 30.3543M828.291 25.7133L864.388 25.7133M861.865 21.2345L860.03 17.9772L859.429 16.9095M861.865 21.2345L864.388 25.7133M859.429 16.9095L858.241 14.8024L857.364 13.2455L857.075 12.731M822.806 12.731L822.59 12.218L822.159 11.2001L821.732 10.1897L821.521 9.68784L821.099 8.6908M822.806 12.731L857.075 12.731M864.388 25.7133L866.34 29.1781L867.002 30.3543M891.344 12.731L889.201 9.68784L888.499 8.6908M891.344 12.731L857.075 12.731M857.075 12.731L855.08 9.18821L854.798 8.6908M793.501 30.3543L830.251 30.3543M793.501 30.3543L756.751 30.3543M832.284 35.1662L830.251 30.3543M832.284 35.1662L834.394 40.1589M832.284 35.1662L869.712 35.1662M830.251 30.3543L867.002 30.3543M756.751 30.3543L720 30.3543M756.751 30.3543L756.097 25.7133M867.002 30.3543L869.712 35.1662M756.097 25.7133L720 25.7133M834.394 40.1589L834.934 41.4362L835.754 43.376L836.584 45.3426M834.394 40.1589L872.526 40.1589M869.712 35.1662L870.059 35.7796L872.526 40.1589M872.526 40.1589L872.884 40.7961L873.245 41.4362L873.607 42.0801L875.445 45.3426M797.723 45.3426L799.24 50.7292M797.723 45.3426H836.584M797.723 45.3426L758.861 45.3426M836.584 45.3426L838.86 50.7292M836.584 45.3426L875.445 45.3426M875.445 45.3426L877.71 49.3627L878.094 50.0445L878.48 50.7292M799.24 50.7292H838.86M799.24 50.7292L759.62 50.7292M841.226 56.3301L841.528 57.0461L841.833 57.765L842.138 58.4885L843.689 62.1584M841.226 56.3301L840.031 53.5018L839.736 52.8036L839.443 52.1085L838.86 50.7292M841.226 56.3301L881.635 56.3301M838.86 50.7292L878.48 50.7292M759.62 50.7292L720 50.7292M759.62 50.7292L758.861 45.3426M878.48 50.7292L881.635 56.3301M758.861 45.3426L720 45.3426M843.689 62.1584L845.927 67.4559L846.253 68.2284M843.689 62.1584H884.918M881.635 56.3301L882.444 57.765L884.918 62.1584M884.918 62.1584L886.184 64.4053L888.338 68.2284M804.168 68.2284L805.051 71.3585L805.273 72.1518L805.951 74.5556M804.168 68.2284H846.253M804.168 68.2284H762.085M846.253 68.2284L848.926 74.5556M846.253 68.2284L888.338 68.2284M888.338 68.2284L891.901 74.5556M805.951 74.5556H848.926M805.951 74.5556H762.975M851.715 81.1564L848.926 74.5556M851.715 81.1564L854.627 88.0487M851.715 81.1564L895.62 81.1564M848.926 74.5556L891.901 74.5556M762.975 74.5556L720 74.5556M762.975 74.5556L762.749 72.9489L762.304 69.7853L762.085 68.2284M891.901 74.5556L895.62 81.1564M762.085 68.2284L720 68.2284M854.627 88.0487L856.896 93.422L857.671 95.2533M854.627 88.0487L899.503 88.0487M895.62 81.1564L899.503 88.0487M899.503 88.0487L901.509 91.6109L903.561 95.2533M811.781 95.2533L813.904 102.791M811.781 95.2533H857.671M811.781 95.2533H765.89M857.671 95.2533L860.855 102.791M857.671 95.2533L903.561 95.2533M903.561 95.2533L907.807 102.791M813.904 102.791H860.855M813.904 102.791H766.952M864.191 110.685L863.342 108.677L860.855 102.791M864.191 110.685L867.688 118.963M864.191 110.685L912.254 110.685M860.855 102.791L907.807 102.791M766.952 102.791L720 102.791M766.952 102.791L765.89 95.2533M907.807 102.791L912.254 110.685M765.89 95.2533L720 95.2533M867.688 118.963L871.359 127.652M867.688 118.963L916.917 118.963M912.254 110.685L916.917 118.963M916.917 118.963L921.812 127.652M820.906 127.652L823.478 136.784M820.906 127.652L871.359 127.652M820.906 127.652H770.453M871.359 127.652L875.217 136.784M871.359 127.652H921.812M921.812 127.652L926.956 136.784M823.478 136.784H875.217M823.478 136.784L771.739 136.784M879.277 146.394L875.217 136.784M879.277 146.394L883.555 156.519M879.277 146.394H932.369M875.217 136.784H926.956M771.739 136.784H720M771.739 136.784L770.61 128.769L770.453 127.652M926.956 136.784L932.369 146.394M770.453 127.652L720 127.652M883.555 156.519L888.069 167.205M883.555 156.519H938.073M932.369 146.394L936.618 153.938L938.073 156.519M938.073 156.519L944.093 167.205M832.046 167.205L835.227 178.496M832.046 167.205H888.069M832.046 167.205L776.023 167.205M888.069 167.205L892.84 178.496M888.069 167.205H944.093M944.093 167.205L950.453 178.496M835.227 178.496H892.84M835.227 178.496L777.613 178.496M897.889 190.448L892.84 178.496M897.889 190.448L903.242 203.118M897.889 190.448H957.185M892.84 178.496H950.453M777.613 178.496H720M777.613 178.496L776.023 167.205M950.453 178.496L957.185 190.448M776.023 167.205H720M903.242 203.118L908.928 216.575M903.242 203.118H964.323M957.185 190.448L964.323 203.118M964.323 203.118L971.903 216.575M845.952 216.575L849.985 230.894M845.952 216.575H908.928M845.952 216.575L782.976 216.575M908.928 216.575L914.977 230.894M908.928 216.575H971.903M971.903 216.575L979.969 230.894M849.985 230.894H914.977M849.985 230.894L784.992 230.894M921.426 246.159L914.977 230.894M921.426 246.159L928.317 262.47M921.426 246.159H988.569M914.977 230.894H979.969M784.992 230.894H720M784.992 230.894L782.976 216.575M979.969 230.894L988.569 246.159M782.976 216.575H720M928.317 262.47L935.696 279.935M928.317 262.47H997.756M988.569 246.159L997.756 262.47M997.756 262.47L1007.6 279.935M863.797 279.935L869.078 298.684M863.797 279.935H935.696M863.797 279.935H791.899M935.696 279.935L943.617 298.684M935.696 279.935H1007.6M1007.6 279.935L1018.16 298.684M869.078 298.684H943.617M869.078 298.684H794.539M952.143 318.862L943.617 298.684M952.143 318.862L961.343 340.64M952.143 318.862H1029.52M943.617 298.684H1018.16M794.539 298.684H720M794.539 298.684L791.899 279.935M1018.16 298.684L1029.52 318.862M791.899 279.935H720M961.343 340.64L971.304 364.215M961.343 340.64H1041.79M1029.52 318.862L1041.79 340.64M1041.79 340.64L1055.07 364.215M887.535 364.215L894.747 389.82M887.535 364.215H971.304M887.535 364.215H803.768M971.304 364.215L982.121 389.82M971.304 364.215H1055.07M1055.07 364.215L1069.49 389.82M894.747 389.82H982.121M894.747 389.82H807.374M993.912 417.728L982.121 389.82M993.912 417.728L1006.81 448.265M993.912 417.728H1085.22M982.121 389.82H1069.49M807.374 389.82H720M807.374 389.82L803.768 364.215M1069.49 389.82L1085.22 417.728M803.768 364.215H720M1006.81 448.265L1020.99 481.822M1006.81 448.265H1102.42M1085.22 417.728L1102.42 448.265M1102.42 448.265L1121.32 481.822M920.66 481.822L931.095 518.868M920.66 481.822H1020.99M920.66 481.822H820.331M1020.99 481.822L1036.64 518.868M1020.99 481.822H1121.32M1121.32 481.822L1142.19 518.868M1036.64 518.868H931.095M1036.64 518.868H1142.19M931.095 518.868H825.548M825.548 518.868H720M825.548 518.868L820.331 481.822M820.331 481.822H720M647.806 25.7133L647.645 26.2843L647.484 26.8576L647.322 27.4338L647.159 28.013L646.831 29.1781L646.665 29.7647L646.499 30.3543M647.806 25.7133L683.903 25.7133M647.806 25.7133L611.709 25.7133M684.534 21.2345L685.143 16.9095M684.534 21.2345L683.903 25.7133M684.534 21.2345L720 21.2345M685.143 16.9095L685.217 16.3794L685.292 15.8515L685.366 15.3258L685.732 12.731M685.143 16.9095L720 16.9095M651.463 12.731L651.607 12.218L652.178 10.1897L652.601 8.6908M651.463 12.731L685.732 12.731M651.463 12.731L617.194 12.731M683.903 25.7133L683.822 26.2843L683.742 26.8576L683.66 27.4338L683.25 30.3543M683.903 25.7133L720 25.7133M720 21.2345V16.9095M720 21.2345V25.7133M720 16.9095V12.731M685.732 12.731L720 12.731M685.732 12.731L685.947 11.2001L686.019 10.6938L686.301 8.6908M720 25.7133V30.3543M754.269 12.731L754.054 11.2001L753.982 10.6938L753.911 10.1897L753.84 9.68784L753.77 9.18821L753.7 8.6908M754.269 12.731L720 12.731M720 12.731V8.6908M646.499 30.3543L683.25 30.3543M646.499 30.3543L609.749 30.3543M682.572 35.1662L682.485 35.7796L682.399 36.3967L681.869 40.1589M682.572 35.1662L683.25 30.3543M682.572 35.1662H720M683.25 30.3543L720 30.3543M609.749 30.3543L572.998 30.3543M609.749 30.3543L610.245 29.1781L610.492 28.5944L610.737 28.013L610.983 27.4338L611.225 26.8576L611.468 26.2843L611.709 25.7133M720 30.3543V35.1662M611.709 25.7133L575.612 25.7133M681.869 40.1589L681.139 45.3426M681.869 40.1589H720M720 35.1662V40.1589M720 40.1589V45.3426M642.277 45.3426L640.76 50.7292M642.277 45.3426L681.139 45.3426M642.277 45.3426L603.416 45.3426M681.139 45.3426L680.38 50.7292M681.139 45.3426H720M720 45.3426V50.7292M640.76 50.7292L680.38 50.7292M640.76 50.7292L601.14 50.7292M679.592 56.3301L680.38 50.7292M679.592 56.3301L678.771 62.1584M679.592 56.3301H720M680.38 50.7292H720M601.14 50.7292H561.52M601.14 50.7292L603.416 45.3426M720 50.7292V56.3301M603.416 45.3426H564.555M678.771 62.1584L678.455 64.4053L678.133 66.6871L677.916 68.2284M678.771 62.1584H720M720 56.3301V62.1584M720 62.1584V68.2284M635.832 68.2284L634.949 71.3585L634.727 72.1518L634.049 74.5556M635.832 68.2284L677.916 68.2284M635.832 68.2284H593.747M677.916 68.2284L677.697 69.7853L677.251 72.9489L677.025 74.5556M677.916 68.2284H720M720 68.2284V74.5556M634.049 74.5556L677.025 74.5556M634.049 74.5556H591.074M676.096 81.1564L676.213 80.3155L677.025 74.5556M676.096 81.1564L675.125 88.0487M676.096 81.1564H720M677.025 74.5556H720M591.074 74.5556H548.099M591.074 74.5556L593.747 68.2284M720 74.5556V81.1564M593.747 68.2284H551.662M675.125 88.0487L674.11 95.2533M675.125 88.0487H720M720 81.1564V88.0487M720 88.0487V95.2533M628.22 95.2533L626.097 102.791M628.22 95.2533L674.11 95.2533M628.22 95.2533H582.329M674.11 95.2533L673.048 102.791M674.11 95.2533H720M720 95.2533V102.791M626.097 102.791L673.048 102.791M626.097 102.791H579.145M671.937 110.685L673.048 102.791M671.937 110.685L670.771 118.963M671.937 110.685H720M673.048 102.791H720M579.145 102.791H532.193M579.145 102.791L582.329 95.2533M720 102.791V110.685M582.329 95.2533H536.439M670.771 118.963L669.547 127.652M670.771 118.963H720M720 110.685V118.963M720 118.963V127.652M619.094 127.652L616.522 136.784M619.094 127.652L669.547 127.652M619.094 127.652H568.642M669.547 127.652L668.261 136.784M669.547 127.652H720M720 127.652V136.784M616.522 136.784H668.261M616.522 136.784L564.784 136.784M666.908 146.394L668.261 136.784M666.908 146.394L665.482 156.519M666.908 146.394H720M668.261 136.784H720M564.784 136.784H513.044M564.784 136.784L568.642 127.652M720 136.784V146.394M568.642 127.652L518.189 127.652M665.482 156.519L663.977 167.205M665.482 156.519H720M720 146.394V156.519M720 156.519V167.205M607.954 167.205L604.774 178.496M607.954 167.205H663.977M607.954 167.205L551.931 167.205M663.977 167.205L662.387 178.496M663.977 167.205H720M720 167.205V178.496M604.774 178.496H662.387M604.774 178.496L547.16 178.496M660.704 190.448L662.387 178.496M660.704 190.448L658.919 203.118M660.704 190.448H720M662.387 178.496H720M547.16 178.496H489.547M547.16 178.496L551.931 167.205M720 178.496V190.448M551.931 167.205H495.908M658.919 203.118L657.024 216.575M658.919 203.118H720M720 190.448V203.118M720 203.118V216.575M594.048 216.575L590.016 230.894M594.048 216.575H657.024M594.048 216.575L531.073 216.575M657.024 216.575L655.008 230.894M657.024 216.575H720M720 216.575V230.894M590.016 230.894H655.008M590.016 230.894L525.023 230.894M652.858 246.159L655.008 230.894M652.858 246.159L650.561 262.47M652.858 246.159H720M655.008 230.894H720M525.023 230.894H460.031M525.023 230.894L531.073 216.575M720 230.894V246.159M531.073 216.575H468.097M650.561 262.47L648.101 279.935M650.561 262.47L720 262.47M720 246.159V262.47M720 262.47V279.935M576.203 279.935L570.922 298.684M576.203 279.935H648.101M576.203 279.935H504.304M648.101 279.935L645.461 298.684M648.101 279.935L720 279.935M720 279.935V298.684M570.922 298.684H645.461M570.922 298.684H496.383M642.619 318.862L645.461 298.684M642.619 318.862L639.553 340.64M642.619 318.862L720 318.862M645.461 298.684L720 298.684M496.383 298.684H421.844M496.383 298.684L504.304 279.935M720 298.684V318.862M504.304 279.935H432.405M639.553 340.64L636.232 364.215M639.553 340.64L720 340.64M720 318.862V340.64M720 340.64V364.215M552.465 364.215L545.253 389.82M552.465 364.215H636.232M552.465 364.215H468.696M636.232 364.215L632.626 389.82M636.232 364.215L720 364.215M720 364.215V389.82M545.253 389.82H632.626M545.253 389.82H457.879M628.696 417.728L632.626 389.82M628.696 417.728L624.396 448.265M628.696 417.728L720 417.728M632.626 389.82L720 389.82M457.879 389.82H370.505M457.879 389.82L468.696 364.215M720 389.82V417.728M468.696 364.215H384.929M624.396 448.265L619.67 481.822M624.396 448.265L720 448.265M720 417.728V448.265M720 448.265L720 481.822M519.34 481.822L508.906 518.868M519.34 481.822H619.67M519.34 481.822H419.009M619.67 481.822L614.453 518.868M619.67 481.822L720 481.822M720 481.822V518.868M614.453 518.868H508.906M614.453 518.868H720M508.906 518.868L403.358 518.868M403.358 518.868H297.81M403.358 518.868L419.009 481.822M419.009 481.822H318.679M503.418 25.7133L501.475 28.013L499.497 30.3543M503.418 25.7133L539.515 25.7133M503.418 25.7133L467.322 25.7133M542.669 21.2345L545.714 16.9095M542.669 21.2345L539.515 25.7133M542.669 21.2345L578.135 21.2345M545.714 16.9095L580.571 16.9095M545.714 16.9095L547.93 13.7622L548.657 12.731M514.388 12.731L548.657 12.731M514.388 12.731L515.682 11.2001L517.802 8.6908M514.388 12.731L480.119 12.731M539.515 25.7133L536.248 30.3543M539.515 25.7133L575.612 25.7133M578.135 21.2345L580.571 16.9095M578.135 21.2345L575.612 25.7133M580.571 16.9095L581.759 14.8024L582.636 13.2455L582.925 12.731M548.657 12.731L582.925 12.731M548.657 12.731L550.799 9.68784L551.501 8.6908M575.612 25.7133L573.66 29.1781L572.998 30.3543M617.194 12.731L617.41 12.218L617.841 11.2001L618.479 9.68784L618.901 8.6908M617.194 12.731L582.925 12.731M582.925 12.731L583.214 12.218L583.788 11.2001L585.201 8.6908M499.497 30.3543L536.248 30.3543M499.497 30.3543L462.746 30.3543M532.859 35.1662L533.29 34.5551L533.718 33.9461L535.412 31.5402L536.248 30.3543M532.859 35.1662L530.234 38.8927L529.343 40.1589M532.859 35.1662L570.288 35.1662M536.248 30.3543L572.998 30.3543M462.746 30.3543L425.996 30.3543M462.746 30.3543L466.193 26.8576L467.322 25.7133M572.998 30.3543L570.288 35.1662M467.322 25.7133L431.224 25.7133M529.343 40.1589L528.895 40.7961L528.444 41.4362L527.079 43.376L526.618 44.0281L525.693 45.3426M529.343 40.1589L567.474 40.1589M570.288 35.1662L569.941 35.7796L567.474 40.1589M567.474 40.1589L567.116 40.7961L566.755 41.4362L566.393 42.0801L564.555 45.3426M486.832 45.3426L482.281 50.7292M486.832 45.3426L525.693 45.3426M486.832 45.3426H447.971M525.693 45.3426L521.9 50.7292M525.693 45.3426L564.555 45.3426M564.555 45.3426L561.52 50.7292M482.281 50.7292L521.9 50.7292M482.281 50.7292H442.661M517.957 56.3301L521.9 50.7292M517.957 56.3301L513.853 62.1584M517.957 56.3301L558.365 56.3301M521.9 50.7292L561.52 50.7292M442.661 50.7292L403.041 50.7292M442.661 50.7292L447.971 45.3426M561.52 50.7292L558.365 56.3301M447.971 45.3426L409.109 45.3426M513.853 62.1584L509.579 68.2284M513.853 62.1584L555.082 62.1584M558.365 56.3301L557.556 57.765L555.082 62.1584M555.082 62.1584L553.816 64.4053L552.53 66.6871L551.662 68.2284M467.494 68.2284L464.849 71.3585L462.148 74.5556M467.494 68.2284H509.579M467.494 68.2284H425.409M509.579 68.2284L505.123 74.5556M509.579 68.2284L551.662 68.2284M551.662 68.2284L548.099 74.5556M462.148 74.5556H505.123M462.148 74.5556H419.173M500.476 81.1564L505.123 74.5556M500.476 81.1564L495.622 88.0487M500.476 81.1564L544.38 81.1564M505.123 74.5556L548.099 74.5556M419.173 74.5556L376.197 74.5556M419.173 74.5556L425.409 68.2284M548.099 74.5556L544.38 81.1564M425.409 68.2284L383.326 68.2284M495.622 88.0487L494.375 89.8197L490.549 95.2533M495.622 88.0487L540.497 88.0487M544.38 81.1564L540.497 88.0487M540.497 88.0487L540 88.932L538.491 91.6109L536.439 95.2533M444.659 95.2533L438.29 102.791M444.659 95.2533H490.549M444.659 95.2533L398.769 95.2533M490.549 95.2533L485.241 102.791M490.549 95.2533L536.439 95.2533M536.439 95.2533L532.193 102.791M438.29 102.791H485.241M438.29 102.791L391.338 102.791M479.682 110.685L483.188 105.708L485.241 102.791M479.682 110.685L473.854 118.963M479.682 110.685L527.746 110.685M485.241 102.791L532.193 102.791M391.338 102.791H344.386M391.338 102.791L398.769 95.2533M532.193 102.791L527.746 110.685M398.769 95.2533H352.878M473.854 118.963L467.735 127.652M473.854 118.963L523.083 118.963M527.746 110.685L523.083 118.963M523.083 118.963L518.189 127.652M417.282 127.652L409.566 136.784M417.282 127.652H467.735M417.282 127.652L366.83 127.652M467.735 127.652L461.305 136.784M467.735 127.652H518.189M518.189 127.652L513.044 136.784M409.566 136.784H461.305M409.566 136.784H357.827M454.539 146.394L461.305 136.784M454.539 146.394L447.409 156.519M454.539 146.394H507.631M461.305 136.784H513.044M357.827 136.784L306.089 136.784M357.827 136.784L366.83 127.652M513.044 136.784L507.631 146.394M366.83 127.652H316.377M447.409 156.519L439.885 167.205M447.409 156.519H501.927M507.631 146.394L501.927 156.519M501.927 156.519L495.908 167.205M383.862 167.205L374.321 178.496M383.862 167.205H439.885M383.862 167.205L327.838 167.205M439.885 167.205L431.934 178.496M439.885 167.205H495.908M495.908 167.205L489.547 178.496M374.321 178.496H431.934M374.321 178.496L316.707 178.496M423.518 190.448L431.934 178.496M423.518 190.448L414.597 203.118M423.518 190.448H482.815M431.934 178.496H489.547M316.707 178.496H259.094M316.707 178.496L327.838 167.205M489.547 178.496L482.815 190.448M327.838 167.205H271.816M414.597 203.118L405.121 216.575M414.597 203.118H475.677M482.815 190.448L475.677 203.118M475.677 203.118L468.097 216.575M342.145 216.575L330.047 230.894M342.145 216.575L405.121 216.575M342.145 216.575H279.169M405.121 216.575L395.039 230.894M405.121 216.575H468.097M468.097 216.575L460.031 230.894M330.047 230.894L395.039 230.894M330.047 230.894H265.054M384.29 246.159L395.039 230.894M384.29 246.159L372.804 262.47M384.29 246.159H451.432M395.039 230.894H460.031M265.054 230.894H200.062M265.054 230.894L279.169 216.575M460.031 230.894L451.432 246.159M279.169 216.575H216.193M372.804 262.47L360.506 279.935M372.804 262.47H442.244M451.432 246.159L442.244 262.47M442.244 262.47L432.405 279.935M288.607 279.935L272.765 298.684M288.607 279.935H360.506M288.607 279.935L216.708 279.935M360.506 279.935L347.305 298.684M360.506 279.935H432.405M432.405 279.935L421.844 298.684M272.765 298.684H347.305M272.765 298.684L198.226 298.684M333.096 318.862L347.305 298.684M333.096 318.862L317.761 340.64M333.096 318.862H410.477M347.305 298.684H421.844M198.226 298.684H123.687M198.226 298.684L216.708 279.935M421.844 298.684L410.477 318.862M216.708 279.935H144.809M317.761 340.64L301.161 364.215M317.761 340.64H398.209M410.477 318.862L398.209 340.64M398.209 340.64L384.929 364.215M217.393 364.215L195.758 389.82M217.393 364.215L301.161 364.215M217.393 364.215H133.625M301.161 364.215L283.132 389.82M301.161 364.215H384.929M384.929 364.215L370.505 389.82M195.758 389.82L283.132 389.82M195.758 389.82H108.384M263.48 417.728L283.132 389.82M263.48 417.728L241.977 448.265M263.48 417.728H354.784M283.132 389.82H370.505M108.384 389.82H21.0104M108.384 389.82L133.625 364.215M370.505 389.82L354.784 417.728M133.625 364.215H49.8579M241.977 448.265L218.349 481.822M241.977 448.265H337.582M354.784 417.728L337.582 448.265M337.582 448.265L318.679 481.822M118.019 481.822L86.7156 518.868M118.019 481.822H218.349M118.019 481.822H17.6882M218.349 481.822L192.263 518.868M218.349 481.822L318.679 481.822M318.679 481.822L297.81 518.868M192.263 518.868H86.7156M192.263 518.868H297.81M86.7156 518.868L0.387546 518.868M17.6882 481.822L0.387546 499.372M17.6882 481.822H0.387546M359.03 25.7133L352.495 30.3543M359.03 25.7133L395.127 25.7133M359.03 25.7133L322.934 25.7133M400.804 21.2345L406.286 16.9095M400.804 21.2345L395.127 25.7133M400.804 21.2345L436.27 21.2345M406.286 16.9095L441.143 16.9095M406.286 16.9095L411.582 12.731M377.313 12.731L411.582 12.731M377.313 12.731L379.47 11.2001L383.003 8.6908M377.313 12.731L343.045 12.731M395.127 25.7133L389.245 30.3543M395.127 25.7133L431.224 25.7133M436.27 21.2345L441.143 16.9095M436.27 21.2345L431.224 25.7133M441.143 16.9095L444.689 13.7622L445.851 12.731M411.582 12.731L412.232 12.218L416.703 8.6908M411.582 12.731L445.851 12.731M431.224 25.7133L425.996 30.3543M480.119 12.731L484.102 8.6908M480.119 12.731L445.851 12.731M445.851 12.731L447.576 11.2001L450.403 8.6908M352.495 30.3543L389.245 30.3543M352.495 30.3543L315.744 30.3543M383.146 35.1662L389.245 30.3543M383.146 35.1662L376.818 40.1589M383.146 35.1662H420.575M389.245 30.3543L425.996 30.3543M315.744 30.3543L278.994 30.3543M315.744 30.3543L322.934 25.7133M425.996 30.3543L420.575 35.1662M322.934 25.7133L286.837 25.7133M376.818 40.1589L375.198 41.4362L370.247 45.3426M376.818 40.1589L414.95 40.1589M420.575 35.1662L414.95 40.1589M414.95 40.1589L409.109 45.3426M331.386 45.3426L330.454 46.005L323.801 50.7292M331.386 45.3426H370.247M331.386 45.3426L292.525 45.3426M370.247 45.3426L363.421 50.7292M370.247 45.3426L409.109 45.3426M409.109 45.3426L408.364 46.005L403.041 50.7292M323.801 50.7292H363.421M323.801 50.7292L284.181 50.7292M356.322 56.3301L363.421 50.7292M356.322 56.3301L348.935 62.1584M356.322 56.3301L396.731 56.3301M363.421 50.7292L403.041 50.7292M284.181 50.7292L244.561 50.7292M284.181 50.7292L292.525 45.3426M403.041 50.7292L396.731 56.3301M292.525 45.3426L253.663 45.3426M348.935 62.1584L341.241 68.2284M348.935 62.1584L390.164 62.1584M396.731 56.3301L390.164 62.1584M390.164 62.1584L383.326 68.2284M299.157 68.2284L290.247 74.5556M299.157 68.2284H341.241M299.157 68.2284L257.073 68.2284M341.241 68.2284L333.222 74.5556M341.241 68.2284H383.326M383.326 68.2284L376.197 74.5556M290.247 74.5556H333.222M290.247 74.5556L247.271 74.5556M324.856 81.1564L333.222 74.5556M324.856 81.1564L316.119 88.0487M324.856 81.1564H368.76M333.222 74.5556H376.197M247.271 74.5556H204.296M247.271 74.5556L257.073 68.2284M376.197 74.5556L368.76 81.1564M257.073 68.2284H214.988M316.119 88.0487L306.988 95.2533M316.119 88.0487H360.995M368.76 81.1564L360.995 88.0487M360.995 88.0487L352.878 95.2533M261.098 95.2533L250.483 102.791M261.098 95.2533L306.988 95.2533M261.098 95.2533H215.208M306.988 95.2533L297.435 102.791M306.988 95.2533H352.878M352.878 95.2533L344.386 102.791M250.483 102.791L297.435 102.791M250.483 102.791H203.531M287.428 110.685L297.435 102.791M287.428 110.685L276.937 118.963M287.428 110.685L335.492 110.685M297.435 102.791H344.386M203.531 102.791L156.579 102.791M203.531 102.791L215.208 95.2533M344.386 102.791L335.492 110.685M215.208 95.2533L169.317 95.2533M276.937 118.963L265.924 127.652M276.937 118.963L326.166 118.963M335.492 110.685L326.166 118.963M326.166 118.963L316.377 127.652M215.471 127.652L202.611 136.784M215.471 127.652H265.924M215.471 127.652L165.018 127.652M265.924 127.652L254.349 136.784M265.924 127.652L316.377 127.652M316.377 127.652L306.089 136.784M202.611 136.784H254.349M202.611 136.784H150.871M242.169 146.394L254.349 136.784M242.169 146.394L229.335 156.519M242.169 146.394H295.262M254.349 136.784H306.089M150.871 136.784L99.1326 136.784M150.871 136.784L165.018 127.652M306.089 136.784L295.262 146.394M165.018 127.652H114.565M229.335 156.519L215.792 167.205M229.335 156.519H283.853M295.262 146.394L283.853 156.519M283.853 156.519L271.816 167.205M159.769 167.205L143.868 178.496M159.769 167.205H215.792M159.769 167.205L103.746 167.205M215.792 167.205L201.481 178.496M215.792 167.205H271.816M271.816 167.205L259.094 178.496M143.868 178.496H201.481M143.868 178.496L86.2546 178.496M186.333 190.448L201.481 178.496M186.333 190.448L170.274 203.118M186.333 190.448H245.629M201.481 178.496H259.094M86.2546 178.496H28.6413M86.2546 178.496L103.746 167.205M259.094 178.496L245.629 190.448M103.746 167.205H47.7231M170.274 203.118L153.217 216.575M170.274 203.118H231.355M245.629 190.448L231.355 203.118M231.355 203.118L216.193 216.575M90.2417 216.575L70.0775 230.894M90.2417 216.575L153.217 216.575M90.2417 216.575H27.2658M153.217 216.575L135.07 230.894M153.217 216.575H216.193M216.193 216.575L200.062 230.894M70.0775 230.894L135.07 230.894M70.0775 230.894H5.08526M115.72 246.159L135.07 230.894M115.72 246.159L95.0481 262.47M115.72 246.159L182.863 246.159M135.07 230.894H200.062M5.08526 230.894L27.2658 216.575M5.08526 230.894H0.387546M5.08526 230.894L0.387546 233.926M200.062 230.894L182.863 246.159M27.2658 216.575H0.387546M95.0481 262.47L72.911 279.935M95.0481 262.47H164.487M182.863 246.159L164.487 262.47M164.487 262.47L144.809 279.935M1.01196 279.935H72.911M1.01196 279.935H0.387546M1.01196 279.935L0.387546 280.379M72.911 279.935L49.1473 298.684M72.911 279.935H144.809M144.809 279.935L123.687 298.684M23.5726 318.862L49.1473 298.684M23.5726 318.862H100.953M23.5726 318.862H0.387546M23.5726 318.862L0.387546 337.155M49.1473 298.684H123.687M49.1473 298.684H0.387546M123.687 298.684L100.953 318.862M100.953 318.862L76.4184 340.64M76.4184 340.64L49.8579 364.215M76.4184 340.64H0.387546M49.8579 364.215L21.0104 389.82M49.8579 364.215H0.387546M21.0104 389.82H0.387546M21.0104 389.82L0.387546 408.125M214.642 25.7133L205.493 30.3543M214.642 25.7133L250.74 25.7133M214.642 25.7133L178.546 25.7133M258.939 21.2345L266.857 16.9095M258.939 21.2345L250.74 25.7133M258.939 21.2345L294.405 21.2345M266.857 16.9095L301.714 16.9095M266.857 16.9095L274.507 12.731M240.239 12.731L274.507 12.731M240.239 12.731L248.204 8.6908M240.239 12.731L205.97 12.731M250.74 25.7133L242.243 30.3543M250.74 25.7133L286.837 25.7133M294.405 21.2345L301.714 16.9095M294.405 21.2345L286.837 25.7133M301.714 16.9095L308.776 12.731M274.507 12.731L275.445 12.218L281.904 8.6908M274.507 12.731L308.776 12.731M286.837 25.7133L278.994 30.3543M343.045 12.731L349.303 8.6908M343.045 12.731L308.776 12.731M308.776 12.731L309.642 12.218L315.603 8.6908M205.493 30.3543L242.243 30.3543M205.493 30.3543L168.742 30.3543M233.433 35.1662L242.243 30.3543M233.433 35.1662L224.293 40.1589M233.433 35.1662L270.862 35.1662M242.243 30.3543L278.994 30.3543M168.742 30.3543L131.992 30.3543M168.742 30.3543L178.546 25.7133M278.994 30.3543L270.862 35.1662M178.546 25.7133L142.449 25.7133M224.293 40.1589L214.802 45.3426M224.293 40.1589L262.424 40.1589M270.862 35.1662L269.824 35.7796L262.424 40.1589M262.424 40.1589L253.663 45.3426M175.941 45.3426L165.321 50.7292M175.941 45.3426L214.802 45.3426M175.941 45.3426L137.079 45.3426M214.802 45.3426L204.941 50.7292M214.802 45.3426H253.663M253.663 45.3426L244.561 50.7292M165.321 50.7292L204.941 50.7292M165.321 50.7292L125.701 50.7292M194.687 56.3301L204.941 50.7292M194.687 56.3301L184.017 62.1584M194.687 56.3301L235.096 56.3301M204.941 50.7292H244.561M125.701 50.7292L86.0814 50.7292M125.701 50.7292L137.079 45.3426M244.561 50.7292L235.096 56.3301M137.079 45.3426H98.2181M184.017 62.1584L172.904 68.2284M184.017 62.1584L225.246 62.1584M235.096 56.3301L225.246 62.1584M225.246 62.1584L214.988 68.2284M130.82 68.2284L118.345 74.5556M130.82 68.2284H172.904M130.82 68.2284H88.735M172.904 68.2284L161.321 74.5556M172.904 68.2284L214.988 68.2284M214.988 68.2284L204.296 74.5556M118.345 74.5556H161.321M118.345 74.5556H75.3697M149.236 81.1564L161.321 74.5556M149.236 81.1564L136.617 88.0487M149.236 81.1564L193.141 81.1564M161.321 74.5556L204.296 74.5556M75.3697 74.5556L32.3946 74.5556M75.3697 74.5556L88.735 68.2284M204.296 74.5556L193.141 81.1564M88.735 68.2284L46.6511 68.2284M136.617 88.0487L123.427 95.2533M136.617 88.0487L181.492 88.0487M193.141 81.1564L181.492 88.0487M181.492 88.0487L169.317 95.2533M77.5368 95.2533L62.676 102.791M77.5368 95.2533H123.427M77.5368 95.2533L31.6472 95.2533M123.427 95.2533L109.628 102.791M123.427 95.2533H169.317M169.317 95.2533L156.579 102.791M62.676 102.791H109.628M95.174 110.685L109.628 102.791M95.174 110.685L80.0202 118.963M95.174 110.685H143.238M109.628 102.791H156.579M156.579 102.791L143.238 110.685M31.6472 95.2533H0.387546M80.0202 118.963L64.1122 127.652M80.0202 118.963H129.249M143.238 110.685L129.249 118.963M129.249 118.963L114.565 127.652M13.6591 127.652L64.1122 127.652M13.6591 127.652H0.387546M13.6591 127.652L0.387546 134.383M64.1122 127.652L47.3932 136.784M64.1122 127.652H114.565M114.565 127.652L99.1326 136.784M29.8002 146.394L47.3932 136.784M29.8002 146.394L11.2619 156.519M29.8002 146.394H82.8926M29.8002 146.394H0.387546M47.3932 136.784H99.1326M47.3932 136.784H0.387546M99.1326 136.784L82.8926 146.394M0.241375 134.458L0.387546 134.383M11.2619 156.519H65.7801M11.2619 156.519H0.387546M11.2619 156.519L0.387546 162.459M82.8926 146.394L65.7801 156.519M65.7801 156.519L47.7231 167.205M47.7231 167.205L28.6413 178.496M47.7231 167.205H0.387546M8.44421 190.448L28.6413 178.496M8.44421 190.448H0.387546M8.44421 190.448L0.387546 195.215M28.6413 178.496H0.387546M70.2552 25.7133L58.491 30.3543M70.2552 25.7133L106.352 25.7133M70.2552 25.7133L34.1576 25.7133M117.074 21.2345L127.428 16.9095M117.074 21.2345L106.352 25.7133M117.074 21.2345L152.541 21.2345M127.428 16.9095L162.285 16.9095M127.428 16.9095L137.433 12.731M103.164 12.731L137.433 12.731M103.164 12.731L113.405 8.6908M103.164 12.731L68.8954 12.731M106.352 25.7133L95.2415 30.3543M106.352 25.7133L142.449 25.7133M152.541 21.2345L162.285 16.9095M152.541 21.2345L142.449 25.7133M162.285 16.9095L171.701 12.731M137.433 12.731L171.701 12.731M137.433 12.731L147.105 8.6908M142.449 25.7133L131.992 30.3543M205.97 12.731L214.505 8.6908M205.97 12.731L171.701 12.731M171.701 12.731L180.805 8.6908M58.491 30.3543L95.2415 30.3543M58.491 30.3543L21.7405 30.3543M83.7209 35.1662L95.2415 30.3543M83.7209 35.1662L71.7679 40.1589M83.7209 35.1662L121.149 35.1662M95.2415 30.3543L131.992 30.3543M21.7405 30.3543L34.1576 25.7133M21.7405 30.3543L0.387546 30.3543M131.992 30.3543L121.149 35.1662M34.1576 25.7133L0.387546 25.7133M71.7679 40.1589L59.3568 45.3426M71.7679 40.1589L109.899 40.1589M121.149 35.1662L109.899 40.1589M109.899 40.1589L98.2181 45.3426M20.4955 45.3426L6.84157 50.7292M20.4955 45.3426L59.3568 45.3426M20.4955 45.3426H0.387546M59.3568 45.3426L46.4615 50.7292M59.3568 45.3426L98.2181 45.3426M98.2181 45.3426L86.0814 50.7292M33.0527 56.3301L46.4615 50.7292M33.0527 56.3301L19.099 62.1584M33.0527 56.3301H73.4612M33.0527 56.3301L0.387546 56.3301M46.4615 50.7292L6.84157 50.7292M46.4615 50.7292H86.0814M6.84157 50.7292L0.387546 53.275M6.84157 50.7292H0.387546M86.0814 50.7292L73.4612 56.3301M19.099 62.1584L4.56654 68.2284M19.099 62.1584L60.3283 62.1584M19.099 62.1584H0.387546M73.4612 56.3301L60.3283 62.1584M60.3283 62.1584L46.6511 68.2284M4.56654 68.2284H46.6511M4.56654 68.2284L0.387546 69.9736M4.56654 68.2284H0.387546M46.6511 68.2284L32.3946 74.5556M17.5211 81.1564L32.3946 74.5556M17.5211 81.1564L1.99018 88.0487M17.5211 81.1564H0.387546M32.3946 74.5556H0.387546M0.162665 74.5556H0.387546M1.99018 88.0487H0.387546M1.99018 88.0487L0.387546 88.76M0 88.932L0.387546 88.76M10.6758 21.2345L22.8567 16.9095M10.6758 21.2345H0.387546M10.6758 21.2345L0.387546 24.8869M22.8567 16.9095L34.6269 12.731M22.8567 16.9095L0.387546 16.9095M68.8954 12.731L79.7053 8.6908M68.8954 12.731L34.6269 12.731M34.6269 12.731L46.0057 8.6908M34.6269 12.731L0.387546 12.731M1191.8 8.6908L1225.5 8.6908M1191.8 8.6908L1158.1 8.6908M1217.24 4.78294L1219.28 5.74801L1225.5 8.6908M1217.24 4.78294L1250.39 4.78294M1225.5 8.6908L1259.2 8.6908M1250.39 4.78294L1252.56 5.74801L1253.66 6.23278L1259.2 8.6908M1259.2 8.6908L1292.89 8.6908M1292.89 8.6908L1326.6 8.6908M1158.1 8.6908L1124.4 8.6908M1326.6 8.6908L1360.3 8.6908M1360.3 8.6908L1349.84 4.78294M1360.3 8.6908L1393.99 8.6908M1349.84 4.78294L1382.99 4.78294M1057 8.6908L1090.7 8.6908M1057 8.6908L1023.3 8.6908M1084.64 4.78294L1086.14 5.74801L1086.89 6.23278L1090.7 8.6908M1084.64 4.78294L1117.79 4.78294M1090.7 8.6908L1124.4 8.6908M1117.79 4.78294L1124.4 8.6908M1023.3 8.6908L989.598 8.6908M922.199 8.6908L955.898 8.6908M922.199 8.6908L888.499 8.6908M952.045 4.78294L952.52 5.26399L952.996 5.74801L953.475 6.23278L955.898 8.6908M952.045 4.78294L985.195 4.78294M955.898 8.6908L989.598 8.6908M985.195 4.78294L989.598 8.6908M888.499 8.6908L854.798 8.6908M787.399 8.6908L821.099 8.6908M787.399 8.6908L753.7 8.6908M819.448 4.78294L821.099 8.6908M819.448 4.78294L852.598 4.78294M821.099 8.6908L854.798 8.6908M852.598 4.78294L852.869 5.26399L853.141 5.74801L853.415 6.23278L854.798 8.6908M753.7 8.6908L720 8.6908M652.601 8.6908L686.301 8.6908M652.601 8.6908L618.901 8.6908M686.851 4.78294L686.301 8.6908M686.851 4.78294L720 4.78294M686.301 8.6908L720 8.6908M720 4.78294V8.6908M618.901 8.6908L585.201 8.6908M517.802 8.6908L551.501 8.6908M517.802 8.6908L484.102 8.6908M554.253 4.78294L553.574 5.74801L552.198 7.7012L551.501 8.6908M554.253 4.78294L587.403 4.78294M551.501 8.6908L585.201 8.6908M587.403 4.78294L587.131 5.26399L586.859 5.74801L586.585 6.23278L585.201 8.6908M484.102 8.6908L450.403 8.6908M383.003 8.6908L416.703 8.6908M383.003 8.6908L349.303 8.6908M421.656 4.78294L420.433 5.74801L419.817 6.23278L416.703 8.6908M421.656 4.78294L454.806 4.78294M416.703 8.6908L450.403 8.6908M454.806 4.78294L454.263 5.26399L450.403 8.6908M349.303 8.6908L315.603 8.6908M248.204 8.6908L281.904 8.6908M248.204 8.6908L214.505 8.6908M289.059 4.78294L287.292 5.74801L286.403 6.23278L281.904 8.6908M289.059 4.78294L322.208 4.78294M281.904 8.6908L315.603 8.6908M322.208 4.78294L321.394 5.26399L315.603 8.6908M214.505 8.6908L180.805 8.6908M113.405 8.6908L147.105 8.6908M113.405 8.6908L79.7053 8.6908M156.461 4.78294L147.105 8.6908M156.461 4.78294L189.61 4.78294M147.105 8.6908L180.805 8.6908M189.61 4.78294L187.437 5.74801L186.342 6.23278L180.805 8.6908M79.7053 8.6908L46.0057 8.6908M23.8642 4.78294L12.3061 8.6908M23.8642 4.78294L57.0136 4.78294M23.8642 4.78294L0.387546 4.78294M12.3061 8.6908L46.0057 8.6908M12.3061 8.6908L0.387546 12.7211M12.3061 8.6908L0.387546 8.6908M57.0136 4.78294L54.2955 5.74801L46.0057 8.6908M1382.99 4.78294L1385.7 5.74801L1393.99 8.6908M1393.99 8.6908L1427.69 8.6908M1427.69 8.6908L1439.61 12.7211M1427.69 8.6908L1439.61 8.6908M1439.61 195.215V190.448M1439.61 195.215V203.118M1439.61 190.448V178.496M1439.61 203.118V205.48V216.575M1439.61 216.575V230.894M1439.61 102.791V95.2533M1439.61 102.791V110.051M1439.61 4.78294V8.6908M1439.61 8.6908V12.7211M1439.61 12.7211L1439.64 12.731H1439.61M1439.61 12.7211V12.731M1439.61 12.731V16.9095M1439.61 16.9095V21.2345M1439.61 21.2345V24.8869M1439.61 24.8869V25.7133M1439.61 25.7133V30.3543M1439.61 30.3543V35.1662M1439.61 35.1662V38.3337M1439.61 38.3337V40.1589M1439.61 40.1589V45.3426M1439.61 45.3426V50.7292M1439.61 50.7292V53.275M1439.61 53.275V56.3301M1439.61 56.3301V62.1584M1439.61 62.1584V68.2284M1439.61 68.2284V69.9736M1439.61 69.9736V74.5556M1439.61 74.5556V81.1564M1439.61 81.1564V88.0487M1439.61 88.0487V88.76M1439.61 88.76V95.2533M1439.61 110.685V118.963M1439.61 110.685V110.051M1439.61 118.963V127.652M1439.61 127.652V134.383M1439.61 134.383V136.784M1439.61 136.784V146.394M1439.61 146.394V156.519M1439.61 156.519V162.459M1439.61 162.459V167.205M1439.61 167.205V178.496M1439.61 230.894V233.926M1439.61 233.926V246.159M1439.61 246.159V262.47M1439.61 262.47V279.935M1439.61 279.935V280.379M1439.61 280.379V298.684M1439.61 298.684V318.862M1439.61 318.862V337.155M1439.61 337.155V340.64M1439.61 340.64V364.215M1439.61 364.215V389.82M1439.61 389.82V408.125M1439.61 408.125V417.728M1439.61 417.728V448.265M1439.61 448.265V481.822M1439.61 481.822V499.372M1439.61 499.372V518.868M1439.61 518.868V519L0.387546 519L0.387546 518.868M0.387546 110.685L0.387546 118.963M0.387546 110.685L0.387546 110.051M0.387546 110.051L0.387546 102.791M0.387546 102.791L0.387546 95.2533M0.387546 95.2533L0.387546 88.76M0.387546 88.76L0.387546 88.0487M0.387546 88.0487L0.387546 81.1564M0.387546 81.1564L0.387546 74.5556M0.387546 74.5556L0.387546 69.9736M0.387546 69.9736L0.387546 68.2284M0.387546 68.2284L0.387546 62.1584M0.387546 62.1584L0.387546 56.3301M0.387546 56.3301L0.387546 53.275M0.387546 53.275L0.387546 50.7292M0.387546 50.7292L0.387546 45.3426M0.387546 45.3426L0.387546 40.1589M0.387546 40.1589L0.387546 38.3336M0.387546 38.3336L0.387546 35.1662M0.387546 35.1662L0.387546 30.3543M0.387546 30.3543L0.387546 25.7133M0.387546 25.7133L0.387546 24.8869M0.387546 24.8869L0.387546 21.2345M0.387546 21.2345L0.387546 16.9095M0.387546 16.9095L0.387546 12.731M0.387546 12.731H0.35831L0.387546 12.7211M0.387546 12.731V12.7211M0.387546 12.7211L0.387546 8.6908M0.387546 8.6908L0.387546 4.78294M0.387546 518.868L0.387546 499.372M0.387546 499.372L0.387546 481.822M0.387546 481.822L0.387546 448.266M0.387546 448.266L0.387546 417.728M0.387546 417.728L0.387546 408.125M0.387546 408.125L0.387546 389.82M0.387546 389.82L0.387546 364.215M0.387546 364.215L0.387546 340.64M0.387546 340.64L0.387546 337.155M0.387546 337.155L0.387546 318.862M0.387546 318.862L0.387546 298.684M0.387546 298.684L0.387546 280.379M0.387546 280.379L0.387546 279.935M0.387546 279.935L0.387546 262.47M0.387546 262.47L0.387546 246.159M0.387546 246.159L0.387546 233.926M0.387546 233.926L0.387546 230.894M0.387546 230.894L0.387546 216.575M0.387546 216.575L0.387546 203.118M0.387546 203.118L0.387546 195.215M0.387546 195.215L0.387546 190.448M0.387546 190.448L0.387546 178.496M0.387546 178.496L0.387546 167.205M0.387546 167.205L0.387546 162.459M0.387546 162.459L0.387546 156.519M0.387546 156.519L0.387546 146.394M0.387546 146.394L0.387546 136.784M0.387546 136.784L0.387546 134.383M0.387546 134.383L0.387546 127.652M0.387546 127.652L0.387546 118.963" stroke="url(#paint0_linear_1_236)" stroke-opacity="0.18" stroke-miterlimit="10" stroke-linecap="round" stroke-linejoin="round"/>
<defs>
<linearGradient id="paint0_linear_1_236" x1="720" y1="519" x2="720" y2="24.2242" gradientUnits="userSpaceOnUse">
<stop stop-color="#4442D7"/>
<stop offset="1" stop-color="#4442D7" stop-opacity="0.2"/>
</linearGradient>
</defs>
</svg>
