<svg width="1392" height="502" viewBox="0 0 1392 502" fill="none" xmlns="http://www.w3.org/2000/svg">
<path d="M1367.96 497.349L1357.17 501M1367.96 497.349H1335.97M1367.96 497.349L1379.12 493.576M1367.96 497.349H1390.63M1357.17 501L1361.1 500.999L1364.98 500.991L1368.79 500.968L1372.48 500.925L1376.01 500.854L1379.34 500.747L1382.43 500.598L1385.3 500.409L1387.77 500.147L1390.01 499.843L1390.63 499.737V497.349M1357.17 501H1325.68M1325.68 501H1294.2M1325.68 501L1335.97 497.349M1294.2 501H1262.71M1294.2 501L1303.97 497.349M1262.71 501H1231.23M1262.71 501L1271.97 497.349M1231.23 501H1199.75M1231.23 501L1239.97 497.349M1199.75 501H1168.26M1199.75 501L1207.97 497.349M1168.26 501L1136.78 501M1168.26 501L1175.97 497.349M1136.78 501H1105.29M1136.78 501L1143.98 497.349M1105.29 501H1073.81M1105.29 501L1111.98 497.349M1073.81 501H1042.33M1073.81 501L1079.98 497.349M1042.33 501H1010.84M1042.33 501L1047.98 497.349M1010.84 501H979.357M1010.84 501L1015.98 497.349M979.357 501H947.873M979.357 501L980.5 500.098L982.232 498.732L983.985 497.349M947.873 501H916.389M947.873 501L948.889 500.098L951.986 497.349M916.389 501H884.905M916.389 501L919.988 497.349M884.905 501H853.421M884.905 501L886.05 499.644L887.21 498.273L887.599 497.811L887.99 497.349M853.421 501H821.937M853.421 501L854.375 499.644L854.696 499.189L855.018 498.732L855.992 497.349M821.937 501H790.453M821.937 501L823.994 497.349M790.453 501L790.643 500.55L790.833 500.098L791.799 497.811L791.995 497.349M790.453 501H758.969M758.969 501H727.484M758.969 501L759.997 497.349M727.484 501L696 501M727.484 501L727.675 499.644L727.999 497.349M696 501H664.516M696 501V497.349M664.516 501H633.031M664.516 501L664.325 499.644L664.002 497.349M633.031 501H601.548M633.031 501L632.003 497.349M601.548 501L601.357 500.55L601.167 500.098L600.201 497.811L600.005 497.349M601.548 501H570.064M570.064 501H538.579M570.064 501L568.268 497.811L568.007 497.349M538.579 501H507.095M538.579 501L537.625 499.644L537.304 499.189L536.659 498.273L536.334 497.811L536.008 497.349M507.095 501H475.611M507.095 501L505.95 499.644L504.791 498.273L504.401 497.811L504.01 497.349M475.611 501H444.127M475.611 501L472.012 497.349M444.127 501H412.643M444.127 501L443.111 500.098L440.014 497.349M412.643 501H381.159M412.643 501L408.015 497.349M381.159 501H349.675M381.159 501L376.017 497.349M349.675 501H318.19M349.675 501L344.019 497.349M318.19 501H286.706M318.19 501L312.02 497.349M286.706 501H255.222M286.706 501L280.022 497.349M255.222 501L223.738 501M255.222 501L248.023 497.349M223.738 501H192.254M223.738 501L216.025 497.349M192.254 501H160.77M192.254 501L184.027 497.349M160.77 501H129.286M160.77 501L152.028 497.349M129.286 501H97.8012M129.286 501L120.03 497.349M97.8012 501H66.3173M97.8012 501L88.0323 497.349M66.3173 501H34.8334M66.3173 501L56.0339 497.349M34.8334 501L30.9044 500.999L27.0159 500.991L23.2085 500.968L19.5205 500.925L15.9923 500.854L12.6618 500.747L9.5685 500.598L6.69738 500.409L4.23363 500.147L1.99057 499.843L1.37409 499.737L1.37409 497.349M34.8334 501L24.0355 497.349M88.0323 497.349H120.03M88.0323 497.349H56.0339M88.0323 497.349L77.9378 493.576M120.03 497.349L110.467 493.576M120.03 497.349H152.028M216.025 497.349L248.023 497.349M216.025 497.349H184.027M216.025 497.349L214.058 496.417L208.056 493.576M248.023 497.349L240.586 493.576M248.023 497.349H280.022M344.019 497.349H376.017M344.019 497.349H312.02M344.019 497.349L342.576 496.417L341.849 495.949L338.174 493.576M376.017 497.349L375.362 496.884L374.705 496.417L370.705 493.576M376.017 497.349H408.015M472.012 497.349L471.553 496.884L468.293 493.576M472.012 497.349H504.01M472.012 497.349H440.014M504.01 497.349L503.223 496.417L502.827 495.949L502.43 495.478L500.822 493.576M504.01 497.349H536.008M600.005 497.349H632.003M600.005 497.349H568.007M600.005 497.349L598.412 493.576M632.003 497.349L631.872 496.884L631.741 496.417L631.609 495.949L631.21 494.532L630.941 493.576M632.003 497.349H664.002M727.999 497.349H759.997M727.999 497.349H696M727.999 497.349L728.53 493.576M759.997 497.349L760.128 496.884L760.259 496.417L760.391 495.949L761.059 493.576M759.997 497.349H791.995M855.992 497.349H887.99M855.992 497.349H823.994M855.992 497.349L856.648 496.417L857.976 494.532L858.311 494.055L858.648 493.576M887.99 497.349L888.777 496.417L889.173 495.949L889.571 495.478L891.178 493.576M887.99 497.349H919.988M983.985 497.349H1015.98M983.985 497.349H951.986M983.985 497.349L985.166 496.417L985.76 495.949L988.766 493.576M1015.98 497.349L1016.64 496.884L1017.29 496.417L1021.3 493.576M1015.98 497.349H1047.98M1111.98 497.349H1143.98M1111.98 497.349H1079.98M1111.98 497.349L1113.68 496.417L1114.54 495.949L1118.88 493.576M1143.98 497.349L1151.41 493.576M1143.98 497.349L1175.97 497.349M1239.97 497.349H1271.97M1239.97 497.349H1207.97M1239.97 497.349L1249 493.576M1271.97 497.349L1281.53 493.576M1271.97 497.349H1303.97M1.26194 463.202H1.37409M33.4687 463.202L45.6854 468.021M33.4687 463.202L20.7838 458.198M33.4687 463.202H70.2759M33.4687 463.202H1.37409M45.6854 468.021H9.55693M45.6854 468.021L57.4601 472.666M45.6854 468.021H81.8139M9.55693 468.021L21.9857 472.666M9.55693 468.021H1.37409M9.55693 468.021L1.37409 464.964M45.5393 481.469H79.7742M45.5393 481.469L56.7097 485.643M45.5393 481.469H11.3051M45.5393 481.469L33.9716 477.145M79.7742 481.469L90.3571 485.643M79.7742 481.469L68.8158 477.145M79.7742 481.469H114.009M56.7097 485.643H90.3571M56.7097 485.643L67.5032 489.677M56.7097 485.643H23.0631M90.3571 485.643H124.004M90.3571 485.643L100.582 489.677M1.02171 387.136H1.37409M30.7213 387.136L46.4749 395.126M30.7213 387.136L14.1849 378.749M30.7213 387.136H78.2417M30.7213 387.136H1.37409M46.4749 395.126L61.4998 402.746M46.4749 395.126H92.8693M46.4749 395.126H1.37409M16.1783 402.746H61.4998M16.1783 402.746L31.5483 410.022M16.1783 402.746H1.37409M16.1783 402.746L1.37409 395.738M46.2382 416.976H89.5554M46.2382 416.976L60.2928 423.629M46.2382 416.976H2.92108M46.2382 416.976L31.5483 410.022M89.5554 416.976L102.674 423.629M89.5554 416.976L75.8445 410.022M89.5554 416.976H132.873M60.2928 423.629H102.674M60.2928 423.629H17.9127M60.2928 423.629L73.7527 430M102.674 423.629L115.236 430M102.674 423.629H145.054M99.0313 441.967H138.829M99.0313 441.967L110.916 447.593M99.0313 441.967H59.2335M99.0313 441.967L86.6539 436.108M138.829 441.967L149.921 447.593M138.829 441.967L127.277 436.108M138.829 441.967H178.627M110.916 447.593H149.921M110.916 447.593H71.9105M110.916 447.593L122.337 452.999M149.921 447.593L160.581 452.999M149.921 447.593H188.927M143.89 463.202H180.698M143.89 463.202L154.071 468.021M143.89 463.202H107.083M143.89 463.202L133.32 458.198M180.698 463.202L190.199 468.021M180.698 463.202L170.832 458.198M180.698 463.202H217.505M154.071 468.021H190.199M154.071 468.021H117.942M154.071 468.021L163.883 472.666M190.199 468.021L199.358 472.666M190.199 468.021H226.328M182.478 481.469H216.713M182.478 481.469L191.297 485.643M182.478 481.469H148.244M182.478 481.469L173.346 477.145M216.713 481.469L224.944 485.643M216.713 481.469L208.19 477.145M216.713 481.469L250.948 481.469M191.297 485.643H224.944M191.297 485.643L199.819 489.677M191.297 485.643H157.65M224.944 485.643L258.591 485.643M224.944 485.643L232.897 489.677M25.72 248.616L47.8916 264.36M25.72 248.616L1.97682 231.758M25.72 248.616H92.7478M25.72 248.616H1.37409M47.8916 264.36L68.6443 279.095M47.8916 264.36H112.702M47.8916 264.36H1.37409M47.4415 305.906H106.402M47.4415 305.906L66.3882 318.135M47.4415 305.906L27.3191 292.916M47.4415 305.906H1.37409M106.402 305.906L123.625 318.135M106.402 305.906L88.1083 292.916M106.402 305.906H165.362M66.3882 318.135H123.625M66.3882 318.135H9.15101M66.3882 318.135L84.2596 329.672M123.625 318.135L139.872 329.672M123.625 318.135H180.863M117.121 350.885H169.747M117.121 350.885L132.263 360.659M117.121 350.885H64.496M117.121 350.885L101.144 340.57M169.747 350.885L183.512 360.659M169.747 350.885L155.221 340.57M169.747 350.885H222.372M132.263 360.659H183.512M132.263 360.659H81.0144M132.263 360.659L146.633 369.934M183.512 360.659L196.576 369.934M183.512 360.659H234.76M173.281 387.136H220.801M173.281 387.136L185.659 395.126M173.281 387.136H125.761M173.281 387.136L160.289 378.749M220.801 387.136L232.054 395.126M220.801 387.136L208.989 378.749M220.801 387.136H268.321M185.659 395.126H232.054M185.659 395.126H139.265M185.659 395.126L197.464 402.746M232.054 395.126L242.786 402.746M232.054 395.126H278.448M219.508 416.976H262.826M219.508 416.976L229.815 423.629M219.508 416.976H176.19M219.508 416.976L208.735 410.022M262.826 416.976L272.196 423.629M262.826 416.976L253.032 410.022M262.826 416.976L306.143 416.976M229.815 423.629H272.196M229.815 423.629H187.435M229.815 423.629L239.685 430M272.196 423.629L281.169 430M272.196 423.629L314.576 423.629M258.223 441.967L298.021 441.967M258.223 441.967L266.938 447.593M258.223 441.967H218.425M258.223 441.967L249.146 436.108M298.021 441.967L299.029 442.682L305.944 447.593M298.021 441.967L289.77 436.108M298.021 441.967H337.819M266.938 447.593H305.944M266.938 447.593L227.933 447.593M266.938 447.593L275.314 452.999M305.944 447.593L313.558 452.999M305.944 447.593H344.95M291.119 463.202H327.927M291.119 463.202L298.586 468.021M291.119 463.202L254.312 463.202M291.119 463.202L283.368 458.198M327.927 463.202L334.714 468.021M327.927 463.202L325.316 461.347L320.88 458.198M327.927 463.202H364.734M298.586 468.021H334.714M298.586 468.021H262.457M298.586 468.021L305.781 472.666M334.714 468.021L341.255 472.666M334.714 468.021H370.843M319.417 481.469H353.652M319.417 481.469L325.884 485.643M319.417 481.469H285.183M319.417 481.469L312.721 477.145M353.652 481.469L358.081 484.613L358.808 485.13L359.532 485.643M353.652 481.469L347.564 477.145M353.652 481.469H387.887M325.884 485.643H359.532M325.884 485.643L332.133 489.677M325.884 485.643H292.238M359.532 485.643H393.179M359.532 485.643L365.212 489.677M50.0051 69.2768H142.291M50.0051 69.2768L79.0637 98.7528M50.0051 69.2768L18.0741 36.8863M50.0051 69.2768L1.37409 69.2762M142.291 69.2768L167.198 98.7528M142.291 69.2768L114.921 36.8863M142.291 69.2768L234.575 69.2768M79.0637 98.7528H167.198M79.0637 98.7528L105.621 125.691M79.0637 98.7528H1.37409M167.198 98.7528L189.961 125.691M167.198 98.7528L255.332 98.7528M152.419 173.162H230.074M152.419 173.162L173.142 194.183M152.419 173.162H74.7649M152.419 173.162L129.986 150.406M230.074 173.162L247.836 194.183M230.074 173.162L210.845 150.406M230.074 173.162L307.728 173.162M173.142 194.183L247.836 194.183M173.142 194.183H98.4481M173.142 194.183L192.343 213.66M247.836 194.183L264.294 213.66M247.836 194.183H322.53M226.804 248.616H293.832M226.804 248.616L242.325 264.36M226.804 248.616H159.776M226.804 248.616L210.184 231.758M293.832 248.616L307.135 264.36M293.832 248.616L279.586 231.758M293.832 248.616L360.86 248.616M242.325 264.36H307.135M242.325 264.36H177.513M242.325 264.36L256.851 279.095M307.135 264.36L319.587 279.095M307.135 264.36L371.946 264.36M283.281 305.906H342.241M283.281 305.906L295.338 318.135M283.281 305.906H224.322M283.281 305.906L270.476 292.916M342.241 305.906L352.576 318.135M342.241 305.906L331.265 292.916M342.241 305.906L401.201 305.906M295.338 318.135L352.576 318.135M295.338 318.135H238.1M295.338 318.135L306.711 329.672M352.576 318.135L362.323 329.672M352.576 318.135H409.813M327.622 350.885L380.248 350.885M327.622 350.885L337.258 360.659M327.622 350.885H274.997M327.622 350.885L317.455 340.57M380.248 350.885L388.507 360.659M380.248 350.885L371.533 340.57M380.248 350.885H432.874M337.258 360.659L388.507 360.659M337.258 360.659H286.009M337.258 360.659L346.403 369.934M388.507 360.659L396.345 369.934M388.507 360.659H439.756M363.361 387.136H410.881M363.361 387.136L371.238 395.126M363.361 387.136H315.841M363.361 387.136L355.093 378.749M410.881 387.136L417.632 395.126M410.881 387.136L403.793 378.749M410.881 387.136H458.4M371.238 395.126H417.632M371.238 395.126H324.843M371.238 395.126L378.75 402.746M417.632 395.126L424.071 402.746M417.632 395.126H464.027M392.778 416.976H436.096M392.778 416.976L399.337 423.629M392.778 416.976H349.461M392.778 416.976L385.923 410.022M436.096 416.976L441.717 423.629M436.096 416.976L430.22 410.022M436.096 416.976H479.413M399.337 423.629H441.717M399.337 423.629H356.956M399.337 423.629L405.618 430M441.717 423.629L447.101 430M441.717 423.629H484.098M417.414 441.967H457.213M417.414 441.967L422.961 447.593M417.414 441.967H377.617M417.414 441.967L411.638 436.108M457.213 441.967L456.604 441.248L452.262 436.108M457.213 441.967L461.966 447.593M457.213 441.967H497.011M422.961 447.593H461.966M422.961 447.593H383.955M422.961 447.593L428.29 452.999M461.966 447.593L466.535 452.999M461.966 447.593H500.972M438.349 463.202H475.156M438.349 463.202L443.1 468.021M438.349 463.202H401.542M438.349 463.202L433.416 458.198M475.156 463.202L479.228 468.021M475.156 463.202L473.59 461.347L472.532 460.097L470.928 458.198M475.156 463.202H511.963M443.1 468.021H479.228M443.1 468.021H406.971M443.1 468.021L447.679 472.666M479.228 468.021L480.717 469.783L481.699 470.944L483.154 472.666M479.228 468.021H515.357M456.357 481.469H490.591M456.357 481.469L459.457 484.613L460.472 485.643M456.357 481.469H422.122M456.357 481.469L452.636 477.694L452.095 477.145M490.591 481.469L493.249 484.613L493.684 485.13L494.119 485.643M490.591 481.469L488.781 479.326L486.939 477.145M490.591 481.469H524.826M460.472 485.643H494.119M460.472 485.643L464.449 489.677M460.472 485.643H426.825M494.119 485.643H527.766M494.119 485.643L497.527 489.677M419.145 69.2768H511.43M419.145 69.2768L431.599 98.7528M419.145 69.2768H326.861M419.145 69.2768L405.46 36.8863M511.43 69.2768L519.733 98.7528M511.43 69.2768L502.307 36.8863M511.43 69.2768H603.715M431.599 98.7528H519.733M431.599 98.7528H343.465M431.599 98.7528L442.98 125.691M519.733 98.7528L527.32 125.691M519.733 98.7528H607.866M463.037 173.162H540.691M463.037 173.162L471.918 194.183M463.037 173.162H385.382M463.037 173.162L453.422 150.406M540.691 173.162L546.612 194.183M540.691 173.162L534.282 150.406M540.691 173.162H618.346M471.918 194.183H546.612M471.918 194.183H397.224M471.918 194.183L480.147 213.66M546.612 194.183L552.098 213.66M546.612 194.183H621.306M494.916 248.616H561.944M494.916 248.616L501.568 264.36M494.916 248.616H427.888M494.916 248.616L487.793 231.758M561.944 248.616L566.378 264.36M561.944 248.616L557.196 231.758M561.944 248.616L628.972 248.616M501.568 264.36H566.378M501.568 264.36H436.757M501.568 264.36L507.793 279.095M566.378 264.36L570.529 279.095M566.378 264.36L631.189 264.36M519.121 305.906H578.08M519.121 305.906L524.288 318.135M519.121 305.906H460.161M519.121 305.906L513.633 292.916M578.08 305.906L581.525 318.135M578.08 305.906L574.422 292.916M578.08 305.906L637.04 305.906M524.288 318.135L581.525 318.135M524.288 318.135H467.051M524.288 318.135L529.162 329.672M581.525 318.135L584.775 329.672M581.525 318.135H638.763M538.124 350.885L590.75 350.885M538.124 350.885L542.253 360.659M538.124 350.885H485.499M538.124 350.885L533.767 340.57M590.75 350.885L593.502 360.659M590.75 350.885L587.845 340.57M590.75 350.885H643.375M542.253 360.659L593.502 360.659M542.253 360.659H491.005M542.253 360.659L546.173 369.934M593.502 360.659L596.115 369.934M593.502 360.659H644.751M553.44 387.136H600.96M553.44 387.136L556.816 395.126M553.44 387.136H505.921M553.44 387.136L549.897 378.749M600.96 387.136L603.211 395.126M600.96 387.136L598.598 378.749M600.96 387.136L648.48 387.136M556.816 395.126H603.211M556.816 395.126H510.421M556.816 395.126L558.042 398.025L560.036 402.746M603.211 395.126L605.357 402.746M603.211 395.126L649.606 395.126M566.048 416.976H609.365M566.048 416.976L568.859 423.629M566.048 416.976H522.73M566.048 416.976L563.857 411.79L563.109 410.022M609.365 416.976L610.078 419.505L611.239 423.629M609.365 416.976L607.406 410.022M609.365 416.976L652.683 416.976M568.859 423.629L569.201 424.441L571.551 430M568.859 423.629H611.239M568.859 423.629H526.478M611.239 423.629L611.921 426.05L612.146 426.849L612.37 427.643L613.034 430M611.239 423.629L653.62 423.629M576.606 441.967H616.404M576.606 441.967L577.807 444.808L578.103 445.509L578.398 446.207L578.692 446.901L578.983 447.593M576.606 441.967H536.808M576.606 441.967L574.131 436.108M616.404 441.967L617.598 446.207L617.795 446.901L617.988 447.593M616.404 441.967L614.754 436.108M616.404 441.967H656.202M578.983 447.593H617.988M578.983 447.593H539.978M578.983 447.593L580.422 450.996L580.705 451.668L581.267 452.999M617.988 447.593L618.947 450.996L619.137 451.668L619.324 452.335L619.512 452.999M617.988 447.593H656.995M585.578 463.202H622.386M585.578 463.202L587.615 468.021M585.578 463.202H548.77M585.578 463.202L585.057 461.969L584.266 460.097L583.464 458.198M622.386 463.202L622.212 462.587L621.155 458.834L620.976 458.198M622.386 463.202L623.743 468.021M622.386 463.202H659.193M587.615 468.021H623.743M587.615 468.021H551.486M587.615 468.021L589.577 472.666M623.743 468.021L624.239 469.783L624.403 470.365L624.566 470.944L625.051 472.666M623.743 468.021H659.872M593.296 481.469H627.53M593.296 481.469L594.624 484.613L595.059 485.643M593.296 481.469H559.061M593.296 481.469L592.618 479.865L592.391 479.326L592.161 478.785L591.469 477.145M627.53 481.469L627.68 481.998L627.976 483.051L628.271 484.095L628.706 485.643M627.53 481.469L626.927 479.326L626.775 478.785L626.467 477.694L626.313 477.145M627.53 481.469H661.765M595.059 485.643H628.706M595.059 485.643L596.554 489.18L596.764 489.677M595.059 485.643H561.413M628.706 485.643L628.851 486.155L628.994 486.665L629.137 487.172L629.279 487.677L629.702 489.18L629.843 489.677M628.706 485.643H662.353M788.285 69.2768H880.57M788.285 69.2768L784.134 98.7528M788.285 69.2768L696 69.2768M788.285 69.2768L792.847 36.8863M880.57 69.2768L872.268 98.7528M880.57 69.2768L889.693 36.8863M880.57 69.2768H972.855M784.134 98.7528H872.268M784.134 98.7528L696 98.7528M784.134 98.7528L780.34 125.691M872.268 98.7528L864.68 125.691M872.268 98.7528H960.401M773.654 173.162H851.309M773.654 173.162L770.694 194.183M773.654 173.162L696 173.162M773.654 173.162L776.859 150.406M851.309 173.162L845.388 194.183M851.309 173.162L857.718 150.406M851.309 173.162H928.963M770.694 194.183H845.388M770.694 194.183L696 194.183M770.694 194.183L767.951 213.66M845.388 194.183L839.902 213.66M845.388 194.183H920.082M763.028 248.616L830.056 248.616M763.028 248.616L760.811 264.36M763.028 248.616H696M763.028 248.616L765.403 231.758M830.056 248.616L825.622 264.36M830.056 248.616L834.804 231.758M830.056 248.616H897.084M760.811 264.36H825.622M760.811 264.36H696M760.811 264.36L758.736 279.095M825.622 264.36L821.471 279.095M825.622 264.36H890.432M754.96 305.906H813.92M754.96 305.906L753.237 318.135M754.96 305.906H696M754.96 305.906L756.789 292.916M813.92 305.906L810.475 318.135M813.92 305.906L817.578 292.916M813.92 305.906H872.879M753.237 318.135H810.475M753.237 318.135H696M753.237 318.135L751.613 329.672M810.475 318.135L807.226 329.672M810.475 318.135H867.712M748.625 350.885H801.25M748.625 350.885L747.249 360.659M748.625 350.885H696M748.625 350.885L750.078 340.57M801.25 350.885L798.498 360.659M801.25 350.885L804.155 340.57M801.25 350.885H853.876M747.249 360.659H798.498M747.249 360.659H696M747.249 360.659L745.942 369.934M798.498 360.659L795.885 369.934M798.498 360.659H849.747M743.52 387.136H791.04M743.52 387.136L742.394 395.126M743.52 387.136H696M743.52 387.136L744.701 378.749M791.04 387.136L788.789 395.126M791.04 387.136L793.402 378.749M791.04 387.136H838.56M742.394 395.126H788.789M742.394 395.126H696M742.394 395.126L741.322 402.746M788.789 395.126L786.643 402.746M788.789 395.126H835.184M739.317 416.976H782.635M739.317 416.976L738.38 423.629M739.317 416.976H696M739.317 416.976L740.297 410.022M782.635 416.976L780.99 422.813L780.761 423.629M782.635 416.976L784.594 410.022M782.635 416.976H825.952M738.38 423.629L738.267 424.441L737.483 430M738.38 423.629H780.761M738.38 423.629H696M780.761 423.629L780.079 426.05L779.854 426.849L779.63 427.643L778.966 430M780.761 423.629H823.141M735.798 441.967H775.596M735.798 441.967L735.006 447.593M735.798 441.967H696M735.798 441.967L736.103 439.798L736.207 439.067L736.309 438.333L736.518 436.853L736.623 436.108M775.596 441.967L774.402 446.207L774.011 447.593M775.596 441.967L777.246 436.108M775.596 441.967H815.394M735.006 447.593H774.011M735.006 447.593H696M735.006 447.593L734.244 452.999M774.011 447.593L773.053 450.996L772.863 451.668L772.676 452.335L772.488 452.999M774.011 447.593H813.017M732.807 463.202H769.615M732.807 463.202L732.129 468.021M732.807 463.202H696M732.807 463.202L733.512 458.198M769.615 463.202L769.788 462.587L770.845 458.834L771.024 458.198M769.615 463.202L768.257 468.021M769.615 463.202H806.422M732.129 468.021H768.257M732.129 468.021H696M732.129 468.021L731.474 472.666M768.257 468.021L767.761 469.783L767.597 470.365L767.434 470.944L766.949 472.666M768.257 468.021H804.385M730.235 481.469H764.47M730.235 481.469L729.647 485.643M730.235 481.469H696M730.235 481.469L730.844 477.145M764.47 481.469L764.32 481.998L764.023 483.051L763.877 483.574L763.583 484.613L763.439 485.13L763.293 485.643M764.47 481.469L765.073 479.326L765.225 478.785L765.533 477.694L765.687 477.145M764.47 481.469H798.704M729.647 485.643L729.575 486.155L729.503 486.665L729.432 487.172L729.079 489.677M729.647 485.643H763.293M729.647 485.643H696M763.293 485.643H796.941M763.293 485.643L763.006 486.665L762.863 487.172L762.721 487.677L762.298 489.18L762.157 489.677M1157.42 69.2768L1249.71 69.2768M1157.42 69.2768L1136.67 98.7528M1157.42 69.2768H1065.14M1157.42 69.2768L1180.23 36.8863M1249.71 69.2768L1224.8 98.7528M1249.71 69.2768L1277.08 36.8863M1249.71 69.2768H1341.99M1136.67 98.7528L1224.8 98.7528M1136.67 98.7528H1048.54M1136.67 98.7528L1117.7 125.691M1224.8 98.7528L1202.04 125.691M1224.8 98.7528H1312.94M1084.27 173.162L1161.93 173.162M1084.27 173.162L1069.47 194.183M1084.27 173.162H1006.62M1084.27 173.162L1100.3 150.406M1161.93 173.162L1144.16 194.183M1161.93 173.162L1181.16 150.406M1161.93 173.162H1239.58M1069.47 194.183H1144.16M1069.47 194.183H994.776M1069.47 194.183L1055.75 213.66M1144.16 194.183L1127.71 213.66M1144.16 194.183L1218.86 194.183M1031.14 248.616L1098.17 248.616M1031.14 248.616L1020.05 264.36M1031.14 248.616H964.112M1031.14 248.616L1043.01 231.758M1098.17 248.616L1084.87 264.36M1098.17 248.616L1112.41 231.758M1098.17 248.616H1165.2M1020.05 264.36H1084.87M1020.05 264.36H955.243M1020.05 264.36L1009.68 279.095M1084.87 264.36L1072.41 279.095M1084.87 264.36H1149.68M990.799 305.906H1049.76M990.799 305.906L982.187 318.135M990.799 305.906H931.839M990.799 305.906L999.946 292.916M1049.76 305.906L1039.42 318.135M1049.76 305.906L1060.73 292.916M1049.76 305.906H1108.72M982.187 318.135H1039.42M982.187 318.135H924.949M982.187 318.135L974.064 329.672M1039.42 318.135L1029.68 329.672M1039.42 318.135H1096.66M959.126 350.885H1011.75M959.126 350.885L952.244 360.659M959.126 350.885H906.501M959.126 350.885L966.389 340.57M1011.75 350.885L1003.49 360.659M1011.75 350.885L1020.47 340.57M1011.75 350.885H1064.38M952.244 360.659H1003.49M952.244 360.659H900.995M952.244 360.659L945.712 369.934M1003.49 360.659L995.655 369.934M1003.49 360.659H1054.74M933.6 387.136H981.119M933.6 387.136L927.973 395.126M933.6 387.136H886.079M933.6 387.136L939.506 378.749M981.119 387.136L974.368 395.126M981.119 387.136L988.207 378.749M981.119 387.136H1028.64M927.973 395.126H974.368M927.973 395.126H881.579M927.973 395.126L922.607 402.746M974.368 395.126L967.929 402.746M974.368 395.126H1020.76M912.587 416.976L913.187 416.124L913.791 415.267L917.484 410.022M912.587 416.976H955.905M912.587 416.976L907.902 423.629M912.587 416.976H869.27M955.905 416.976L950.283 423.629M955.905 416.976L961.781 410.022M955.905 416.976H999.222M907.902 423.629H950.283M907.902 423.629H865.522M907.902 423.629L903.416 430M950.283 423.629L944.899 430M950.283 423.629H992.663M894.989 441.967H934.788M894.989 441.967L891.028 447.593M894.989 441.967H855.192M894.989 441.967L899.115 436.108M934.788 441.967L931.794 445.509L930.034 447.593M934.788 441.967L939.739 436.108M934.788 441.967H974.585M891.028 447.593H930.034M891.028 447.593H852.022M891.028 447.593L887.689 452.335L887.221 452.999M930.034 447.593L925.465 452.999M930.034 447.593H969.039M880.037 463.202H916.844M880.037 463.202L879.177 464.424L876.643 468.021M880.037 463.202H843.23M880.037 463.202L880.905 461.969L882.667 459.467L883.56 458.198M916.844 463.202L912.772 468.021M916.844 463.202L918.411 461.347L919.468 460.097L921.072 458.198M916.844 463.202H953.651M876.643 468.021H912.772M876.643 468.021H840.514M876.643 468.021L874.179 471.521L873.372 472.666M912.772 468.021L911.283 469.783L910.302 470.944L908.846 472.666M912.772 468.021H948.9M867.174 481.469H901.409M867.174 481.469L865.324 484.095L864.234 485.643M867.174 481.469H832.939M867.174 481.469L870.218 477.145M901.409 481.469L898.751 484.613L898.316 485.13L897.881 485.643M901.409 481.469L903.219 479.326L905.062 477.145M901.409 481.469H935.643M864.234 485.643H897.881M864.234 485.643L862.802 487.677L862.095 488.681L861.744 489.18L861.394 489.677M864.234 485.643H830.587M897.881 485.643H931.528M897.881 485.643L894.473 489.677M1368.25 194.183H1293.55M1368.25 194.183L1343.56 213.66M1368.25 194.183H1390.63M1368.25 194.183L1390.63 176.526M1299.25 248.616H1366.28M1299.25 248.616L1279.3 264.36M1299.25 248.616L1232.22 248.616M1299.25 248.616L1320.62 231.758M1366.28 248.616L1344.11 264.36M1366.28 248.616L1390.02 231.758M1366.28 248.616H1390.63M1279.3 264.36H1344.11M1279.3 264.36L1214.49 264.36M1279.3 264.36L1260.62 279.095M1344.11 264.36L1323.36 279.095M1344.11 264.36H1390.63M1226.64 305.906L1285.6 305.906M1226.64 305.906L1211.14 318.135M1226.64 305.906H1167.68M1226.64 305.906L1243.1 292.916M1285.6 305.906L1268.37 318.135M1285.6 305.906L1303.89 292.916M1285.6 305.906H1344.56M1211.14 318.135H1268.37M1211.14 318.135H1153.9M1211.14 318.135L1196.51 329.672M1268.37 318.135L1252.13 329.672M1268.37 318.135L1325.61 318.135M1169.63 350.885H1222.25M1169.63 350.885L1157.24 360.659M1169.63 350.885H1117M1169.63 350.885L1182.7 340.57M1222.25 350.885L1208.49 360.659M1222.25 350.885L1236.78 340.57M1222.25 350.885H1274.88M1157.24 360.659H1208.49M1157.24 360.659H1105.99M1157.24 360.659L1145.48 369.934M1208.49 360.659L1195.42 369.934M1208.49 360.659H1259.74M1123.68 387.136H1171.2M1123.68 387.136L1113.55 395.126M1123.68 387.136H1076.16M1123.68 387.136L1134.31 378.749M1171.2 387.136L1159.95 395.126M1171.2 387.136L1183.01 378.749M1171.2 387.136H1218.72M1113.55 395.126H1159.95M1113.55 395.126H1067.16M1113.55 395.126L1103.89 402.746M1159.95 395.126L1149.21 402.746M1159.95 395.126H1206.34M1085.86 416.976H1129.17M1085.86 416.976L1077.42 423.629M1085.86 416.976H1042.54M1085.86 416.976L1094.67 410.022M1129.17 416.976L1119.8 423.629M1129.17 416.976L1138.97 410.022M1129.17 416.976H1172.49M1077.42 423.629H1119.8M1077.42 423.629H1035.04M1077.42 423.629L1069.35 430M1119.8 423.629L1110.83 430M1119.8 423.629H1162.19M1054.18 441.967H1093.98M1054.18 441.967L1047.05 447.593M1054.18 441.967H1014.38M1054.18 441.967L1061.61 436.108M1093.98 441.967L1086.06 447.593M1093.98 441.967L1102.23 436.108M1093.98 441.967H1133.78M1047.05 447.593H1086.06M1047.05 447.593H1008.04M1047.05 447.593L1040.2 452.999M1086.06 447.593L1078.44 452.999M1086.06 447.593H1125.06M1027.27 463.202H1064.07M1027.27 463.202L1021.16 468.021M1027.27 463.202H990.458M1027.27 463.202L1028.83 461.969L1029.62 461.347L1033.61 458.198M1064.07 463.202L1057.29 468.021M1064.07 463.202L1071.12 458.198M1064.07 463.202H1100.88M1021.16 468.021H1057.29M1021.16 468.021H985.029M1021.16 468.021L1015.27 472.666M1057.29 468.021L1050.74 472.666M1057.29 468.021H1093.41M1004.11 481.469H1038.35M1004.11 481.469L998.821 485.643M1004.11 481.469H969.878M1004.11 481.469L1009.59 477.145M1038.35 481.469L1033.92 484.613L1033.19 485.13L1032.47 485.643M1038.35 481.469L1044.44 477.145M1038.35 481.469H1072.58M998.821 485.643H1032.47M998.821 485.643L994.339 489.18L993.709 489.677M998.821 485.643H965.175M1032.47 485.643H1066.12M1032.47 485.643L1026.79 489.677M1380.13 350.885L1362.23 360.659M1380.13 350.885H1327.5M1380.13 350.885L1390.63 345.151M1380.13 350.885H1390.63M1362.23 360.659H1310.99M1362.23 360.659L1345.25 369.934M1362.23 360.659H1390.63M1313.76 387.136H1361.28M1313.76 387.136L1299.13 395.126M1313.76 387.136H1266.24M1313.76 387.136L1329.11 378.749M1361.28 387.136L1345.53 395.126M1361.28 387.136L1377.82 378.749M1361.28 387.136H1390.63M1299.13 395.126H1345.53M1299.13 395.126H1252.74M1299.13 395.126L1285.18 402.746M1345.53 395.126L1330.5 402.746M1345.53 395.126H1390.63M1259.13 416.976H1302.44M1259.13 416.976L1246.95 423.629M1259.13 416.976L1215.81 416.976M1259.13 416.976L1271.86 410.022M1302.44 416.976L1289.33 423.629M1302.44 416.976L1316.15 410.022M1302.44 416.976H1345.76M1246.95 423.629H1289.33M1246.95 423.629L1204.57 423.629M1246.95 423.629L1235.28 430M1289.33 423.629L1276.76 430M1289.33 423.629H1331.71M1213.37 441.967H1253.17M1213.37 441.967L1203.07 447.593M1213.37 441.967L1173.57 441.967M1213.37 441.967L1224.1 436.108M1253.17 441.967L1242.08 447.593M1253.17 441.967L1264.72 436.108M1253.17 441.967H1292.97M1203.07 447.593H1242.08M1203.07 447.593L1164.07 447.593M1203.07 447.593L1193.17 452.999M1242.08 447.593L1231.42 452.999M1242.08 447.593H1281.08M1174.5 463.202L1211.3 463.202M1174.5 463.202L1165.67 468.021M1174.5 463.202H1137.69M1174.5 463.202L1183.66 458.198M1211.3 463.202L1201.8 468.021M1211.3 463.202L1221.17 458.198M1211.3 463.202H1248.11M1165.67 468.021L1201.8 468.021M1165.67 468.021H1129.54M1165.67 468.021L1157.17 472.666M1201.8 468.021L1192.64 472.666M1201.8 468.021H1237.93M1141.05 481.469H1175.29M1141.05 481.469L1133.41 485.643M1141.05 481.469H1106.82M1141.05 481.469L1148.97 477.145M1175.29 481.469L1167.06 485.643M1175.29 481.469L1183.81 477.145M1175.29 481.469L1209.52 481.469M1133.41 485.643H1167.06M1133.41 485.643L1126.02 489.677M1133.41 485.643H1099.76M1167.06 485.643L1200.7 485.643M1167.06 485.643L1159.1 489.677M1372.56 441.967L1359.1 447.593M1372.56 441.967H1332.77M1372.56 441.967L1386.59 436.108M1372.56 441.967H1390.63M1359.1 447.593H1320.09M1359.1 447.593L1346.15 452.999M1359.1 447.593H1390.63M1321.72 463.202H1358.53M1321.72 463.202L1310.19 468.021M1321.72 463.202H1284.92M1321.72 463.202L1333.7 458.198M1358.53 463.202L1346.31 468.021M1358.53 463.202L1371.22 458.198M1358.53 463.202H1390.63M1310.19 468.021H1346.31M1310.19 468.021H1274.06M1310.19 468.021L1299.07 472.666M1346.31 468.021L1334.54 472.666M1346.31 468.021H1382.44M1277.99 481.469H1312.23M1277.99 481.469L1268 485.643M1277.99 481.469H1243.76M1277.99 481.469L1288.34 477.145M1312.23 481.469L1301.64 485.643M1312.23 481.469L1323.18 477.145M1312.23 481.469H1346.46M1268 485.643H1301.64M1268 485.643L1258.34 489.677M1268 485.643H1234.35M1301.64 485.643H1335.29M1301.64 485.643L1291.42 489.677M1323.18 477.145L1334.54 472.666M1323.18 477.145H1358.03M1323.18 477.145H1288.34M1346.46 481.469L1335.29 485.643M1346.46 481.469L1358.03 477.145M1346.46 481.469H1380.7M1335.29 485.643H1368.94M1335.29 485.643L1324.5 489.677M1291.42 489.677H1258.34M1291.42 489.677H1324.5M1291.42 489.677L1281.53 493.576M1358.03 477.145L1370.02 472.666M1358.03 477.145H1390.63M1380.7 481.469L1368.94 485.643M1380.7 481.469L1390.63 477.943M1380.7 481.469H1390.63M1368.94 485.643L1357.58 489.677M1368.94 485.643H1390.63M1324.5 489.677H1357.58M1324.5 489.677L1314.06 493.576M1357.58 489.677L1346.59 493.576M1357.58 489.677H1390.63M1334.54 472.666H1370.02M1334.54 472.666H1299.07M1382.44 468.021L1370.02 472.666M1382.44 468.021L1390.63 464.964M1382.44 468.021H1390.63M1370.02 472.666H1390.63M1299.07 472.666H1263.59M1299.07 472.666L1288.34 477.145M1288.34 477.145H1253.5M1371.22 458.198L1384.4 452.999M1371.22 458.198H1333.7M1371.22 458.198H1390.63M1390.74 463.202H1390.63M1384.4 452.999H1346.15M1384.4 452.999L1390.63 450.542M1384.4 452.999H1390.63M1346.15 452.999H1307.91M1346.15 452.999L1333.7 458.198M1333.7 458.198H1296.19M1183.81 477.145L1192.64 472.666M1183.81 477.145H1218.65M1183.81 477.145L1148.97 477.145M1209.52 481.469L1200.7 485.643M1209.52 481.469L1218.65 477.145M1209.52 481.469H1243.76M1200.7 485.643H1234.35M1200.7 485.643L1192.18 489.677M1159.1 489.677L1192.18 489.677M1159.1 489.677L1151.41 493.576M1159.1 489.677H1126.02M1218.65 477.145L1228.12 472.666M1218.65 477.145H1253.5M1243.76 481.469L1234.35 485.643M1243.76 481.469L1253.5 477.145M1234.35 485.643L1225.26 489.677M1192.18 489.677H1225.26M1192.18 489.677L1183.94 493.576M1253.5 477.145L1263.59 472.666M1258.34 489.677H1225.26M1258.34 489.677L1249 493.576M1225.26 489.677L1216.47 493.576M1192.64 472.666H1228.12M1192.64 472.666L1157.17 472.666M1237.93 468.021L1228.12 472.666M1237.93 468.021L1248.11 463.202M1237.93 468.021H1274.06M1228.12 472.666H1263.59M1157.17 472.666H1121.69M1157.17 472.666L1148.97 477.145M1263.59 472.666L1274.06 468.021M1148.97 477.145H1114.12M1248.11 463.202L1258.68 458.198M1248.11 463.202H1284.92M1274.06 468.021L1284.92 463.202M1284.92 463.202L1296.19 458.198M1221.17 458.198L1231.42 452.999M1221.17 458.198H1258.68M1221.17 458.198L1183.66 458.198M1258.68 458.198L1269.66 452.999M1258.68 458.198H1296.19M1296.19 458.198L1307.91 452.999M1231.42 452.999H1269.66M1231.42 452.999H1193.17M1281.08 447.593L1269.66 452.999M1281.08 447.593L1292.97 441.967M1281.08 447.593H1320.09M1269.66 452.999H1307.91M1193.17 452.999L1154.93 452.999M1193.17 452.999L1183.66 458.198M1307.91 452.999L1320.09 447.593M1183.66 458.198H1146.14M1292.97 441.967L1305.35 436.108M1292.97 441.967H1332.77M1320.09 447.593L1332.77 441.967M1332.77 441.967L1345.97 436.108M1264.72 436.108L1276.76 430M1264.72 436.108H1305.35M1264.72 436.108H1224.1M1305.35 436.108L1318.25 430M1305.35 436.108H1345.97M1345.97 436.108L1359.73 430M1345.97 436.108H1386.59M1386.59 436.108H1390.63M1386.59 436.108L1390.63 434.423M1276.76 430H1318.25M1276.76 430H1235.28M1331.71 423.629L1318.25 430M1331.71 423.629L1345.76 416.976M1331.71 423.629H1374.09M1318.25 430H1359.73M1235.28 430L1193.8 430M1235.28 430L1224.1 436.108M1359.73 430L1374.09 423.629M1359.73 430H1390.63M1224.1 436.108L1183.48 436.108M1345.76 416.976L1360.45 410.022M1345.76 416.976H1389.08M1374.09 423.629L1389.08 416.976M1374.09 423.629H1390.63M1390.84 430H1390.63M1389.08 416.976L1390.63 416.29M1389.08 416.976H1390.63M1316.15 410.022L1330.5 402.746M1316.15 410.022H1360.45M1316.15 410.022H1271.86M1360.45 410.022L1375.82 402.746M1360.45 410.022H1390.63M1391 416.124L1390.63 416.29M1330.5 402.746H1375.82M1330.5 402.746H1285.18M1375.82 402.746H1390.63M1375.82 402.746L1390.63 395.738M1285.18 402.746H1239.86M1285.18 402.746L1271.86 410.022M1271.86 410.022H1227.56M1377.82 378.749H1329.11M1377.82 378.749L1390.63 372.252M1377.82 378.749H1390.63M1390.98 387.136H1390.63M1329.11 378.749H1280.41M1329.11 378.749L1345.25 369.934M1390.77 372.18L1390.63 372.252M1044.44 477.145L1050.74 472.666M1044.44 477.145H1079.28M1044.44 477.145H1009.59M1072.58 481.469L1066.12 485.643M1072.58 481.469L1079.28 477.145M1072.58 481.469H1106.82M1066.12 485.643H1099.76M1066.12 485.643L1059.87 489.677M1026.79 489.677H1059.87M1026.79 489.677L1024.71 491.154L1021.3 493.576M1026.79 489.677H993.709M1079.28 477.145L1086.22 472.666M1079.28 477.145H1114.12M1106.82 481.469L1099.76 485.643M1106.82 481.469L1114.12 477.145M1099.76 485.643L1092.95 489.677M1059.87 489.677H1092.95M1059.87 489.677L1053.83 493.576M1114.12 477.145L1121.69 472.666M1126.02 489.677L1118.88 493.576M1126.02 489.677H1092.95M1092.95 489.677L1092.11 490.172L1090.45 491.154L1086.36 493.576M1050.74 472.666H1086.22M1050.74 472.666H1015.27M1093.41 468.021L1086.22 472.666M1093.41 468.021L1100.88 463.202M1093.41 468.021H1129.54M1086.22 472.666H1121.69M1015.27 472.666H979.796M1015.27 472.666L1009.59 477.145M1121.69 472.666L1129.54 468.021M1009.59 477.145H974.748M1100.88 463.202L1108.63 458.198M1100.88 463.202H1137.69M1129.54 468.021L1130.54 467.429L1137.69 463.202M1137.69 463.202L1146.14 458.198M1071.12 458.198L1072.02 457.559L1078.44 452.999M1071.12 458.198H1108.63M1071.12 458.198H1033.61M1108.63 458.198L1116.69 452.999M1108.63 458.198H1146.14M1146.14 458.198L1154.93 452.999M1078.44 452.999H1116.69M1078.44 452.999H1040.2M1125.06 447.593L1116.69 452.999M1125.06 447.593L1133.78 441.967M1125.06 447.593H1164.07M1116.69 452.999H1154.93M1040.2 452.999H1001.95M1040.2 452.999L1033.61 458.198M1154.93 452.999L1164.07 447.593M1033.61 458.198H996.097M1133.78 441.967L1142.85 436.108M1133.78 441.967H1173.57M1164.07 447.593L1173.57 441.967M1173.57 441.967L1183.48 436.108M1102.23 436.108L1110.83 430M1102.23 436.108H1142.85M1102.23 436.108H1061.61M1142.85 436.108L1152.32 430M1142.85 436.108H1183.48M1183.48 436.108L1193.8 430M1110.83 430H1152.32M1110.83 430H1069.35M1162.19 423.629L1152.32 430M1162.19 423.629L1172.49 416.976M1162.19 423.629H1204.57M1152.32 430H1193.8M1069.35 430H1027.87M1069.35 430L1061.61 436.108M1193.8 430L1204.57 423.629M1061.61 436.108H1020.98M1172.49 416.976L1183.26 410.022M1172.49 416.976H1215.81M1204.57 423.629L1215.81 416.976M1215.81 416.976L1227.56 410.022M1138.97 410.022L1149.21 402.746M1138.97 410.022H1183.26M1138.97 410.022H1094.67M1183.26 410.022L1194.54 402.746M1183.26 410.022L1227.56 410.022M1227.56 410.022L1239.86 402.746M1149.21 402.746H1194.54M1149.21 402.746H1103.89M1206.34 395.126L1194.54 402.746M1206.34 395.126L1218.72 387.136M1206.34 395.126L1252.74 395.126M1194.54 402.746L1239.86 402.746M1103.89 402.746H1058.57M1103.89 402.746L1094.67 410.022M1239.86 402.746L1252.74 395.126M1094.67 410.022H1050.37M1218.72 387.136L1231.71 378.749M1218.72 387.136L1266.24 387.136M1252.74 395.126L1266.24 387.136M1266.24 387.136L1280.41 378.749M1183.01 378.749L1195.42 369.934M1183.01 378.749L1231.71 378.749M1183.01 378.749H1134.31M1231.71 378.749L1245.37 369.934M1231.71 378.749H1280.41M1280.41 378.749L1295.31 369.934M1195.42 369.934H1245.37M1195.42 369.934H1145.48M1259.74 360.659L1245.37 369.934M1259.74 360.659L1274.88 350.885M1259.74 360.659L1310.99 360.659M1245.37 369.934L1295.31 369.934M1145.48 369.934H1095.54M1145.48 369.934L1134.31 378.749M1295.31 369.934L1310.99 360.659M1295.31 369.934H1345.25M1134.31 378.749H1085.61M1274.88 350.885L1290.86 340.57M1274.88 350.885L1327.5 350.885M1310.99 360.659L1327.5 350.885M1345.25 369.934H1390.63M1327.5 350.885L1344.93 340.57M1236.78 340.57L1252.13 329.672M1236.78 340.57L1290.86 340.57M1236.78 340.57H1182.7M1290.86 340.57L1307.74 329.672M1290.86 340.57H1344.93M1344.93 340.57L1363.35 329.672M1344.93 340.57H1390.63M1252.13 329.672L1307.74 329.672M1252.13 329.672H1196.51M1325.61 318.135L1307.74 329.672M1325.61 318.135L1344.56 305.906M1325.61 318.135H1382.85M1307.74 329.672H1363.35M1196.51 329.672H1140.9M1196.51 329.672L1182.7 340.57M1363.35 329.672L1382.85 318.135M1363.35 329.672H1390.63M1182.7 340.57H1128.62M1344.56 305.906L1364.68 292.916M1344.56 305.906H1390.63M1382.85 318.135H1390.63M1382.85 318.135L1390.63 313.534M1303.89 292.916L1323.36 279.095M1303.89 292.916H1364.68M1303.89 292.916L1243.1 292.916M1364.68 292.916L1386.09 279.095M1364.68 292.916H1390.63M1323.36 279.095H1386.09M1323.36 279.095L1260.62 279.095M1386.09 279.095L1390.63 276.168M1386.09 279.095H1390.63M1260.62 279.095H1197.88M1260.62 279.095L1243.1 292.916M1243.1 292.916H1182.31M1390.02 231.758H1320.62M1390.02 231.758H1390.63M1390.02 231.758L1390.63 231.33M1320.62 231.758H1251.22M1320.62 231.758L1343.56 213.66M905.062 477.145L906.465 475.485L906.937 474.926L908.846 472.666M905.062 477.145H939.905M905.062 477.145H870.218M935.643 481.469L932.543 484.613L931.528 485.643M935.643 481.469L939.364 477.694L939.905 477.145M935.643 481.469H969.878M931.528 485.643H965.175M931.528 485.643L927.551 489.677M894.473 489.677H927.551M894.473 489.677L893.224 491.154L891.178 493.576M894.473 489.677H861.394M939.905 477.145L940.995 476.041L944.322 472.666M939.905 477.145H974.748M969.878 481.469L965.175 485.643M969.878 481.469L974.748 477.145M965.175 485.643L961.752 488.681L960.63 489.677M927.551 489.677H960.63M927.551 489.677L923.707 493.576M974.748 477.145L979.796 472.666M993.709 489.677L993.082 490.172L988.766 493.576M993.709 489.677H960.63M960.63 489.677L958.965 491.154L956.237 493.576M908.846 472.666H944.322M908.846 472.666H873.372M948.9 468.021L944.322 472.666M948.9 468.021L953.651 463.202M948.9 468.021H985.029M944.322 472.666H979.796M873.372 472.666H837.898M873.372 472.666L870.218 477.145M979.796 472.666L985.029 468.021M870.218 477.145H835.375M953.651 463.202L956.712 460.097L957.333 459.467L958.584 458.198M953.651 463.202H990.458M985.029 468.021L990.458 463.202M990.458 463.202L996.097 458.198M921.072 458.198L925.465 452.999M921.072 458.198H958.584M921.072 458.198H883.56M958.584 458.198L963.71 452.999M958.584 458.198H996.097M996.097 458.198L1001.95 452.999M925.465 452.999H963.71M925.465 452.999H887.221M969.039 447.593L965.684 450.996L965.023 451.668L963.71 452.999M969.039 447.593L974.585 441.967M969.039 447.593H1008.04M963.71 452.999H1001.95M887.221 452.999H848.977M887.221 452.999L883.56 458.198M1001.95 452.999L1008.04 447.593M883.56 458.198H846.048M974.585 441.967L980.362 436.108M974.585 441.967H1014.38M1008.04 447.593L1014.38 441.967M1014.38 441.967L1020.98 436.108M939.739 436.108L942.292 433.086L942.938 432.321L944.899 430M939.739 436.108H980.362M939.739 436.108H899.115M980.362 436.108L986.382 430M980.362 436.108H1020.98M1020.98 436.108L1027.87 430M944.899 430H986.382M944.899 430H903.416M992.663 423.629L986.382 430M992.663 423.629L999.222 416.976M992.663 423.629H1035.04M986.382 430H1027.87M903.416 430H861.932M903.416 430L902.323 431.551L899.115 436.108M1027.87 430L1035.04 423.629M899.115 436.108H858.493M999.222 416.976L1006.08 410.022M999.222 416.976H1042.54M1035.04 423.629L1042.54 416.976M1042.54 416.976L1050.37 410.022M961.781 410.022L967.929 402.746M961.781 410.022H1006.08M961.781 410.022H917.484M1006.08 410.022L1013.25 402.746M1006.08 410.022H1050.37M1050.37 410.022L1058.57 402.746M967.929 402.746H1013.25M967.929 402.746H922.607M1020.76 395.126L1013.25 402.746M1020.76 395.126L1028.64 387.136M1020.76 395.126H1067.16M1013.25 402.746H1058.57M922.607 402.746H877.286M922.607 402.746L917.484 410.022M1058.57 402.746L1067.16 395.126M917.484 410.022H873.188M1028.64 387.136L1036.91 378.749M1028.64 387.136H1076.16M1067.16 395.126L1076.16 387.136M1076.16 387.136L1085.61 378.749M988.207 378.749L995.655 369.934M988.207 378.749H1036.91M988.207 378.749H939.506M1036.91 378.749L1045.6 369.934M1036.91 378.749H1085.61M1085.61 378.749L1095.54 369.934M995.655 369.934H1045.6M995.655 369.934H945.712M1054.74 360.659L1045.6 369.934M1054.74 360.659L1064.38 350.885M1054.74 360.659H1105.99M1045.6 369.934H1095.54M945.712 369.934H895.77M945.712 369.934L939.506 378.749M1095.54 369.934L1105.99 360.659M939.506 378.749H890.804M1064.38 350.885L1074.55 340.57M1064.38 350.885H1117M1105.99 360.659L1117 350.885M1117 350.885L1128.62 340.57M1020.47 340.57L1029.68 329.672M1020.47 340.57H1074.55M1020.47 340.57H966.389M1074.55 340.57L1085.29 329.672M1074.55 340.57H1128.62M1128.62 340.57L1140.9 329.672M1029.68 329.672H1085.29M1029.68 329.672H974.064M1096.66 318.135L1085.29 329.672M1096.66 318.135L1108.72 305.906M1096.66 318.135H1153.9M1085.29 329.672H1140.9M974.064 329.672H918.451M974.064 329.672L966.389 340.57M1140.9 329.672L1153.9 318.135M966.389 340.57H912.312M1108.72 305.906L1121.52 292.916M1108.72 305.906H1167.68M1153.9 318.135L1167.68 305.906M1167.68 305.906L1182.31 292.916M1060.73 292.916L1072.41 279.095M1060.73 292.916H1121.52M1060.73 292.916H999.946M1121.52 292.916L1135.15 279.095M1121.52 292.916H1182.31M1182.31 292.916L1197.88 279.095M1072.41 279.095H1135.15M1072.41 279.095H1009.68M1149.68 264.36L1135.15 279.095M1149.68 264.36L1165.2 248.616M1149.68 264.36H1214.49M1135.15 279.095H1197.88M1009.68 279.095H946.942M1009.68 279.095L999.946 292.916M1197.88 279.095L1214.49 264.36M999.946 292.916H939.157M1165.2 248.616L1181.82 231.758M1165.2 248.616H1232.22M1214.49 264.36L1232.22 248.616M1232.22 248.616L1251.22 231.758M1112.41 231.758L1127.71 213.66M1112.41 231.758L1181.82 231.758M1112.41 231.758H1043.01M1181.82 231.758L1199.66 213.66M1181.82 231.758H1251.22M1251.22 231.758L1271.61 213.66M1127.71 213.66L1199.66 213.66M1127.71 213.66H1055.75M1218.86 194.183L1199.66 213.66M1218.86 194.183L1239.58 173.162M1218.86 194.183H1293.55M1199.66 213.66H1271.61M1055.75 213.66H983.804M1055.75 213.66L1043.01 231.758M1271.61 213.66L1293.55 194.183M1271.61 213.66H1343.56M1043.01 231.758H973.609M1239.58 173.162L1262.01 150.406M1239.58 173.162H1317.24M1293.55 194.183L1317.24 173.162M1343.56 213.66H1390.63M1317.24 173.162L1342.87 150.406M1317.24 173.162H1390.63M1181.16 150.406L1202.04 125.691M1181.16 150.406H1262.01M1181.16 150.406L1100.3 150.406M1262.01 150.406L1286.38 125.691M1262.01 150.406H1342.87M1342.87 150.406L1370.72 125.691M1342.87 150.406H1390.63M1202.04 125.691H1286.38M1202.04 125.691L1117.7 125.691M1312.94 98.7528L1286.38 125.691M1312.94 98.7528L1341.99 69.2768M1312.94 98.7528H1390.63M1286.38 125.691H1370.72M1117.7 125.691H1033.36M1117.7 125.691L1100.3 150.406M1370.72 125.691H1390.63M1370.72 125.691L1390.63 108.022M1100.3 150.406H1019.44M1341.99 69.2768L1373.93 36.8863M1341.99 69.2768H1390.63M1277.08 36.8863L1307.3 1.12695M1277.08 36.8863H1373.93M1277.08 36.8863H1180.23M1373.93 36.8863L1390.63 19.9457M1373.93 36.8863H1390.63M1307.3 1.12695H1205.41M1307.3 1.12695L1390.63 1.12762M1205.41 1.12695L1103.53 1.12695M1205.41 1.12695L1180.23 36.8863M1180.23 36.8863L1083.39 36.8863M765.687 477.145L765.843 476.594L765.998 476.041L766.155 475.485L766.312 474.926L766.789 473.235L766.949 472.666M765.687 477.145H800.531M765.687 477.145H730.844M798.704 481.469L797.376 484.613L796.941 485.643M798.704 481.469L799.839 478.785L800.531 477.145M798.704 481.469H832.939M796.941 485.643H830.587M796.941 485.643L795.657 488.681L795.236 489.677M762.157 489.677L762.019 490.172L761.467 492.13L761.059 493.576M762.157 489.677H795.236M762.157 489.677H729.079M800.531 477.145L800.763 476.594L800.998 476.041L801.232 475.485L801.469 474.926L802.423 472.666M800.531 477.145H835.375M832.939 481.469L831.168 484.613L830.587 485.643M832.939 481.469L835.375 477.145M830.587 485.643L829.441 487.677L828.595 489.18L828.315 489.677M795.236 489.677L795.028 490.172L794.612 491.154L794.2 492.13L793.996 492.614L793.588 493.576M795.236 489.677H828.315M835.375 477.145L837.259 473.801L837.898 472.666M861.394 489.677L859.326 492.614L858.648 493.576M861.394 489.677H828.315M828.315 489.677L826.389 493.096L826.118 493.576M766.949 472.666H802.423M766.949 472.666H731.474M804.385 468.021L802.423 472.666M804.385 468.021L806.422 463.202M804.385 468.021H840.514M802.423 472.666H837.898M731.474 472.666H696M731.474 472.666L730.844 477.145M837.898 472.666L840.514 468.021M730.844 477.145H696M806.422 463.202L806.943 461.969L807.734 460.097L808.536 458.198M806.422 463.202H843.23M840.514 468.021L840.848 467.429L843.23 463.202M843.23 463.202L843.575 462.587L843.924 461.969L844.274 461.347L846.048 458.198M771.024 458.198L772.488 452.999M771.024 458.198H808.536M771.024 458.198H733.512M808.536 458.198L810.733 452.999M808.536 458.198H846.048M846.048 458.198L848.234 454.318L848.605 453.66L848.977 452.999M772.488 452.999H810.733M772.488 452.999H734.244M813.017 447.593L813.309 446.901L813.602 446.207L813.897 445.509L815.394 441.967M813.017 447.593L811.864 450.323L811.579 450.996L811.296 451.668L810.733 452.999M813.017 447.593H852.022M810.733 452.999H848.977M734.244 452.999H696M734.244 452.999L733.512 458.198M848.977 452.999L852.022 447.593M733.512 458.198H696M815.394 441.967L817.555 436.853L817.869 436.108M815.394 441.967H855.192M852.022 447.593L852.803 446.207L855.192 441.967M855.192 441.967L856.414 439.798L858.493 436.108M777.246 436.108L778.098 433.086L778.313 432.321L778.966 430M777.246 436.108H817.869M777.246 436.108H736.623M817.869 436.108L820.45 430M817.869 436.108H858.493M858.493 436.108L861.932 430M778.966 430H820.45M778.966 430H737.483M823.141 423.629L820.45 430M823.141 423.629L825.952 416.976M823.141 423.629H865.522M820.45 430H861.932M737.483 430H696M737.483 430L737.264 431.551L736.835 434.605L736.623 436.108M861.932 430L865.522 423.629M736.623 436.108H696M825.952 416.976L828.143 411.79L828.891 410.022M825.952 416.976H869.27M865.522 423.629L869.27 416.976M869.27 416.976L871.206 413.538L873.188 410.022M784.594 410.022L786.643 402.746M784.594 410.022H828.891M784.594 410.022H740.297M828.891 410.022L831.964 402.746M828.891 410.022H873.188M873.188 410.022L877.286 402.746M786.643 402.746H831.964M786.643 402.746H741.322M835.184 395.126L834.365 397.064L831.964 402.746M835.184 395.126L838.56 387.136M835.184 395.126H881.579M831.964 402.746H877.286M741.322 402.746H696M741.322 402.746L740.297 410.022M877.286 402.746L881.579 395.126M740.297 410.022H696M838.56 387.136L842.103 378.749M838.56 387.136H886.079M881.579 395.126L886.079 387.136M886.079 387.136L890.804 378.749M793.402 378.749L795.885 369.934M793.402 378.749H842.103M793.402 378.749H744.701M842.103 378.749L845.827 369.934M842.103 378.749H890.804M890.804 378.749L895.77 369.934M795.885 369.934H845.827M795.885 369.934H745.942M849.747 360.659L845.827 369.934M849.747 360.659L853.876 350.885M849.747 360.659H900.995M845.827 369.934H895.77M745.942 369.934H696M745.942 369.934L744.852 377.671L744.701 378.749M895.77 369.934L900.995 360.659M744.701 378.749H696M853.876 350.885L858.234 340.57M853.876 350.885H906.501M900.995 360.659L905.097 353.376L906.501 350.885M906.501 350.885L912.312 340.57M804.155 340.57L807.226 329.672M804.155 340.57H858.234M804.155 340.57H750.078M858.234 340.57L862.838 329.672M858.234 340.57H912.312M912.312 340.57L918.451 329.672M807.226 329.672H862.838M807.226 329.672H751.613M867.712 318.135L862.838 329.672M867.712 318.135L872.879 305.906M867.712 318.135H924.949M862.838 329.672H918.451M751.613 329.672H696M751.613 329.672L750.078 340.57M918.451 329.672L924.949 318.135M750.078 340.57H696M872.879 305.906L878.368 292.916M872.879 305.906H931.839M924.949 318.135L931.839 305.906M931.839 305.906L939.157 292.916M817.578 292.916L821.471 279.095M817.578 292.916H878.368M817.578 292.916H756.789M878.368 292.916L884.207 279.095M878.368 292.916H939.157M939.157 292.916L946.942 279.095M821.471 279.095H884.207M821.471 279.095H758.736M890.432 264.36L884.207 279.095M890.432 264.36L897.084 248.616M890.432 264.36H955.243M884.207 279.095H946.942M758.736 279.095H696M758.736 279.095L756.789 292.916M946.942 279.095L955.243 264.36M756.789 292.916H696M897.084 248.616L904.207 231.758M897.084 248.616H964.112M955.243 264.36L964.112 248.616M964.112 248.616L973.609 231.758M834.804 231.758L839.902 213.66M834.804 231.758H904.207M834.804 231.758H765.403M904.207 231.758L911.853 213.66M904.207 231.758H973.609M973.609 231.758L983.804 213.66M839.902 213.66H911.853M839.902 213.66H767.951M920.082 194.183L911.853 213.66M920.082 194.183L928.963 173.162M920.082 194.183H994.776M911.853 213.66H983.804M767.951 213.66L696 213.66M767.951 213.66L765.403 231.758M983.804 213.66L994.776 194.183M765.403 231.758L696 231.758M928.963 173.162L938.578 150.406M928.963 173.162H1006.62M994.776 194.183L1006.62 173.162M1006.62 173.162L1019.44 150.406M857.718 150.406L864.68 125.691M857.718 150.406H938.578M857.718 150.406H776.859M938.578 150.406L949.02 125.691M938.578 150.406H1019.44M1019.44 150.406L1033.36 125.691M864.68 125.691H949.02M864.68 125.691H780.34M960.401 98.7528L949.02 125.691M960.401 98.7528L972.855 69.2768M960.401 98.7528H1048.54M949.02 125.691H1033.36M780.34 125.691L696 125.691M780.34 125.691L776.859 150.406M1033.36 125.691L1048.54 98.7528M776.859 150.406L696 150.406M972.855 69.2768L986.54 36.8863M972.855 69.2768H1065.14M1048.54 98.7528L1065.14 69.2768M1065.14 69.2768L1083.39 36.8863M889.693 36.8863L899.765 1.12695M889.693 36.8863H986.54M889.693 36.8863H792.847M986.54 36.8863L1001.65 1.12695M986.54 36.8863H1083.39M1083.39 36.8863L1103.53 1.12695M1001.65 1.12695H899.765M1001.65 1.12695H1103.53M899.765 1.12695H797.883M797.883 1.12695L696 1.12695M797.883 1.12695L792.847 36.8863M792.847 36.8863L696 36.8863M626.313 477.145L626.158 476.594L626.002 476.041L625.845 475.485L625.688 474.926L625.371 473.801L625.211 473.235L625.051 472.666M626.313 477.145H661.157M626.313 477.145H591.469M661.765 481.469L662.353 485.643M661.765 481.469L661.157 477.145M661.765 481.469L696 481.469M662.353 485.643L662.425 486.155L662.497 486.665L662.568 487.172L662.921 489.677M662.353 485.643L696 485.643M629.843 489.677L629.982 490.172L630.533 492.13L630.941 493.576M629.843 489.677H662.921M629.843 489.677H596.764M661.157 477.145L661.078 476.594L661.001 476.041L660.922 475.485L660.526 472.666M661.157 477.145L696 477.145M696 481.469V485.643M696 481.469V477.145M696 485.643V489.677M662.921 489.677L696 489.677M662.921 489.677L663.129 491.154L663.198 491.643L663.471 493.576M696 477.145V472.666M729.079 489.677L728.871 491.154L728.802 491.643L728.734 492.13L728.665 492.614L728.597 493.096L728.53 493.576M729.079 489.677H696M696 489.677V493.576M625.051 472.666H660.526M625.051 472.666H589.577M659.872 468.021L659.788 467.429L659.704 466.833L659.193 463.202M659.872 468.021L660.526 472.666M659.872 468.021L696 468.021M660.526 472.666L696 472.666M589.577 472.666H554.102M589.577 472.666L590.056 473.801L590.295 474.364L590.531 474.926L590.768 475.485L591.002 476.041L591.237 476.594L591.469 477.145M696 472.666V468.021M591.469 477.145H556.626M659.193 463.202L658.488 458.198M659.193 463.202L696 463.202M696 468.021V463.202M696 463.202V458.198M620.976 458.198L619.512 452.999M620.976 458.198H658.488M620.976 458.198H583.464M658.488 458.198L657.756 452.999M658.488 458.198L696 458.198M696 458.198V452.999M619.512 452.999H657.756M619.512 452.999H581.267M656.995 447.593L657.756 452.999M656.995 447.593L656.202 441.967M656.995 447.593L696 447.593M657.756 452.999L696 452.999M581.267 452.999H543.023M581.267 452.999L583.464 458.198M696 452.999V447.593M583.464 458.198H545.952M656.202 441.967L655.897 439.798L655.587 437.595L655.377 436.108M656.202 441.967L696 441.967M696 447.593V441.967M696 441.967V436.108M614.754 436.108L613.903 433.086L613.688 432.321L613.034 430M614.754 436.108L655.377 436.108M614.754 436.108H574.131M655.377 436.108L655.165 434.605L654.736 431.551L654.517 430M655.377 436.108H696M696 436.108V430M613.034 430L654.517 430M613.034 430H571.551M653.62 423.629L653.733 424.441L654.517 430M653.62 423.629L652.683 416.976M653.62 423.629H696M654.517 430H696M571.551 430H530.068M571.551 430L574.131 436.108M696 430V423.629M574.131 436.108H533.508M652.683 416.976L651.703 410.022M652.683 416.976H696M696 423.629V416.976M696 416.976V410.022M607.406 410.022L605.357 402.746M607.406 410.022L651.703 410.022M607.406 410.022H563.109M651.703 410.022L650.679 402.746M651.703 410.022H696M696 410.022V402.746M605.357 402.746L650.679 402.746M605.357 402.746H560.036M649.606 395.126L650.679 402.746M649.606 395.126L648.48 387.136M649.606 395.126H696M650.679 402.746H696M560.036 402.746H514.714M560.036 402.746L563.109 410.022M696 402.746V395.126M563.109 410.022H518.813M648.48 387.136L647.299 378.749M648.48 387.136H696M696 395.126V387.136M696 387.136V378.749M598.598 378.749L596.115 369.934M598.598 378.749L647.299 378.749M598.598 378.749H549.897M647.299 378.749L646.058 369.934M647.299 378.749H696M696 378.749V369.934M596.115 369.934H646.058M596.115 369.934L546.173 369.934M644.751 360.659L646.058 369.934M644.751 360.659L643.375 350.885M644.751 360.659H696M646.058 369.934H696M546.173 369.934H496.23M546.173 369.934L549.897 378.749M696 369.934V360.659M549.897 378.749H501.196M643.375 350.885L641.922 340.57M643.375 350.885H696M696 360.659V350.885M696 350.885V340.57M587.845 340.57L584.775 329.672M587.845 340.57H641.922M587.845 340.57L533.767 340.57M641.922 340.57L640.387 329.672M641.922 340.57H696M696 340.57V329.672M584.775 329.672H640.387M584.775 329.672L529.162 329.672M638.763 318.135L640.387 329.672M638.763 318.135L637.04 305.906M638.763 318.135H696M640.387 329.672H696M529.162 329.672H473.549M529.162 329.672L533.767 340.57M696 329.672V318.135M533.767 340.57H479.688M637.04 305.906L635.211 292.916M637.04 305.906H696M696 318.135V305.906M696 305.906V292.916M574.422 292.916L570.529 279.095M574.422 292.916L635.211 292.916M574.422 292.916H513.633M635.211 292.916L633.264 279.095M635.211 292.916H696M696 292.916V279.095M570.529 279.095L633.264 279.095M570.529 279.095H507.793M631.189 264.36L633.264 279.095M631.189 264.36L628.972 248.616M631.189 264.36H696M633.264 279.095H696M507.793 279.095H445.058M507.793 279.095L513.633 292.916M696 279.095V264.36M513.633 292.916H452.843M628.972 248.616L626.598 231.758M628.972 248.616H696M696 264.36V248.616M696 248.616V231.758M557.196 231.758L552.098 213.66M557.196 231.758H626.598M557.196 231.758H487.793M626.598 231.758L624.049 213.66M626.598 231.758H696M696 231.758V213.66M552.098 213.66H624.049M552.098 213.66H480.147M621.306 194.183L624.049 213.66M621.306 194.183L618.346 173.162M621.306 194.183H696M624.049 213.66H696M480.147 213.66H408.196M480.147 213.66L487.793 231.758M696 213.66V194.183M487.793 231.758H418.391M618.346 173.162L615.141 150.406M618.346 173.162H696M696 194.183V173.162M696 173.162V150.406M534.282 150.406L527.32 125.691M534.282 150.406H615.141M534.282 150.406H453.422M615.141 150.406L611.66 125.691M615.141 150.406H696M696 150.406V125.691M527.32 125.691H611.66M527.32 125.691H442.98M607.866 98.7528L611.66 125.691M607.866 98.7528L603.715 69.2768M607.866 98.7528H696M611.66 125.691H696M442.98 125.691H358.64M442.98 125.691L453.422 150.406M696 125.691V98.7528M453.422 150.406H372.563M603.715 69.2768L599.153 36.8863M603.715 69.2768H696M696 98.7528V69.2768M696 69.2768V36.8863M502.307 36.8863L492.235 1.12695M502.307 36.8863H599.153M502.307 36.8863H405.46M599.153 36.8863L594.117 1.12695M599.153 36.8863H696M696 36.8863L696 1.12695M594.117 1.12695H492.235M594.117 1.12695H696M492.235 1.12695H390.352M390.352 1.12695H288.47M390.352 1.12695L405.46 36.8863M405.46 36.8863H308.614M486.939 477.145L485.063 474.926L483.154 472.666M486.939 477.145H521.782M486.939 477.145H452.095M524.826 481.469L527.766 485.643M524.826 481.469L521.782 477.145M524.826 481.469H559.061M527.766 485.643H561.413M527.766 485.643L529.905 488.681L530.606 489.677M497.527 489.677H530.606M497.527 489.677L498.776 491.154L500.822 493.576M497.527 489.677H464.449M521.782 477.145L518.628 472.666M521.782 477.145H556.626M559.061 481.469L561.413 485.643M559.061 481.469L556.626 477.145M561.413 485.643L562.559 487.677L563.405 489.18L563.685 489.677M530.606 489.677H563.685M530.606 489.677L532.674 492.614L533.352 493.576M556.626 477.145L554.741 473.801L554.102 472.666M596.764 489.677L596.972 490.172L597.388 491.154L598.004 492.614L598.412 493.576M596.764 489.677H563.685M563.685 489.677L563.963 490.172L564.518 491.154L565.882 493.576M483.154 472.666H518.628M483.154 472.666H447.679M515.357 468.021L515.773 468.611L516.186 469.199L517.821 471.521L518.628 472.666M515.357 468.021L512.824 464.424L511.963 463.202M515.357 468.021H551.486M518.628 472.666H554.102M447.679 472.666H412.204M447.679 472.666L451.005 476.041L452.095 477.145M554.102 472.666L551.486 468.021M452.095 477.145H417.251M511.963 463.202L511.531 462.587L511.095 461.969L509.777 460.097L509.333 459.467L508.44 458.198M511.963 463.202H548.77M551.486 468.021L551.152 467.429L548.77 463.202M548.77 463.202L548.425 462.587L548.076 461.969L547.726 461.347L545.952 458.198M470.928 458.198L466.535 452.999M470.928 458.198H508.44M470.928 458.198H433.416M508.44 458.198L504.779 452.999M508.44 458.198H545.952M545.952 458.198L543.023 452.999M466.535 452.999H504.779M466.535 452.999H428.29M500.972 447.593L504.779 452.999M500.972 447.593L497.011 441.967M500.972 447.593H539.978M504.779 452.999H543.023M428.29 452.999H390.046M428.29 452.999L433.416 458.198M543.023 452.999L539.978 447.593M433.416 458.198H395.904M497.011 441.967L492.885 436.108M497.011 441.967H536.808M539.978 447.593L539.197 446.207L536.808 441.967M536.808 441.967L535.586 439.798L534.345 437.595L533.508 436.108M452.262 436.108L449.708 433.086L447.101 430M452.262 436.108H492.885M452.262 436.108H411.638M492.885 436.108L488.584 430M492.885 436.108H533.508M533.508 436.108L530.068 430M447.101 430H488.584M447.101 430H405.618M484.098 423.629L488.584 430M484.098 423.629L479.413 416.976M484.098 423.629H526.478M488.584 430H530.068M405.618 430H364.135M405.618 430L411.638 436.108M530.068 430L526.478 423.629M411.638 436.108H371.016M479.413 416.976L478.209 415.267L474.516 410.022M479.413 416.976H522.73M526.478 423.629L522.73 416.976M522.73 416.976L522.25 416.124L520.794 413.538L518.813 410.022M430.22 410.022L424.071 402.746M430.22 410.022H474.516M430.22 410.022H385.923M474.516 410.022L469.393 402.746M474.516 410.022H518.813M518.813 410.022L514.714 402.746M424.071 402.746H469.393M424.071 402.746H378.75M464.027 395.126L467.41 399.93L469.393 402.746M464.027 395.126L458.4 387.136M464.027 395.126H510.421M469.393 402.746H514.714M378.75 402.746H333.428M378.75 402.746L385.923 410.022M514.714 402.746L510.421 395.126M385.923 410.022H341.626M458.4 387.136L452.495 378.749M458.4 387.136H505.921M510.421 395.126L505.921 387.136M505.921 387.136L501.196 378.749M403.793 378.749L396.345 369.934M403.793 378.749H452.495M403.793 378.749H355.093M452.495 378.749L446.288 369.934M452.495 378.749H501.196M501.196 378.749L496.23 369.934M396.345 369.934H446.288M396.345 369.934L346.403 369.934M439.756 360.659L446.288 369.934M439.756 360.659L432.874 350.885M439.756 360.659H491.005M446.288 369.934H496.23M346.403 369.934H296.461M346.403 369.934L355.093 378.749M496.23 369.934L491.005 360.659M355.093 378.749H306.392M432.874 350.885L425.611 340.57M432.874 350.885H485.499M491.005 360.659L485.499 350.885M485.499 350.885L479.688 340.57M371.533 340.57L362.323 329.672M371.533 340.57H425.611M371.533 340.57L317.455 340.57M425.611 340.57L417.936 329.672M425.611 340.57H479.688M479.688 340.57L473.549 329.672M362.323 329.672H417.936M362.323 329.672L306.711 329.672M409.813 318.135L417.936 329.672M409.813 318.135L401.201 305.906M409.813 318.135H467.051M417.936 329.672H473.549M306.711 329.672H251.098M306.711 329.672L317.455 340.57M473.549 329.672L467.051 318.135M317.455 340.57H263.378M401.201 305.906L392.054 292.916M401.201 305.906H460.161M467.051 318.135L460.161 305.906M460.161 305.906L452.843 292.916M331.265 292.916L319.587 279.095M331.265 292.916L392.054 292.916M331.265 292.916H270.476M392.054 292.916L382.322 279.095M392.054 292.916H452.843M452.843 292.916L445.058 279.095M319.587 279.095L382.322 279.095M319.587 279.095H256.851M371.946 264.36L382.322 279.095M371.946 264.36L360.86 248.616M371.946 264.36H436.757M382.322 279.095H445.058M256.851 279.095H194.115M256.851 279.095L270.476 292.916M445.058 279.095L436.757 264.36M270.476 292.916H209.687M360.86 248.616L348.989 231.758M360.86 248.616H427.888M436.757 264.36L427.888 248.616M427.888 248.616L418.391 231.758M279.586 231.758L264.294 213.66M279.586 231.758H348.989M279.586 231.758L210.184 231.758M348.989 231.758L336.245 213.66M348.989 231.758H418.391M418.391 231.758L408.196 213.66M264.294 213.66H336.245M264.294 213.66L192.343 213.66M322.53 194.183L336.245 213.66M322.53 194.183L307.728 173.162M322.53 194.183H397.224M336.245 213.66H408.196M192.343 213.66H120.392M192.343 213.66L210.184 231.758M408.196 213.66L397.224 194.183M210.184 231.758H140.781M307.728 173.162L291.704 150.406M307.728 173.162H385.382M397.224 194.183L385.382 173.162M385.382 173.162L372.563 150.406M210.845 150.406L189.961 125.691M210.845 150.406L291.704 150.406M210.845 150.406H129.986M291.704 150.406L274.301 125.691M291.704 150.406H372.563M372.563 150.406L358.64 125.691M189.961 125.691L274.301 125.691M189.961 125.691H105.621M255.332 98.7528L274.301 125.691M255.332 98.7528L234.575 69.2768M255.332 98.7528H343.465M274.301 125.691H358.64M105.621 125.691H21.2809M105.621 125.691L129.986 150.406M358.64 125.691L343.465 98.7528M129.986 150.406H49.1267M234.575 69.2768L211.768 36.8863M234.575 69.2768H326.861M343.465 98.7528L326.861 69.2768M326.861 69.2768L308.614 36.8863M114.921 36.8863L84.7046 1.12695M114.921 36.8863H211.768M114.921 36.8863H18.0741M211.768 36.8863L186.587 1.12695M211.768 36.8863L308.614 36.8863M308.614 36.8863L288.47 1.12695M186.587 1.12695H84.7046M186.587 1.12695L288.47 1.12695M84.7046 1.12695L1.37409 1.12762M18.0741 36.8863L1.37409 19.9457M18.0741 36.8863H1.37409M347.564 477.145L341.255 472.666M347.564 477.145H382.408M347.564 477.145H312.721M387.887 481.469L393.179 485.643M387.887 481.469L382.408 477.145M387.887 481.469H422.122M393.179 485.643H426.825M393.179 485.643L398.291 489.677M365.212 489.677H398.291M365.212 489.677L367.294 491.154L370.705 493.576M365.212 489.677H332.133M382.408 477.145L376.73 472.666M382.408 477.145H417.251M422.122 481.469L426.825 485.643M422.122 481.469L417.251 477.145M426.825 485.643L430.248 488.681L431.37 489.677M398.291 489.677L398.918 490.172L403.234 493.576M398.291 489.677H431.37M417.251 477.145L412.204 472.666M464.449 489.677L468.293 493.576M464.449 489.677H431.37M431.37 489.677L433.035 491.154L435.764 493.576M341.255 472.666H376.73M341.255 472.666H305.781M370.843 468.021L376.73 472.666M370.843 468.021L364.734 463.202M370.843 468.021H406.971M376.73 472.666H412.204M305.781 472.666H270.306M305.781 472.666L312.721 477.145M412.204 472.666L406.971 468.021M312.721 477.145H277.877M364.734 463.202L363.171 461.969L358.392 458.198M364.734 463.202H401.542M406.971 468.021L401.542 463.202M401.542 463.202L395.904 458.198M320.88 458.198L319.98 457.559L313.558 452.999M320.88 458.198H358.392M320.88 458.198H283.368M358.392 458.198L351.802 452.999M358.392 458.198H395.904M395.904 458.198L395.184 457.559L390.046 452.999M313.558 452.999H351.802M313.558 452.999H275.314M344.95 447.593L351.802 452.999M344.95 447.593L337.819 441.967M344.95 447.593H383.955M351.802 452.999H390.046M275.314 452.999L237.069 452.999M275.314 452.999L283.368 458.198M390.046 452.999L383.955 447.593M283.368 458.198L245.856 458.198M337.819 441.967L330.392 436.108M337.819 441.967H377.617M383.955 447.593L377.617 441.967M377.617 441.967L371.016 436.108M289.77 436.108L281.169 430M289.77 436.108L330.392 436.108M289.77 436.108H249.146M330.392 436.108L322.652 430M330.392 436.108H371.016M371.016 436.108L364.135 430M281.169 430L322.652 430M281.169 430H239.685M314.576 423.629L322.652 430M314.576 423.629L306.143 416.976M314.576 423.629H356.956M322.652 430H364.135M239.685 430H198.202M239.685 430L249.146 436.108M364.135 430L356.956 423.629M249.146 436.108H208.523M306.143 416.976L297.329 410.022M306.143 416.976H349.461M356.956 423.629L349.461 416.976M349.461 416.976L341.626 410.022M253.032 410.022L242.786 402.746M253.032 410.022L297.329 410.022M253.032 410.022H208.735M297.329 410.022L288.107 402.746M297.329 410.022H341.626M341.626 410.022L333.428 402.746M242.786 402.746H288.107M242.786 402.746H197.464M278.448 395.126L288.107 402.746M278.448 395.126L268.321 387.136M278.448 395.126L324.843 395.126M288.107 402.746L333.428 402.746M197.464 402.746H152.143M197.464 402.746L208.735 410.022M333.428 402.746L324.843 395.126M208.735 410.022H164.438M268.321 387.136L257.69 378.749M268.321 387.136L315.841 387.136M324.843 395.126L315.841 387.136M315.841 387.136L306.392 378.749M208.989 378.749L196.576 369.934M208.989 378.749H257.69M208.989 378.749H160.289M257.69 378.749L246.518 369.934M257.69 378.749L306.392 378.749M306.392 378.749L296.461 369.934M196.576 369.934H246.518M196.576 369.934H146.633M234.76 360.659L246.518 369.934M234.76 360.659L222.372 350.885M234.76 360.659H286.009M246.518 369.934H296.461M146.633 369.934H96.6905M146.633 369.934L160.289 378.749M296.461 369.934L286.009 360.659M160.289 378.749H111.587M222.372 350.885L209.3 340.57M222.372 350.885H274.997M286.009 360.659L274.997 350.885M274.997 350.885L263.378 340.57M155.221 340.57L139.872 329.672M155.221 340.57H209.3M155.221 340.57H101.144M209.3 340.57L195.485 329.672M209.3 340.57H263.378M263.378 340.57L251.098 329.672M139.872 329.672H195.485M139.872 329.672H84.2596M180.863 318.135L195.485 329.672M180.863 318.135L165.362 305.906M180.863 318.135H238.1M195.485 329.672H251.098M84.2596 329.672H28.6468M84.2596 329.672L101.144 340.57M251.098 329.672L238.1 318.135M101.144 340.57H47.066M165.362 305.906L148.897 292.916M165.362 305.906H224.322M238.1 318.135L224.322 305.906M224.322 305.906L209.687 292.916M88.1083 292.916L68.6443 279.095M88.1083 292.916H148.897M88.1083 292.916H27.3191M148.897 292.916L131.38 279.095M148.897 292.916H209.687M209.687 292.916L194.115 279.095M68.6443 279.095H131.38M68.6443 279.095H5.90869M112.702 264.36L131.38 279.095M112.702 264.36L92.7478 248.616M112.702 264.36H177.513M131.38 279.095H194.115M5.90869 279.095L27.3191 292.916M5.90869 279.095H1.37409M5.90869 279.095L1.37409 276.168M194.115 279.095L177.513 264.36M27.3191 292.916H1.37409M92.7478 248.616L71.3794 231.758M92.7478 248.616L159.776 248.616M177.513 264.36L159.776 248.616M159.776 248.616L140.781 231.758M1.97682 231.758H71.3794M1.97682 231.758H1.37409M1.97682 231.758L1.37409 231.33M71.3794 231.758L48.4408 213.66M71.3794 231.758H140.781M140.781 231.758L120.392 213.66M23.7541 194.183L48.4408 213.66M23.7541 194.183H98.4481M23.7541 194.183H1.37409M23.7541 194.183L1.37409 176.526M48.4408 213.66H120.392M48.4408 213.66H1.37409M120.392 213.66L98.4481 194.183M98.4481 194.183L74.7649 173.162M74.7649 173.162L49.1267 150.406M74.7649 173.162H1.37409M49.1267 150.406L21.2809 125.691M49.1267 150.406H1.37409M21.2809 125.691H1.37409M21.2809 125.691L1.37409 108.022M208.19 477.145L199.358 472.666M208.19 477.145H243.034M208.19 477.145H173.346M250.948 481.469L258.591 485.643M250.948 481.469L243.034 477.145M250.948 481.469H285.183M258.591 485.643H292.238M258.591 485.643L265.976 489.677M232.897 489.677L265.976 489.677M232.897 489.677L240.586 493.576M232.897 489.677H199.819M243.034 477.145L234.832 472.666M243.034 477.145L277.877 477.145M285.183 481.469L292.238 485.643M285.183 481.469L277.877 477.145M292.238 485.643L299.055 489.677M265.976 489.677L266.881 490.172L273.115 493.576M265.976 489.677H299.055M277.877 477.145L270.306 472.666M332.133 489.677L338.174 493.576M332.133 489.677H299.055M299.055 489.677L299.89 490.172L305.645 493.576M199.358 472.666H234.832M199.358 472.666H163.883M226.328 468.021L234.832 472.666M226.328 468.021L217.505 463.202M226.328 468.021L262.457 468.021M234.832 472.666L270.306 472.666M163.883 472.666H128.409M163.883 472.666L173.346 477.145M270.306 472.666L262.457 468.021M173.346 477.145H138.503M217.505 463.202L208.344 458.198M217.505 463.202H254.312M262.457 468.021L261.455 467.429L254.312 463.202M254.312 463.202L245.856 458.198M170.832 458.198L160.581 452.999M170.832 458.198H208.344M170.832 458.198H133.32M208.344 458.198L198.825 452.999M208.344 458.198H245.856M245.856 458.198L237.069 452.999M160.581 452.999H198.825M160.581 452.999H122.337M188.927 447.593L198.825 452.999M188.927 447.593L178.627 441.967M188.927 447.593H227.933M198.825 452.999H237.069M122.337 452.999H84.0925M122.337 452.999L133.32 458.198M237.069 452.999L227.933 447.593M133.32 458.198H95.8078M178.627 441.967L167.9 436.108M178.627 441.967H218.425M227.933 447.593L218.425 441.967M218.425 441.967L208.523 436.108M127.277 436.108L115.236 430M127.277 436.108H167.9M127.277 436.108H86.6539M167.9 436.108L156.719 430M167.9 436.108H208.523M208.523 436.108L198.202 430M115.236 430H156.719M115.236 430H73.7527M145.054 423.629L156.719 430M145.054 423.629L132.873 416.976M145.054 423.629H187.435M156.719 430H198.202M73.7527 430H32.2697M73.7527 430L86.6539 436.108M198.202 430L187.435 423.629M86.6539 436.108H46.0313M132.873 416.976L120.141 410.022M132.873 416.976H176.19M187.435 423.629L176.19 416.976M176.19 416.976L164.438 410.022M75.8445 410.022L61.4998 402.746M75.8445 410.022H120.141M75.8445 410.022H31.5483M120.141 410.022L106.821 402.746M120.141 410.022H164.438M164.438 410.022L152.143 402.746M61.4998 402.746H106.821M92.8693 395.126L106.821 402.746M92.8693 395.126L78.2417 387.136M92.8693 395.126H139.265M106.821 402.746H152.143M152.143 402.746L139.265 395.126M31.5483 410.022H1.37409M78.2417 387.136L62.8861 378.749M78.2417 387.136H125.761M139.265 395.126L125.761 387.136M125.761 387.136L111.587 378.749M14.1849 378.749H62.8861M14.1849 378.749H1.37409M14.1849 378.749L1.37409 372.252M62.8861 378.749L46.7476 369.934M62.8861 378.749H111.587M111.587 378.749L96.6905 369.934M29.7655 360.659L46.7476 369.934M29.7655 360.659L11.8709 350.885M29.7655 360.659H81.0144M29.7655 360.659H1.37409M46.7476 369.934H96.6905M46.7476 369.934H1.37409M96.6905 369.934L81.0144 360.659M1.23299 372.18L1.37409 372.252M11.8709 350.885H64.496M11.8709 350.885H1.37409M11.8709 350.885L1.37409 345.151M81.0144 360.659L64.496 350.885M64.496 350.885L47.066 340.57M47.066 340.57L28.6468 329.672M47.066 340.57H1.37409M9.15101 318.135L28.6468 329.672M9.15101 318.135H1.37409M9.15101 318.135L1.37409 313.534M28.6468 329.672H1.37409M68.8158 477.145L57.4601 472.666M68.8158 477.145H103.659M68.8158 477.145H33.9716M114.009 481.469L124.004 485.643M114.009 481.469L103.659 477.145M114.009 481.469H148.244M124.004 485.643H157.65M124.004 485.643L133.661 489.677M100.582 489.677H133.661M100.582 489.677L110.467 493.576M100.582 489.677H67.5032M103.659 477.145L92.9345 472.666M103.659 477.145H138.503M148.244 481.469L157.65 485.643M148.244 481.469L138.503 477.145M157.65 485.643L166.739 489.677M133.661 489.677H166.739M133.661 489.677L142.997 493.576M138.503 477.145L128.409 472.666M199.819 489.677L208.056 493.576M199.819 489.677H166.739M166.739 489.677L175.527 493.576M57.4601 472.666H92.9345M57.4601 472.666H21.9857M81.8139 468.021L92.9345 472.666M81.8139 468.021L70.2759 463.202M81.8139 468.021H117.942M92.9345 472.666H128.409M21.9857 472.666L33.9716 477.145M21.9857 472.666H1.37409M128.409 472.666L117.942 468.021M33.9716 477.145H1.37409M70.2759 463.202L58.2958 458.198M70.2759 463.202H107.083M117.942 468.021L107.083 463.202M107.083 463.202L95.8078 458.198M20.7838 458.198L7.60401 452.999M20.7838 458.198H58.2958M20.7838 458.198H1.37409M58.2958 458.198L45.8482 452.999M58.2958 458.198H95.8078M95.8078 458.198L84.0925 452.999M32.905 447.593L45.8482 452.999M32.905 447.593L19.4358 441.967M32.905 447.593H71.9105M32.905 447.593H1.37409M45.8482 452.999H7.60401M45.8482 452.999H84.0925M7.60401 452.999L1.37409 450.542M7.60401 452.999H1.37409M84.0925 452.999L71.9105 447.593M19.4358 441.967L5.40798 436.108M19.4358 441.967H59.2335M19.4358 441.967H1.37409M71.9105 447.593L59.2335 441.967M59.2335 441.967L46.0313 436.108M5.40798 436.108H46.0313M5.40798 436.108L1.37409 434.423M5.40798 436.108H1.37409M46.0313 436.108L32.2697 430M17.9127 423.629L32.2697 430M17.9127 423.629L2.92108 416.976M17.9127 423.629H1.37409M32.2697 430H1.37409M1.15702 430H1.37409M2.92108 416.976H1.37409M2.92108 416.976L1.37409 416.29M1 416.124L1.37409 416.29M11.3051 481.469L23.0631 485.643M11.3051 481.469H1.37409M11.3051 481.469L1.37409 477.943M23.0631 485.643L34.4245 489.677M23.0631 485.643H1.37409M67.5032 489.677L77.9378 493.576M67.5032 489.677H34.4245M34.4245 489.677L45.4083 493.576M34.4245 489.677H1.37409M1151.41 493.576L1183.94 493.576M1151.41 493.576H1118.88M1175.97 497.349L1177.94 496.417L1183.94 493.576M1175.97 497.349H1207.97M1183.94 493.576H1216.47M1207.97 497.349L1210.07 496.417L1211.13 495.949L1216.47 493.576M1216.47 493.576H1249M1249 493.576H1281.53M1118.88 493.576H1086.36M1281.53 493.576H1314.06M1314.06 493.576L1303.97 497.349M1314.06 493.576H1346.59M1303.97 497.349H1335.97M1021.3 493.576H1053.83M1021.3 493.576H988.766M1047.98 497.349L1049.42 496.417L1050.15 495.949L1053.83 493.576M1047.98 497.349H1079.98M1053.83 493.576H1086.36M1079.98 497.349L1086.36 493.576M988.766 493.576H956.237M891.178 493.576H923.707M891.178 493.576H858.648M919.988 497.349L920.447 496.884L920.906 496.417L921.368 495.949L923.707 493.576M919.988 497.349H951.986M923.707 493.576H956.237M951.986 497.349L956.237 493.576M858.648 493.576H826.118M761.059 493.576H793.588M761.059 493.576H728.53M791.995 497.349L793.588 493.576M791.995 497.349H823.994M793.588 493.576H826.118M823.994 497.349L824.255 496.884L824.518 496.417L824.782 495.949L826.118 493.576M728.53 493.576H696M630.941 493.576H663.471M630.941 493.576H598.412M664.002 497.349L663.471 493.576M664.002 497.349L696 497.349M663.471 493.576L696 493.576M696 497.349V493.576M598.412 493.576H565.882M500.822 493.576H533.352M500.822 493.576H468.293M536.008 497.349L535.353 496.417L534.024 494.532L533.352 493.576M536.008 497.349H568.007M533.352 493.576H565.882M568.007 497.349L567.745 496.884L567.482 496.417L567.218 495.949L565.882 493.576M468.293 493.576H435.764M370.705 493.576H403.234M370.705 493.576H338.174M408.015 497.349L406.835 496.417L406.24 495.949L403.234 493.576M408.015 497.349H440.014M403.234 493.576H435.764M440.014 497.349L439.49 496.884L435.764 493.576M338.174 493.576H305.645M240.586 493.576H273.115M240.586 493.576L208.056 493.576M280.022 497.349L278.316 496.417L277.458 495.949L273.115 493.576M280.022 497.349H312.02M273.115 493.576H305.645M312.02 497.349L311.234 496.884L305.645 493.576M208.056 493.576H175.527M110.467 493.576H142.997M110.467 493.576H77.9378M152.028 497.349L142.997 493.576M152.028 497.349H184.027M142.997 493.576H175.527M184.027 497.349L181.928 496.417L180.872 495.949L175.527 493.576M77.9378 493.576H45.4083M24.0355 497.349L12.8788 493.576M24.0355 497.349H56.0339M24.0355 497.349H1.37409M12.8788 493.576H45.4083M12.8788 493.576L1.37409 489.686M12.8788 493.576H1.37409M56.0339 497.349L53.4103 496.417L45.4083 493.576M1335.97 497.349L1338.59 496.417L1346.59 493.576M1346.59 493.576H1379.12M1379.12 493.576L1390.63 489.686M1379.12 493.576H1390.63M1390.63 313.534V318.135M1390.63 313.534V305.906M1390.63 318.135V329.672M1390.63 305.906V303.626V292.916M1390.63 292.916V279.095M1390.63 402.746V410.022M1390.63 402.746V395.738M1390.63 497.349V493.576M1390.63 493.576V489.686M1390.63 489.686L1390.65 489.677H1390.63M1390.63 489.686V489.677M1390.63 489.677V485.643M1390.63 485.643V481.469M1390.63 481.469V477.943M1390.63 477.943V477.145M1390.63 477.145V472.666M1390.63 472.666V468.021M1390.63 468.021V464.964M1390.63 464.964V463.202M1390.63 463.202V458.198M1390.63 458.198V452.999M1390.63 452.999V450.542M1390.63 450.542V447.593M1390.63 447.593V441.967M1390.63 441.967V436.108M1390.63 436.108V434.423M1390.63 434.423V430M1390.63 430V423.629M1390.63 423.629V416.976M1390.63 416.976V416.29M1390.63 416.29V410.022M1390.63 395.126V387.136M1390.63 395.126V395.738M1390.63 387.136V378.749M1390.63 378.749V372.252M1390.63 372.252V369.934M1390.63 369.934V360.659M1390.63 360.659V350.885M1390.63 350.885V345.151M1390.63 345.151V340.57M1390.63 340.57V329.672M1390.63 279.095V276.168M1390.63 276.168V264.36M1390.63 264.36V248.616M1390.63 248.616V231.758M1390.63 231.758V231.33M1390.63 231.33V213.66M1390.63 213.66V194.183M1390.63 194.183V176.526M1390.63 176.526V173.162M1390.63 173.162V150.406M1390.63 150.406V125.691M1390.63 125.691V108.022M1390.63 108.022V98.7528M1390.63 98.7528V69.2768M1390.63 69.2768V36.8863M1390.63 36.8863V19.9457M1390.63 19.9457V1.12762M1390.63 1.12762V1L1.37409 1V1.12762M1.37409 395.126L1.37409 387.136M1.37409 395.126V395.738M1.37409 395.738L1.37409 402.746M1.37409 402.746L1.37409 410.022M1.37409 410.022L1.37409 416.29M1.37409 416.29L1.37409 416.976M1.37409 416.976L1.37409 423.629M1.37409 423.629L1.37409 430M1.37409 430L1.37409 434.423M1.37409 434.423L1.37409 436.108M1.37409 436.108L1.37409 441.967M1.37409 441.967L1.37409 447.593M1.37409 447.593L1.37409 450.542M1.37409 450.542L1.37409 452.999M1.37409 452.999L1.37409 458.198M1.37409 458.198L1.37409 463.202M1.37409 463.202L1.37409 464.964M1.37409 464.964L1.37409 468.021M1.37409 468.021L1.37409 472.666M1.37409 472.666L1.37409 477.145M1.37409 477.145V477.943M1.37409 477.943L1.37409 481.469M1.37409 481.469L1.37409 485.643M1.37409 485.643L1.37409 489.677M1.37409 489.677H1.34587L1.37409 489.686M1.37409 489.677V489.686M1.37409 489.686L1.37409 493.576M1.37409 493.576L1.37409 497.349M1.37409 1.12762L1.37409 19.9457M1.37409 19.9457L1.37409 36.8863M1.37409 36.8863L1.37409 69.2762M1.37409 69.2762L1.37409 98.7528M1.37409 98.7528L1.37409 108.022M1.37409 108.022L1.37409 125.691M1.37409 125.691L1.37409 150.406M1.37409 150.406L1.37409 173.162M1.37409 173.162L1.37409 176.526M1.37409 176.526L1.37409 194.183M1.37409 194.183L1.37409 213.66M1.37409 213.66L1.37409 231.33M1.37409 231.33L1.37409 231.758M1.37409 231.758L1.37409 248.616M1.37409 248.616L1.37409 264.36M1.37409 264.36L1.37409 276.168M1.37409 276.168L1.37409 279.095M1.37409 279.095L1.37409 292.916M1.37409 292.916L1.37409 305.906M1.37409 305.906L1.37409 313.534M1.37409 313.534L1.37409 318.135M1.37409 318.135L1.37409 329.672M1.37409 329.672L1.37409 340.57M1.37409 340.57L1.37409 345.151M1.37409 345.151L1.37409 350.885M1.37409 350.885L1.37409 360.659M1.37409 360.659L1.37409 369.934M1.37409 369.934L1.37409 372.252M1.37409 372.252L1.37409 378.749M1.37409 378.749L1.37409 387.136" stroke="url(#paint0_radial_1_70)" stroke-opacity="0.2" stroke-miterlimit="10" stroke-linecap="round" stroke-linejoin="round"/>
<defs>
<radialGradient id="paint0_radial_1_70" cx="0" cy="0" r="1" gradientUnits="userSpaceOnUse" gradientTransform="translate(696 1) rotate(90) scale(477.583 639.215)">
<stop stop-color="#4442D7"/>
<stop offset="1" stop-color="#4442D7" stop-opacity="0"/>
</radialGradient>
</defs>
</svg>
