<svg width="24" height="25" viewBox="0 0 24 25" fill="none" xmlns="http://www.w3.org/2000/svg">
<path d="M12 2.26758C10.0716 2.26758 8.18657 2.83941 6.58319 3.91075C4.97982 4.98209 3.73013 6.50484 2.99218 8.28642C2.25422 10.068 2.06114 12.0284 2.43735 13.9197C2.81355 15.811 3.74215 17.5483 5.10571 18.9119C6.46928 20.2754 8.20656 21.204 10.0979 21.5802C11.9892 21.9564 13.9496 21.7634 15.7312 21.0254C17.5127 20.2875 19.0355 19.0378 20.1068 17.4344C21.1782 15.831 21.75 13.9459 21.75 12.0176C21.7473 9.43256 20.7192 6.95419 18.8913 5.1263C17.0634 3.29841 14.585 2.27031 12 2.26758ZM16.2806 10.2982L11.0306 15.5482C10.961 15.6179 10.8783 15.6733 10.7872 15.711C10.6962 15.7487 10.5986 15.7682 10.5 15.7682C10.4014 15.7682 10.3038 15.7487 10.2128 15.711C10.1218 15.6733 10.039 15.6179 9.96938 15.5482L7.71938 13.2982C7.57865 13.1575 7.49959 12.9666 7.49959 12.7676C7.49959 12.5686 7.57865 12.3777 7.71938 12.237C7.86011 12.0962 8.05098 12.0172 8.25 12.0172C8.44903 12.0172 8.6399 12.0962 8.78063 12.237L10.5 13.9573L15.2194 9.23695C15.2891 9.16727 15.3718 9.112 15.4628 9.07428C15.5539 9.03657 15.6515 9.01716 15.75 9.01716C15.8486 9.01716 15.9461 9.03657 16.0372 9.07428C16.1282 9.112 16.2109 9.16727 16.2806 9.23695C16.3503 9.30664 16.4056 9.38936 16.4433 9.48041C16.481 9.57145 16.5004 9.66903 16.5004 9.76758C16.5004 9.86613 16.481 9.96371 16.4433 10.0548C16.4056 10.1458 16.3503 10.2285 16.2806 10.2982Z" fill="#4442D7"/>
</svg>
