<svg width="24" height="22" viewBox="0 0 24 22" fill="none" xmlns="http://www.w3.org/2000/svg">
<path d="M24 11.0001C24 11.2653 23.8947 11.5196 23.7071 11.7072C23.5196 11.8947 23.2652 12.0001 23 12.0001H12C11.7348 12.0001 11.4804 11.8947 11.2929 11.7072C11.1054 11.5196 11 11.2653 11 11.0001C11 10.7349 11.1054 10.4805 11.2929 10.293C11.4804 10.1054 11.7348 10.0001 12 10.0001H23C23.2652 10.0001 23.5196 10.1054 23.7071 10.293C23.8947 10.4805 24 10.7349 24 11.0001ZM12 4.00007H23C23.2652 4.00007 23.5196 3.89471 23.7071 3.70717C23.8947 3.51964 24 3.26528 24 3.00007C24 2.73485 23.8947 2.4805 23.7071 2.29296C23.5196 2.10542 23.2652 2.00007 23 2.00007H12C11.7348 2.00007 11.4804 2.10542 11.2929 2.29296C11.1054 2.4805 11 2.73485 11 3.00007C11 3.26528 11.1054 3.51964 11.2929 3.70717C11.4804 3.89471 11.7348 4.00007 12 4.00007ZM23 18.0001H12C11.7348 18.0001 11.4804 18.1054 11.2929 18.293C11.1054 18.4805 11 18.7349 11 19.0001C11 19.2653 11.1054 19.5196 11.2929 19.7072C11.4804 19.8947 11.7348 20.0001 12 20.0001H23C23.2652 20.0001 23.5196 19.8947 23.7071 19.7072C23.8947 19.5196 24 19.2653 24 19.0001C24 18.7349 23.8947 18.4805 23.7071 18.293C23.5196 18.1054 23.2652 18.0001 23 18.0001ZM6.29251 0.292568L3.00001 3.58632L1.70751 2.29257C1.51987 2.10493 1.26537 1.99951 1.00001 1.99951C0.734643 1.99951 0.480147 2.10493 0.292507 2.29257C0.104866 2.48021 -0.000549314 2.7347 -0.000549316 3.00007C-0.000549318 3.26543 0.104866 3.51993 0.292507 3.70757L2.29251 5.70757C2.38538 5.80054 2.49567 5.8743 2.61707 5.92463C2.73846 5.97495 2.86859 6.00085 3.00001 6.00085C3.13142 6.00085 3.26155 5.97495 3.38295 5.92463C3.50434 5.8743 3.61463 5.80054 3.70751 5.70757L7.70751 1.70757C7.89515 1.51993 8.00056 1.26543 8.00056 1.00007C8.00056 0.734704 7.89515 0.480208 7.70751 0.292568C7.51987 0.104927 7.26537 -0.000488281 7.00001 -0.000488281C6.73464 -0.000488281 6.48015 0.104927 6.29251 0.292568ZM6.29251 8.29257L3.00001 11.5863L1.70751 10.2926C1.51987 10.1049 1.26537 9.99951 1.00001 9.99951C0.734643 9.99951 0.480147 10.1049 0.292507 10.2926C0.104866 10.4802 -0.000549316 10.7347 -0.000549316 11.0001C-0.000549316 11.1315 0.0253308 11.2616 0.0756135 11.383C0.125896 11.5044 0.199596 11.6147 0.292507 11.7076L2.29251 13.7076C2.38538 13.8005 2.49567 13.8743 2.61707 13.9246C2.73846 13.975 2.86859 14.0009 3.00001 14.0009C3.13142 14.0009 3.26155 13.975 3.38295 13.9246C3.50434 13.8743 3.61463 13.8005 3.70751 13.7076L7.70751 9.70757C7.89515 9.51993 8.00056 9.26543 8.00056 9.00007C8.00056 8.7347 7.89515 8.48021 7.70751 8.29257C7.51987 8.10493 7.26537 7.99951 7.00001 7.99951C6.73464 7.99951 6.48015 8.10493 6.29251 8.29257ZM6.29251 16.2926L3.00001 19.5863L1.70751 18.2926C1.6146 18.1997 1.5043 18.126 1.3829 18.0757C1.26151 18.0254 1.1314 17.9995 1.00001 17.9995C0.868612 17.9995 0.738503 18.0254 0.61711 18.0757C0.495717 18.126 0.385417 18.1997 0.292507 18.2926C0.199596 18.3855 0.125896 18.4958 0.0756135 18.6172C0.0253308 18.7386 -0.000549316 18.8687 -0.000549316 19.0001C-0.000549316 19.1315 0.0253308 19.2616 0.0756135 19.383C0.125896 19.5044 0.199596 19.6147 0.292507 19.7076L2.29251 21.7076C2.38538 21.8005 2.49567 21.8743 2.61707 21.9246C2.73846 21.975 2.86859 22.0009 3.00001 22.0009C3.13142 22.0009 3.26155 21.975 3.38295 21.9246C3.50434 21.8743 3.61463 21.8005 3.70751 21.7076L7.70751 17.7076C7.89515 17.5199 8.00056 17.2654 8.00056 17.0001C8.00056 16.7347 7.89515 16.4802 7.70751 16.2926C7.51987 16.1049 7.26537 15.9995 7.00001 15.9995C6.73464 15.9995 6.48015 16.1049 6.29251 16.2926Z" fill="#4442D7"/>
</svg>
