<svg width="18" height="14" viewBox="0 0 18 14" fill="none" xmlns="http://www.w3.org/2000/svg">
<path d="M17.728 2.02647L6.28848 13.5812C6.22208 13.6483 6.14323 13.7016 6.05643 13.7379C5.96964 13.7743 5.8766 13.793 5.78264 13.793C5.68868 13.793 5.59565 13.7743 5.50885 13.7379C5.42206 13.7016 5.3432 13.6483 5.2768 13.5812L0.272026 8.52599C0.137869 8.39048 0.0625 8.20669 0.0625 8.01505C0.0625 7.82342 0.137869 7.63963 0.272026 7.50412C0.406183 7.36861 0.588139 7.29248 0.777866 7.29248C0.967592 7.29248 1.14955 7.36861 1.28371 7.50412L5.78264 12.0493L16.7163 1.0046C16.8505 0.869096 17.0324 0.792969 17.2221 0.792969C17.4119 0.792969 17.5938 0.869096 17.728 1.0046C17.8621 1.14011 17.9375 1.3239 17.9375 1.51554C17.9375 1.70718 17.8621 1.89096 17.728 2.02647Z" fill="#45C816"/>
</svg>
