<svg width="32" height="32" viewBox="0 0 32 32" fill="none" xmlns="http://www.w3.org/2000/svg">
<path d="M30 16.0001V24.0001C30 24.2653 29.8946 24.5196 29.7071 24.7072C29.5196 24.8947 29.2652 25.0001 29 25.0001H21C20.7348 25.0001 20.4804 24.8947 20.2929 24.7072C20.1054 24.5196 20 24.2653 20 24.0001C20 23.7349 20.1054 23.4805 20.2929 23.293C20.4804 23.1054 20.7348 23.0001 21 23.0001H26.5863L17 13.4138L12.7075 17.7076C12.6146 17.8005 12.5043 17.8743 12.3829 17.9246C12.2615 17.975 12.1314 18.0009 12 18.0009C11.8686 18.0009 11.7385 17.975 11.6171 17.9246C11.4957 17.8743 11.3854 17.8005 11.2925 17.7076L2.2925 8.70757C2.10486 8.51993 1.99944 8.26543 1.99944 8.00007C1.99944 7.7347 2.10486 7.48021 2.2925 7.29257C2.48014 7.10493 2.73464 6.99951 3 6.99951C3.26536 6.99951 3.51986 7.10493 3.7075 7.29257L12 15.5863L16.2925 11.2926C16.3854 11.1996 16.4957 11.1258 16.6171 11.0755C16.7385 11.0252 16.8686 10.9993 17 10.9993C17.1314 10.9993 17.2615 11.0252 17.3829 11.0755C17.5043 11.1258 17.6146 11.1996 17.7075 11.2926L28 21.5863V16.0001C28 15.7349 28.1054 15.4805 28.2929 15.293C28.4804 15.1054 28.7348 15.0001 29 15.0001C29.2652 15.0001 29.5196 15.1054 29.7071 15.293C29.8946 15.4805 30 15.7349 30 16.0001Z" fill="#4442D7"/>
</svg>
