<svg width="46" height="46" viewBox="0 0 46 46" fill="none" xmlns="http://www.w3.org/2000/svg">
<g clip-path="url(#clip0_280_348)">
<path d="M11.5 10.0625H7.1875C6.425 10.0625 5.69373 10.3654 5.15457 10.9046C4.6154 11.4437 4.3125 12.175 4.3125 12.9375C4.3125 13.7 4.6154 14.4313 5.15457 14.9704C5.69373 15.5096 6.425 15.8125 7.1875 15.8125H10.0625C10.825 15.8125 11.5563 16.1154 12.0954 16.6546C12.6346 17.1937 12.9375 17.925 12.9375 18.6875C12.9375 19.45 12.6346 20.1813 12.0954 20.7204C11.5563 21.2596 10.825 21.5625 10.0625 21.5625H5.03125" stroke="#4442D7" stroke-width="2.5" stroke-linecap="round" stroke-linejoin="round"/>
<path d="M8.625 8.625V10.0625" stroke="#4442D7" stroke-width="2.5" stroke-linecap="round" stroke-linejoin="round"/>
<path d="M8.625 21.5625V23" stroke="#4442D7" stroke-width="2.5" stroke-linecap="round" stroke-linejoin="round"/>
<path d="M17.25 10.0625H40.25V34.5C40.25 34.8812 40.0986 35.2469 39.829 35.5165C39.5594 35.7861 39.1937 35.9375 38.8125 35.9375H7.1875C6.80625 35.9375 6.44062 35.7861 6.17103 35.5165C5.90145 35.2469 5.75 34.8812 5.75 34.5V27.3125" stroke="#4442D7" stroke-width="2.5" stroke-linecap="round" stroke-linejoin="round"/>
<path d="M18.6875 18.6875H40.25" stroke="#4442D7" stroke-width="2.5" stroke-linecap="round" stroke-linejoin="round"/>
<path d="M14.375 27.3125H40.25" stroke="#4442D7" stroke-width="2.5" stroke-linecap="round" stroke-linejoin="round"/>
<path d="M30.1875 18.6875V35.9375" stroke="#4442D7" stroke-width="2.5" stroke-linecap="round" stroke-linejoin="round"/>
</g>
<defs>
<clipPath id="clip0_280_348">
<rect width="46" height="46" fill="white"/>
</clipPath>
</defs>
</svg>
