<svg width="80" height="80" viewBox="0 0 80 80" fill="none" xmlns="http://www.w3.org/2000/svg">
<circle cx="40" cy="40" r="40" fill="#4442D7" fill-opacity="0.05"/>
<g clip-path="url(#clip0_280_276)">
<path d="M28.5 27.0625H24.1875C23.425 27.0625 22.6937 27.3654 22.1546 27.9046C21.6154 28.4437 21.3125 29.175 21.3125 29.9375C21.3125 30.7 21.6154 31.4313 22.1546 31.9704C22.6937 32.5096 23.425 32.8125 24.1875 32.8125H27.0625C27.825 32.8125 28.5563 33.1154 29.0954 33.6546C29.6346 34.1937 29.9375 34.925 29.9375 35.6875C29.9375 36.45 29.6346 37.1813 29.0954 37.7204C28.5563 38.2596 27.825 38.5625 27.0625 38.5625H22.0312" stroke="#4442D7" stroke-width="2.5" stroke-linecap="round" stroke-linejoin="round"/>
<path d="M25.625 25.625V27.0625" stroke="#4442D7" stroke-width="2.5" stroke-linecap="round" stroke-linejoin="round"/>
<path d="M25.625 38.5625V40" stroke="#4442D7" stroke-width="2.5" stroke-linecap="round" stroke-linejoin="round"/>
<path d="M34.25 27.0625H57.25V51.5C57.25 51.8812 57.0986 52.2469 56.829 52.5165C56.5594 52.7861 56.1937 52.9375 55.8125 52.9375H24.1875C23.8063 52.9375 23.4406 52.7861 23.171 52.5165C22.9015 52.2469 22.75 51.8812 22.75 51.5V44.3125" stroke="#4442D7" stroke-width="2.5" stroke-linecap="round" stroke-linejoin="round"/>
<path d="M35.6875 35.6875H57.25" stroke="#4442D7" stroke-width="2.5" stroke-linecap="round" stroke-linejoin="round"/>
<path d="M31.375 44.3125H57.25" stroke="#4442D7" stroke-width="2.5" stroke-linecap="round" stroke-linejoin="round"/>
<path d="M47.1875 35.6875V52.9375" stroke="#4442D7" stroke-width="2.5" stroke-linecap="round" stroke-linejoin="round"/>
</g>
<defs>
<clipPath id="clip0_280_276">
<rect width="46" height="46" fill="white" transform="translate(17 17)"/>
</clipPath>
</defs>
</svg>
