<svg width="32" height="32" viewBox="0 0 32 32" fill="none" xmlns="http://www.w3.org/2000/svg">
<path d="M12 15.0001C11.0111 15.0001 10.0444 15.2933 9.22216 15.8427C8.39991 16.3921 7.75905 17.173 7.38061 18.0867C7.00217 19.0003 6.90315 20.0056 7.09608 20.9755C7.28901 21.9454 7.76521 22.8363 8.46447 23.5356C9.16374 24.2349 10.0547 24.7111 11.0246 24.904C11.9945 25.0969 12.9998 24.9979 13.9134 24.6195C14.8271 24.241 15.6079 23.6002 16.1574 22.7779C16.7068 21.9557 17 20.989 17 20.0001C17 18.674 16.4732 17.4022 15.5355 16.4645C14.5979 15.5269 13.3261 15.0001 12 15.0001ZM12 23.0001C11.4067 23.0001 10.8266 22.8241 10.3333 22.4945C9.83995 22.1648 9.45543 21.6963 9.22837 21.1481C9.00131 20.5999 8.9419 19.9967 9.05765 19.4148C9.17341 18.8329 9.45913 18.2983 9.87869 17.8787C10.2982 17.4592 10.8328 17.1735 11.4147 17.0577C11.9967 16.942 12.5999 17.0014 13.1481 17.2284C13.6962 17.4555 14.1648 17.84 14.4944 18.3334C14.8241 18.8267 15 19.4067 15 20.0001C15 20.7957 14.6839 21.5588 14.1213 22.1214C13.5587 22.684 12.7957 23.0001 12 23.0001ZM27.7075 15.2926C27.8005 15.3854 27.8742 15.4957 27.9246 15.6171C27.9749 15.7385 28.0008 15.8687 28.0008 16.0001C28.0008 16.1315 27.9749 16.2616 27.9246 16.383C27.8742 16.5044 27.8005 16.6147 27.7075 16.7076L21.7075 22.7076C21.5199 22.8952 21.2654 23.0006 21 23.0006C20.7346 23.0006 20.4801 22.8952 20.2925 22.7076C20.1049 22.5199 19.9995 22.2654 19.9995 22.0001C19.9995 21.7347 20.1049 21.4802 20.2925 21.2926L26.2925 15.2926C26.3854 15.1996 26.4957 15.1258 26.6171 15.0755C26.7385 15.0252 26.8686 14.9993 27 14.9993C27.1314 14.9993 27.2615 15.0252 27.3829 15.0755C27.5043 15.1258 27.6146 15.1996 27.7075 15.2926ZM20 17.0001C19.8021 17.0002 19.6086 16.9417 19.444 16.8318C19.2794 16.7219 19.1511 16.5657 19.0754 16.3829C18.9996 16.2 18.9798 15.9988 19.0185 15.8048C19.0571 15.6107 19.1525 15.4324 19.2925 15.2926L22.2925 12.2926C22.3854 12.1997 22.4957 12.126 22.6171 12.0757C22.7385 12.0254 22.8686 11.9995 23 11.9995C23.1314 11.9995 23.2615 12.0254 23.3829 12.0757C23.5043 12.126 23.6146 12.1997 23.7075 12.2926C23.8004 12.3855 23.8741 12.4958 23.9244 12.6172C23.9747 12.7386 24.0006 12.8687 24.0006 13.0001C24.0006 13.1315 23.9747 13.2616 23.9244 13.383C23.8741 13.5044 23.8004 13.6147 23.7075 13.7076L20.7075 16.7076C20.6146 16.8004 20.5043 16.874 20.3829 16.9242C20.2615 16.9744 20.1314 17.0002 20 17.0001ZM28.7075 8.70757L26.7075 10.7076C26.5199 10.8952 26.2654 11.0006 26 11.0006C25.7346 11.0006 25.4801 10.8952 25.2925 10.7076C25.1049 10.5199 24.9995 10.2654 24.9995 10.0001C24.9995 9.7347 25.1049 9.48021 25.2925 9.29257L27.2925 7.29257C27.3854 7.19966 27.4957 7.12596 27.6171 7.07567C27.7385 7.02539 27.8686 6.99951 28 6.99951C28.1314 6.99951 28.2615 7.02539 28.3829 7.07567C28.5043 7.12596 28.6146 7.19966 28.7075 7.29257C28.8004 7.38548 28.8741 7.49578 28.9244 7.61717C28.9747 7.73856 29.0006 7.86867 29.0006 8.00007C29.0006 8.13146 28.9747 8.26157 28.9244 8.38296C28.8741 8.50436 28.8004 8.61466 28.7075 8.70757ZM15.2925 11.2926L24.2925 2.29257C24.3854 2.19966 24.4957 2.12596 24.6171 2.07567C24.7385 2.02539 24.8686 1.99951 25 1.99951C25.1314 1.99951 25.2615 2.02539 25.3829 2.07567C25.5043 2.12596 25.6146 2.19966 25.7075 2.29257C25.8004 2.38548 25.8741 2.49578 25.9244 2.61717C25.9747 2.73856 26.0006 2.86867 26.0006 3.00007C26.0006 3.13146 25.9747 3.26157 25.9244 3.38296C25.8741 3.50436 25.8004 3.61466 25.7075 3.70757L16.7075 12.7076C16.5199 12.8952 16.2654 13.0006 16 13.0006C15.7346 13.0006 15.4801 12.8952 15.2925 12.7076C15.1049 12.5199 14.9995 12.2654 14.9995 12.0001C14.9995 11.7347 15.1049 11.4802 15.2925 11.2926ZM18.3638 24.9501C18.5512 25.1376 18.6564 25.3918 18.6564 25.6569C18.6564 25.922 18.5512 26.1763 18.3638 26.3638C17.5305 27.2107 16.5379 27.8843 15.4431 28.3456C14.3482 28.807 13.1729 29.047 11.9848 29.0518C10.7968 29.0567 9.61952 28.8262 8.52097 28.3738C7.42241 27.9214 6.42431 27.2559 5.58422 26.4159C4.74413 25.5758 4.07869 24.5777 3.62627 23.4791C3.17385 22.3806 2.94342 21.2033 2.94826 20.0152C2.95309 18.8272 3.19311 17.6519 3.65446 16.557C4.1158 15.4622 4.78936 14.4695 5.63626 13.6363L15.9788 3.29257C16.0717 3.19966 16.182 3.12596 16.3034 3.07567C16.4248 3.02539 16.5549 2.99951 16.6863 2.99951C16.8177 2.99951 16.9478 3.02539 17.0692 3.07567C17.1905 3.12596 17.3008 3.19966 17.3938 3.29257C17.4867 3.38548 17.5604 3.49578 17.6107 3.61717C17.6609 3.73856 17.6868 3.86867 17.6868 4.00007C17.6868 4.13146 17.6609 4.26157 17.6107 4.38296C17.5604 4.50436 17.4867 4.61466 17.3938 4.70757L7.05001 15.0501C5.73719 16.3629 4.99965 18.1435 4.99965 20.0001C4.99965 21.8567 5.73719 23.6372 7.05001 24.9501C8.36283 26.2629 10.1434 27.0004 12 27.0004C13.8566 27.0004 15.6372 26.2629 16.95 24.9501C17.1375 24.7627 17.3918 24.6574 17.6569 24.6574C17.922 24.6574 18.1762 24.7627 18.3638 24.9501Z" fill="#4442D7"/>
</svg>
