<svg width="30" height="31" viewBox="0 0 30 31" fill="none" xmlns="http://www.w3.org/2000/svg">
<path d="M15.2 8.30664C17.1562 8.30664 17.4003 8.31384 18.1678 8.34984C18.9346 8.38584 19.4566 8.50608 19.916 8.68464C20.3912 8.86752 20.7915 9.1152 21.1918 9.5148C21.5579 9.87473 21.8412 10.3101 22.022 10.7906C22.1998 11.2493 22.3208 11.772 22.3568 12.5388C22.3906 13.3063 22.4 13.5504 22.4 15.5066C22.4 17.4629 22.3928 17.707 22.3568 18.4745C22.3208 19.2413 22.1998 19.7633 22.022 20.2226C21.8417 20.7034 21.5584 21.1389 21.1918 21.4985C20.8318 21.8645 20.3964 22.1477 19.916 22.3286C19.4573 22.5065 18.9346 22.6274 18.1678 22.6634C17.4003 22.6973 17.1562 22.7066 15.2 22.7066C13.2438 22.7066 12.9997 22.6994 12.2322 22.6634C11.4654 22.6274 10.9434 22.5065 10.484 22.3286C10.0033 22.1483 9.56782 21.8649 9.20816 21.4985C8.84197 21.1386 8.55867 20.7032 8.378 20.2226C8.19944 19.764 8.0792 19.2413 8.0432 18.4745C8.00936 17.707 8 17.4629 8 15.5066C8 13.5504 8.0072 13.3063 8.0432 12.5388C8.0792 11.7713 8.19944 11.25 8.378 10.7906C8.55817 10.3098 8.84154 9.87431 9.20816 9.5148C9.56792 9.14849 10.0033 8.86517 10.484 8.68464C10.9434 8.50608 11.4646 8.38584 12.2322 8.34984C12.9997 8.316 13.2438 8.30664 15.2 8.30664ZM15.2 11.9066C14.2452 11.9066 13.3295 12.2859 12.6544 12.9611C11.9793 13.6362 11.6 14.5519 11.6 15.5066C11.6 16.4614 11.9793 17.3771 12.6544 18.0522C13.3295 18.7274 14.2452 19.1066 15.2 19.1066C16.1548 19.1066 17.0704 18.7274 17.7456 18.0522C18.4207 17.3771 18.8 16.4614 18.8 15.5066C18.8 14.5519 18.4207 13.6362 17.7456 12.9611C17.0704 12.2859 16.1548 11.9066 15.2 11.9066ZM19.88 11.7266C19.88 11.4879 19.7852 11.259 19.6164 11.0902C19.4476 10.9215 19.2187 10.8266 18.98 10.8266C18.7413 10.8266 18.5124 10.9215 18.3436 11.0902C18.1748 11.259 18.08 11.4879 18.08 11.7266C18.08 11.9653 18.1748 12.1943 18.3436 12.363C18.5124 12.5318 18.7413 12.6266 18.98 12.6266C19.2187 12.6266 19.4476 12.5318 19.6164 12.363C19.7852 12.1943 19.88 11.9653 19.88 11.7266ZM15.2 13.3466C15.7729 13.3466 16.3223 13.5742 16.7273 13.9793C17.1324 14.3844 17.36 14.9338 17.36 15.5066C17.36 16.0795 17.1324 16.6289 16.7273 17.034C16.3223 17.4391 15.7729 17.6666 15.2 17.6666C14.6271 17.6666 14.0777 17.4391 13.6726 17.034C13.2676 16.6289 13.04 16.0795 13.04 15.5066C13.04 14.9338 13.2676 14.3844 13.6726 13.9793C14.0777 13.5742 14.6271 13.3466 15.2 13.3466Z" fill="white" fill-opacity="0.8"/>
<circle cx="15" cy="15.3066" r="14.5" stroke="white" stroke-opacity="0.8"/>
</svg>
