<svg width="30" height="31" viewBox="0 0 30 31" fill="none" xmlns="http://www.w3.org/2000/svg">
<path d="M12.5981 20.6277V11.7217H9.76851V20.6277H12.5981ZM11.1837 10.505C12.1704 10.505 12.7846 9.82114 12.7846 8.96652C12.7662 8.09263 12.1704 7.42773 11.2024 7.42773C10.2345 7.42773 9.60156 8.09264 9.60156 8.96652C9.60156 9.82118 10.2156 10.505 11.1652 10.505H11.1836H11.1837ZM14.1642 20.6277H16.9938V15.6542C16.9938 15.388 17.0122 15.1221 17.0869 14.9318C17.2914 14.4 17.757 13.8492 18.5387 13.8492C19.5626 13.8492 19.9722 14.6659 19.9722 15.8631V20.6277H22.8016V15.521C22.8016 12.7855 21.4056 11.5126 19.5439 11.5126C18.0175 11.5126 17.3473 12.4052 16.975 13.0132H16.9938V11.7215H14.1643C14.2014 12.5572 14.1643 20.6275 14.1643 20.6275L14.1642 20.6277Z" fill="white" fill-opacity="0.8"/>
<circle cx="15" cy="15.2285" r="14.5" stroke="white" stroke-opacity="0.8"/>
</svg>
