<svg width="46" height="46" viewBox="0 0 46 46" fill="none" xmlns="http://www.w3.org/2000/svg">
<g clip-path="url(#clip0_280_335)">
<path d="M23 24.4375C26.1756 24.4375 28.75 21.8631 28.75 18.6875C28.75 15.5119 26.1756 12.9375 23 12.9375C19.8244 12.9375 17.25 15.5119 17.25 18.6875C17.25 21.8631 19.8244 24.4375 23 24.4375Z" stroke="#4442D7" stroke-width="2.5" stroke-linecap="round" stroke-linejoin="round"/>
<path d="M37.375 18.6875C37.375 31.625 23 41.6875 23 41.6875C23 41.6875 8.625 31.625 8.625 18.6875C8.625 14.875 10.1395 11.2187 12.8353 8.52284C15.5312 5.827 19.1875 4.3125 23 4.3125C26.8125 4.3125 30.4688 5.827 33.1647 8.52284C35.8605 11.2187 37.375 14.875 37.375 18.6875Z" stroke="#4442D7" stroke-width="2.5" stroke-linecap="round" stroke-linejoin="round"/>
</g>
<defs>
<clipPath id="clip0_280_335">
<rect width="46" height="46" fill="white"/>
</clipPath>
</defs>
</svg>
