<svg width="96" height="46" viewBox="0 0 96 46" fill="none" xmlns="http://www.w3.org/2000/svg">
<path fill-rule="evenodd" clip-rule="evenodd" d="M69.4603 27.7319L19.653 27.7323C7.44319 27.7323 4.95616 24.9163 4.85623 24.7964L5.59058 24.1727C5.61394 24.1988 8.05607 26.769 19.653 26.769H69.4603V21.2249C66.5981 21.3349 64.4714 21.3705 64.4181 21.3712H18.8088V21.373C17.0097 21.3673 11.9542 21.2926 6.95303 20.6828C4.1533 20.3471 1.55267 20.1585 0.480708 21.5222C-0.15783 22.3345 -0.160212 23.5532 0.473474 25.247C0.485317 25.2782 0.501517 25.3072 0.521996 25.3334L0.551273 25.3706C4.25322 30.1021 11.8 30.9069 16.4932 30.9069C17.3824 30.9069 18.17 30.8778 18.8088 30.8412H69.4603V27.7319Z" fill="#4442D7"/>
<path fill-rule="evenodd" clip-rule="evenodd" d="M89.7112 25.1795C89.7112 25.1795 84.7671 25.2273 83.7612 25.1795C82.7525 25.1279 80.9275 23.403 79.3448 21.5303C77.7622 19.6582 76.1777 19.8569 76.1777 19.8569C76.1777 19.8569 70.6628 19.8569 69.4144 19.8569C68.1651 19.8569 68.3093 18.7488 68.3093 18.7488V11.024C68.3093 10.0687 69.125 10.1138 69.125 10.1138C69.125 10.1138 80.4246 9.82629 83.4933 10.1138C86.5623 10.4013 89.6824 17.1202 90.499 20.3785C91.3128 23.642 90.0038 24.924 89.7112 25.1795ZM72.3381 26.2808H69.0801V25.1983H72.3381V26.2808ZM93.9314 35.3459C93.8484 30.0106 94.7649 21.3298 91.9853 19.9006C91.9853 19.9006 88.3873 9.75695 83.4933 8.17039H64.5945V30.8406H75.0952C81.7326 30.8406 88.5204 31.0976 88.9641 39.0891H94.8709C94.8709 39.0891 95.1825 39.0666 95.2276 38.323V35.3459H93.9314Z" fill="#4442D7"/>
<path fill-rule="evenodd" clip-rule="evenodd" d="M66.5023 5.5215C65.6162 5.83041 64.6032 6.18076 63.473 6.18076V4.68549H65.6662V2.69166H63.473V1.89398H68.956C68.956 4.65317 69.1769 4.42758 68.4033 4.73081L66.5023 5.5215ZM9.39754 21.6266H63.473V7.1778C65.1295 7.1778 69.8533 5.49773 69.8533 4.88485V0.897192H63.473V0H9.39754V21.6266Z" fill="#4442D7"/>
<path fill-rule="evenodd" clip-rule="evenodd" d="M16.4738 44.275V42.4692H11.4668V34.535H9.36023V44.275H16.4738Z" fill="#4442D7"/>
<path fill-rule="evenodd" clip-rule="evenodd" d="M33.7793 44.275L34.8052 42.1136H39.7437L40.7014 44.275H42.7808L38.4169 34.5074H36.2555L31.8232 44.275H33.7793ZM37.3773 36.3451L38.964 40.13H35.7219L37.3634 36.3451H37.3773Z" fill="#4442D7"/>
<path fill-rule="evenodd" clip-rule="evenodd" d="M43.5332 44.275H47.7467C50.729 44.275 52.1791 42.1683 52.1791 39.3364C52.1791 36.108 50.2774 34.5074 47.7467 34.5074H43.5332V44.275ZM45.6811 36.3131H47.2131C49.3334 36.3131 50.0313 37.5717 50.0313 39.5416C50.0313 41.703 48.8411 42.4692 47.5963 42.4692H45.6811V36.3131Z" fill="#4442D7"/>
<path fill-rule="evenodd" clip-rule="evenodd" d="M52.8163 40.8048C52.8163 43.2078 54.7862 44.275 56.9751 44.275C59.6425 44.275 61.0381 42.9341 61.0381 41.1444C61.0381 38.9328 58.8627 38.4838 58.1377 38.3058C55.6889 37.7174 55.2239 37.5533 55.2239 36.8305C55.2239 36.0097 56.0173 35.7248 56.7014 35.7248C57.3717 35.7248 58.3704 35.7658 58.6303 36.8989L60.7097 37.1999C60.7097 34.9451 58.8355 34.0559 56.7971 34.0559C55.0324 34.0559 53.1445 34.9998 53.1445 37.0084C53.1445 40.6541 58.9587 39.3157 58.9587 41.3906C58.9587 42.3893 57.8096 42.606 57.057 42.606C56.2635 42.606 55.1146 42.4303 54.8957 41.1444L52.8163 40.8048Z" fill="#4442D7"/>
<path fill-rule="evenodd" clip-rule="evenodd" d="M30.8065 38.5745C30.8065 34.7256 27.6711 31.6277 23.8599 31.6277C20.0298 31.6277 16.932 34.7256 16.932 38.5745C16.932 41.8144 19.1489 44.5301 22.1503 45.2901H18.5249V46H29.2136V45.2901H25.5643C28.5628 44.5301 30.8065 41.8144 30.8065 38.5745ZM22.039 38.5695C22.039 39.5579 22.8611 40.3799 23.8494 40.3799C24.8376 40.3799 25.643 39.5579 25.643 38.5695C25.643 37.5814 24.8376 36.7509 23.8494 36.7509C22.8611 36.7509 22.039 37.5814 22.039 38.5695ZM23.8599 34.4632C26.0941 34.4632 27.9151 36.3407 27.9151 38.5749C27.9151 40.809 26.0941 42.6677 23.8599 42.6677C21.6256 42.6677 19.7669 40.809 19.7669 38.5749C19.7669 36.3407 21.6256 34.4632 23.8599 34.4632Z" fill="#4A9B28"/>
<path fill-rule="evenodd" clip-rule="evenodd" d="M76.6063 38.5747C76.6063 34.7261 73.4713 31.6283 69.6601 31.6283C65.8303 31.6283 62.7325 34.7261 62.7325 38.5747C62.7325 41.8147 64.9497 44.5303 67.9514 45.2901H64.3255V45.9999H75.0141V45.2901H71.3637C74.3625 44.5303 76.6063 41.8147 76.6063 38.5747ZM67.8679 38.5689C67.8679 39.5571 68.69 40.3793 69.6782 40.3793C70.6665 40.3793 71.472 39.5571 71.472 38.5689C71.472 37.5808 70.6665 36.7503 69.6782 36.7503C68.69 36.7503 67.8679 37.5808 67.8679 38.5689ZM69.6601 34.463C71.8941 34.463 73.7152 36.3405 73.7152 38.5746C73.7152 40.8086 71.8941 42.667 69.6601 42.667C67.426 42.667 65.5673 40.8086 65.5673 38.5746C65.5673 36.3405 67.426 34.463 69.6601 34.463Z" fill="#4A9B28"/>
<path fill-rule="evenodd" clip-rule="evenodd" d="M78.6054 44.5449V34.7764H82.8337C83.7082 34.7764 84.4618 34.9183 85.0944 35.202C85.727 35.4859 86.2155 35.8929 86.5596 36.4231C86.9039 36.9534 87.076 37.586 87.076 38.321C87.076 39.0467 86.9039 39.6723 86.5596 40.1979C86.2155 40.7235 85.727 41.126 85.0944 41.4051C84.2425 41.7109 83.6466 41.8315 82.8337 41.8237H80.866V40.8329V44.5449H78.6054ZM84.8153 44.5449L82.8337 41.8237L83.1496 41.8198L83.4674 41.7985L83.7874 41.7599L84.1011 41.7011L84.5391 41.5881L85.0944 41.4051L87.2574 44.5449H84.8153ZM80.866 41.0841V40.0235H82.7081C83.4058 40.0235 83.9269 39.8723 84.271 39.57C84.6153 39.2677 84.7874 38.8513 84.7874 38.321C84.7874 37.7814 84.6153 37.3627 84.271 37.0651C83.9269 36.7674 83.4058 36.6185 82.7081 36.6185H79.8613H80.866V41.0841Z" fill="#4442D7"/>
</svg>
