<svg width="25" height="28" viewBox="0 0 25 28" fill="none" xmlns="http://www.w3.org/2000/svg">
<path d="M23.9775 12.2736L3 0.26986C2.69419 0.0915249 2.34651 -0.00244141 1.9925 -0.00244141C1.63849 -0.00244141 1.29082 0.0915249 0.985 0.26986C0.6837 0.442624 0.433718 0.692349 0.260644 0.993472C0.0875695 1.2946 -0.00238075 1.6363 2.95437e-07 1.98361V26.0161C-0.000991242 26.3631 0.0901346 26.7041 0.264068 27.0043C0.438002 27.3045 0.68851 27.5532 0.99 27.7249C1.29582 27.9032 1.64349 27.9972 1.9975 27.9972C2.35151 27.9972 2.69919 27.9032 3.005 27.7249L23.9775 15.7249C24.287 15.5552 24.5451 15.3054 24.725 15.0017C24.9048 14.698 24.9997 14.3516 24.9997 13.9986C24.9997 13.6457 24.9048 13.2992 24.725 12.9955C24.5451 12.6918 24.287 12.4421 23.9775 12.2724V12.2736ZM2 24.5836V3.41611L12.5863 13.9999L2 24.5836ZM14 15.4136L16.365 17.7786L5.3025 24.1111L14 15.4136ZM5.3 3.88736L16.3662 10.2211L14 12.5861L5.3 3.88736ZM18.1637 16.7499L15.4137 13.9999L18.1637 11.2499L22.9675 13.9999L18.1637 16.7499Z" fill="#4442D7"/>
</svg>
