<svg width="9" height="7" viewBox="0 0 9 7" fill="none" xmlns="http://www.w3.org/2000/svg">
<path d="M8.43041 3.46399L5.93548 0.963126C5.89533 0.925095 5.84498 0.899562 5.79057 0.889638C5.73616 0.879714 5.68004 0.885827 5.62905 0.907232C5.57805 0.928638 5.53438 0.964412 5.50336 1.0102C5.47233 1.05598 5.45529 1.1098 5.45432 1.1651V3.2145H0.612972C0.494812 3.2145 0.381492 3.26144 0.297941 3.34499C0.214389 3.42854 0.16745 3.54186 0.16745 3.66002C0.16745 3.77818 0.214389 3.8915 0.297941 3.97505C0.381492 4.05861 0.494812 4.10554 0.612972 4.10554H5.45432V6.15495C5.45529 6.21024 5.47233 6.26406 5.50336 6.30985C5.53438 6.35563 5.57805 6.39141 5.62905 6.41281C5.68004 6.43422 5.73616 6.44033 5.79057 6.43041C5.84498 6.42048 5.89533 6.39495 5.93548 6.35692L8.43041 3.85605C8.4574 3.83103 8.47893 3.8007 8.49365 3.76697C8.50838 3.73324 8.51598 3.69683 8.51598 3.66002C8.51598 3.62322 8.50838 3.58681 8.49365 3.55307C8.47893 3.51934 8.4574 3.48902 8.43041 3.46399Z" fill="#2A2A2A"/>
</svg>
