<svg width="21" height="15" viewBox="0 0 21 15" fill="none" xmlns="http://www.w3.org/2000/svg">
<rect x="0.0072937" y="0.416931" width="20.6688" height="14.4861" rx="6.53433" fill="white"/>
<path d="M14.4304 7.46399L11.9355 4.96313C11.8953 4.9251 11.845 4.89956 11.7906 4.88964C11.7362 4.87971 11.68 4.88583 11.629 4.90723C11.5781 4.92864 11.5344 4.96441 11.5034 5.0102C11.4723 5.05598 11.4553 5.1098 11.4543 5.1651V7.2145H6.61297C6.49481 7.2145 6.38149 7.26144 6.29794 7.34499C6.21439 7.42854 6.16745 7.54186 6.16745 7.66002C6.16745 7.77818 6.21439 7.8915 6.29794 7.97505C6.38149 8.05861 6.49481 8.10554 6.61297 8.10554H11.4543V10.1549C11.4553 10.2102 11.4723 10.2641 11.5034 10.3098C11.5344 10.3556 11.5781 10.3914 11.629 10.4128C11.68 10.4342 11.7362 10.4403 11.7906 10.4304C11.845 10.4205 11.8953 10.3949 11.9355 10.3569L14.4304 7.85605C14.4574 7.83103 14.4789 7.8007 14.4937 7.76697C14.5084 7.73324 14.516 7.69683 14.516 7.66002C14.516 7.62322 14.5084 7.58681 14.4937 7.55307C14.4789 7.51934 14.4574 7.48902 14.4304 7.46399Z" fill="#2A2A2A"/>
</svg>
