<svg width="27" height="27" viewBox="0 0 27 27" fill="none" xmlns="http://www.w3.org/2000/svg">
<path d="M25.7338 7.39501C27.1214 10.2973 27.3848 13.6107 26.4732 16.6957C25.5616 19.7808 23.5395 22.4188 20.7972 24.1006C18.0549 25.7825 14.7868 26.3889 11.6237 25.8029C8.46062 25.2169 5.62669 23.4799 3.6689 20.9274C1.71112 18.3748 0.768254 15.1874 1.02229 11.9805C1.27632 8.77366 2.70924 5.77454 5.04449 3.56201C7.37975 1.34949 10.4518 0.0804062 13.6677 -0.000295599C16.8836 -0.0809974 20.0155 1.0324 22.4588 3.12501L25.2925 0.290009C25.4801 0.102369 25.7346 -0.00304671 26 -0.00304671C26.2654 -0.00304671 26.5199 0.102369 26.7075 0.290009C26.8951 0.47765 27.0006 0.732145 27.0006 0.997509C27.0006 1.26287 26.8951 1.51737 26.7075 1.70501L14.7075 13.705C14.5199 13.8927 14.2654 13.9981 14 13.9981C13.7346 13.9981 13.4801 13.8927 13.2925 13.705C13.1049 13.5174 12.9994 13.2629 12.9994 12.9975C12.9994 12.7321 13.1049 12.4776 13.2925 12.29L16.7575 8.82501C15.8184 8.20395 14.6973 7.918 13.5755 8.01344C12.4537 8.10888 11.3969 8.58014 10.5763 9.35091C9.75563 10.1217 9.21914 11.1469 9.05365 12.2605C8.88816 13.3741 9.10335 14.511 9.6644 15.4871C10.2254 16.4632 11.0995 17.2214 12.1451 17.6389C13.1906 18.0564 14.3465 18.1089 15.4256 17.7877C16.5047 17.4666 17.4438 16.7906 18.0909 15.8693C18.738 14.948 19.0552 13.8353 18.9913 12.7113C18.9839 12.5799 19.0024 12.4484 19.0458 12.3243C19.0893 12.2001 19.1567 12.0858 19.2444 11.9877C19.332 11.8896 19.4381 11.8097 19.5566 11.7527C19.6751 11.6956 19.8037 11.6624 19.935 11.655C20.2002 11.6401 20.4605 11.7311 20.6586 11.9081C20.7567 11.9958 20.8365 12.1019 20.8936 12.2204C20.9507 12.3389 20.9839 12.4674 20.9913 12.5988C21.0824 14.1897 20.628 15.7642 19.7031 17.0619C18.7782 18.3596 17.4382 19.3029 15.9046 19.7359C14.3709 20.1689 12.7355 20.0656 11.2685 19.4431C9.8015 18.8207 8.59081 17.7163 7.83652 16.3125C7.08223 14.9088 6.82949 13.2897 7.12008 11.7228C7.41067 10.1559 8.22718 8.73511 9.43467 7.69517C10.6422 6.65523 12.1684 6.05843 13.761 6.0034C15.3536 5.94837 16.9174 6.4384 18.1938 7.39251L21.0375 4.54876C18.9535 2.8185 16.3037 1.91921 13.5971 2.0236C10.8904 2.128 8.31777 3.22871 6.37324 5.11434C4.4287 6.99997 3.24939 9.53755 3.06181 12.2397C2.87423 14.9419 3.6916 17.6181 5.35695 19.7543C7.0223 21.8905 9.41819 23.3361 12.0844 23.8135C14.7507 24.2909 17.4993 23.7663 19.8024 22.3406C22.1055 20.9149 23.8006 18.6886 24.5623 16.0892C25.3239 13.4898 25.0983 10.7007 23.9288 8.25751C23.8144 8.01815 23.7998 7.74316 23.8881 7.49304C23.9765 7.24291 24.1606 7.03813 24.4 6.92376C24.6394 6.80938 24.9144 6.79478 25.1645 6.88316C25.4146 6.97153 25.6194 7.15565 25.7338 7.39501Z" fill="#4442D7"/>
</svg>
