<svg width="80" height="80" viewBox="0 0 80 80" fill="none" xmlns="http://www.w3.org/2000/svg">
<circle cx="40" cy="40" r="40" fill="#4442D7" fill-opacity="0.05"/>
<g clip-path="url(#clip0_280_267)">
<path d="M50.0625 31.375H57.7136C58.0001 31.3749 58.28 31.4603 58.5176 31.6204C58.7551 31.7805 58.9395 32.0079 59.0469 32.2734L61.5625 38.5625" stroke="#4442D7" stroke-width="2.5" stroke-linecap="round" stroke-linejoin="round"/>
<path d="M21.3125 42.875H50.0625" stroke="#4442D7" stroke-width="2.5" stroke-linecap="round" stroke-linejoin="round"/>
<path d="M51.5 55.8125C53.8817 55.8125 55.8125 53.8817 55.8125 51.5C55.8125 49.1183 53.8817 47.1875 51.5 47.1875C49.1183 47.1875 47.1875 49.1183 47.1875 51.5C47.1875 53.8817 49.1183 55.8125 51.5 55.8125Z" stroke="#4442D7" stroke-width="2.5" stroke-linecap="round" stroke-linejoin="round"/>
<path d="M31.375 55.8125C33.7567 55.8125 35.6875 53.8817 35.6875 51.5C35.6875 49.1183 33.7567 47.1875 31.375 47.1875C28.9933 47.1875 27.0625 49.1183 27.0625 51.5C27.0625 53.8817 28.9933 55.8125 31.375 55.8125Z" stroke="#4442D7" stroke-width="2.5" stroke-linecap="round" stroke-linejoin="round"/>
<path d="M47.1875 51.5H35.6875" stroke="#4442D7" stroke-width="2.5" stroke-linecap="round" stroke-linejoin="round"/>
<path d="M50.0625 38.5625H61.5625V50.0625C61.5625 50.4437 61.4111 50.8094 61.1415 51.079C60.8719 51.3486 60.5062 51.5 60.125 51.5H55.8125" stroke="#4442D7" stroke-width="2.5" stroke-linecap="round" stroke-linejoin="round"/>
<path d="M27.0625 51.5H22.75C22.3688 51.5 22.0031 51.3486 21.7335 51.079C21.464 50.8094 21.3125 50.4437 21.3125 50.0625V29.9375C21.3125 29.5563 21.464 29.1906 21.7335 28.921C22.0031 28.6515 22.3688 28.5 22.75 28.5H50.0625V47.4337" stroke="#4442D7" stroke-width="2.5" stroke-linecap="round" stroke-linejoin="round"/>
</g>
<defs>
<clipPath id="clip0_280_267">
<rect width="46" height="46" fill="white" transform="translate(17 17)"/>
</clipPath>
</defs>
</svg>
