<svg width="30" height="31" viewBox="0 0 30 31" fill="none" xmlns="http://www.w3.org/2000/svg">
<circle cx="15" cy="15.3066" r="14.5" stroke="white" stroke-opacity="0.8"/>
<g clip-path="url(#clip0_1_589)">
<path fill-rule="evenodd" clip-rule="evenodd" d="M15.5 10.1396C16.1772 10.1396 16.8709 10.1555 17.5439 10.1806L18.3391 10.2146L19.1001 10.2548L19.8127 10.2987L20.4626 10.3436C21.9177 10.4492 23.0871 11.4567 23.2293 12.7683L23.2608 13.0691L23.3202 13.7136C23.3757 14.3817 23.4167 15.1103 23.4167 15.8063C23.4167 16.5024 23.3757 17.2309 23.3202 17.899L23.2608 18.5436C23.2504 18.6465 23.2399 18.7469 23.2293 18.8443C23.0871 20.1559 21.9177 21.1634 20.4626 21.2691L19.8127 21.3139L19.1001 21.3578L18.3391 21.398L17.5439 21.4321C16.8709 21.4571 16.1772 21.473 15.5 21.473C14.8228 21.473 14.1292 21.4571 13.4562 21.4321L12.661 21.398L11.9 21.3578L11.1874 21.3139L10.5375 21.2691C9.0824 21.1634 7.91302 20.1559 7.77075 18.8443L7.73927 18.5436L7.6799 17.899C7.62438 17.2309 7.58337 16.5024 7.58337 15.8063C7.58337 15.1103 7.62438 14.3817 7.6799 13.7136L7.73927 13.0691C7.74965 12.9661 7.76018 12.8658 7.77075 12.7683C7.91302 11.4567 9.0824 10.4492 10.5375 10.3436L11.1874 10.2987L11.9 10.2548L12.661 10.2146L13.4562 10.1806C14.1292 10.1555 14.8228 10.1396 15.5 10.1396ZM13.9167 14.0887V17.524C13.9167 17.8511 14.3125 18.0556 14.6292 17.892L17.9542 16.1744C18.2709 16.0108 18.2709 15.6018 17.9542 15.4383L14.6292 13.7206C14.3125 13.5571 13.9167 13.7615 13.9167 14.0887Z" fill="white" fill-opacity="0.8"/>
</g>
<defs>
<clipPath id="clip0_1_589">
<rect width="19" height="17" fill="white" transform="translate(6 7.30664)"/>
</clipPath>
</defs>
</svg>
